<?xml version="1.0" encoding="UTF-8"?>
<svg width="48px" height="48px" viewBox="0 0 48 48" version="1.1" xmlns="http://www.w3.org/2000/svg" xmlns:xlink="http://www.w3.org/1999/xlink">
    <!-- Generator: Sketch 48.2 (47327) - http://www.bohemiancoding.com/sketch -->
    <title>Group</title>
    <desc>Created with Sketch.</desc>
    <defs>
        <linearGradient x1="66.67%" y1="16.67%" x2="41.67%" y2="75%" id="linearGradient-1">
            <stop stop-color="#37AEE2" offset="0%"></stop>
            <stop stop-color="#1E96C8" offset="100%"></stop>
        </linearGradient>
    </defs>
    <g id="KYC---ID-Verification---Step-2-Live-Verification" stroke="none" stroke-width="1" fill="none" fill-rule="evenodd" transform="translate(-487.000000, -298.000000)">
        <g id="Group-12" transform="translate(192.000000, 298.000000)">
            <g id="Group-7">
                <g id="Group-9" transform="translate(254.000000, 0.000000)">
                    <g id="Group" transform="translate(41.000000, 0.000000)">
                        <circle id="Oval" fill="url(#linearGradient-1)" fill-rule="nonzero" cx="24" cy="24" r="24"></circle>
                        <g id="ID" transform="translate(12.000000, 15.428571)">
                            <g id="Card">
                                <path d="M23.950758,16.9849555 L1.04924205,16.9849555 C0.543300043,16.9849555 0.133191788,16.5666451 0.133191788,16.0505842 L0.133191788,1.10048524 C0.133191788,0.584424396 0.543300043,0.166113975 1.04924205,0.166113975 L23.950758,0.166113975 C24.4567,0.166113975 24.8668082,0.584424396 24.8668082,1.10048524 L24.8668082,16.0505842 C24.8668082,16.5665922 24.4566481,16.9849555 23.950758,16.9849555 Z" id="Shape" fill="#EEEEEE" fill-rule="nonzero"></path>
                                <path d="M10.0914442,15.6313565 L1.84693996,15.6313565 C1.5939949,15.6313565 1.38888889,15.4221483 1.38888889,15.1641444 L1.38888889,3.01721209 C1.38888889,2.75920813 1.5939949,2.55 1.84693996,2.55 L10.0914961,2.55 C10.3444411,2.55 10.5495471,2.75920813 10.5495471,3.01721209 L10.5495471,15.1641973 C10.5494953,15.4222013 10.3443892,15.6313565 10.0914442,15.6313565 Z" id="Shape" fill="#00BCD4" fill-rule="nonzero"></path>
                                <g id="Group" transform="translate(12.500000, 3.383516)" fill="#00BCD4" fill-rule="nonzero">
                                    <path d="M7.78650503,0.987295153 L0.458051073,0.987295153 C0.205106014,0.987295153 -2.84217094e-14,0.778087019 -2.84217094e-14,0.520083059 C-2.84217094e-14,0.262079099 0.205106014,0.0528709653 0.458051073,0.0528709653 L7.78650503,0.0528709653 C8.03945009,0.0528709653 8.2445561,0.262079099 8.2445561,0.520083059 C8.2445561,0.778139943 8.03945009,0.987295153 7.78650503,0.987295153 Z" id="Shape"></path>
                                    <path d="M10.0766566,2.85609061 L0.458051073,2.85609061 C0.205106014,2.85609061 -2.84217094e-14,2.64688247 -2.84217094e-14,2.38887851 C-2.84217094e-14,2.13087455 0.205106014,1.92166642 0.458051073,1.92166642 L10.0766566,1.92166642 C10.3296017,1.92166642 10.5347077,2.13087455 10.5347077,2.38887851 C10.5346558,2.64688247 10.3296017,2.85609061 10.0766566,2.85609061 Z" id="Shape"></path>
                                </g>
                                <path d="M13.8741013,10.4443037 L12.9580511,10.4443037 C12.705106,10.4443037 12.5,10.2350956 12.5,9.97709164 C12.5,9.71908768 12.705106,9.50987954 12.9580511,9.50987954 L13.8741013,9.50987954 C14.1270464,9.50987954 14.3321524,9.71908768 14.3321524,9.97709164 C14.3321005,10.2350956 14.1270464,10.4443037 13.8741013,10.4443037 Z" id="Shape" fill="#787489" fill-rule="nonzero"></path>
                                <path d="M21.2025553,10.4443037 L15.7062018,10.4443037 C15.4532568,10.4443037 15.2481508,10.2350956 15.2481508,9.97709164 C15.2481508,9.71908768 15.4532568,9.50987954 15.7062018,9.50987954 L21.2025553,9.50987954 C21.4555003,9.50987954 21.6606064,9.71908768 21.6606064,9.97709164 C21.6606064,10.2350956 21.4555003,10.4443037 21.2025553,10.4443037 Z" id="Shape" fill="#B3B3B3" fill-rule="nonzero"></path>
                                <path d="M13.8741013,12.3130463 L12.9580511,12.3130463 C12.705106,12.3130463 12.5,12.1038381 12.5,11.8458342 C12.5,11.5878302 12.705106,11.3786221 12.9580511,11.3786221 L13.8741013,11.3786221 C14.1270464,11.3786221 14.3321524,11.5878302 14.3321524,11.8458342 C14.3321005,12.103891 14.1270464,12.3130463 13.8741013,12.3130463 Z" id="Shape" fill="#787489" fill-rule="nonzero"></path>
                                <path d="M22.5766566,12.3130463 L15.7062018,12.3130463 C15.4532568,12.3130463 15.2481508,12.1038381 15.2481508,11.8458342 C15.2481508,11.5878302 15.4532568,11.3786221 15.7062018,11.3786221 L22.5766566,11.3786221 C22.8296017,11.3786221 23.0347077,11.5878302 23.0347077,11.8458342 C23.0346558,12.103891 22.8296017,12.3130463 22.5766566,12.3130463 Z" id="Shape" fill="#B3B3B3" fill-rule="nonzero"></path>
                                <path d="M13.8741013,14.1817888 L12.9580511,14.1817888 C12.705106,14.1817888 12.5,13.9725807 12.5,13.7145767 C12.5,13.4565727 12.705106,13.2473646 12.9580511,13.2473646 L13.8741013,13.2473646 C14.1270464,13.2473646 14.3321524,13.4565727 14.3321524,13.7145767 C14.3321005,13.9726336 14.1270464,14.1817888 13.8741013,14.1817888 Z" id="Shape" fill="#787489" fill-rule="nonzero"></path>
                                <path d="M19.3704548,14.1817888 L15.7062018,14.1817888 C15.4532568,14.1817888 15.2481508,13.9725807 15.2481508,13.7145767 C15.2481508,13.4565727 15.4532568,13.2473646 15.7062018,13.2473646 L19.3704548,13.2473646 C19.6233998,13.2473646 19.8285058,13.4565727 19.8285058,13.7145767 C19.828454,13.9726336 19.6233998,14.1817888 19.3704548,14.1817888 Z" id="Shape" fill="#B3B3B3" fill-rule="nonzero"></path>
                            </g>
                            <g id="Icons/Color/Man-Purple-Shirt" transform="translate(2.777778, 3.116667)">
                                <g id="man-(4)" transform="translate(0.005168, 0.000000)">
                                    <g id="Group" fill-rule="nonzero">
                                        <path d="M6.90341052,11.9838534 L6.90341052,11.9844817 L0.0358880387,11.9844817 L0.0358880387,11.9838534 C0.0358880387,11.5969005 0.0999828165,11.2242094 0.21910592,10.8773403 C0.240449859,10.8147016 0.263745603,10.7526911 0.288993153,10.6913089 L0.288993153,10.6906806 C0.313611089,10.6292984 0.340747483,10.5692356 0.369269029,10.5098639 C0.482536716,10.2714974 0.623696335,10.0486492 0.787459122,9.84452356 C0.82888777,9.79344503 0.871008994,9.74374869 0.914326487,9.69593717 C0.935670426,9.67137173 0.958336555,9.64749738 0.981002685,9.62356021 C1.00366881,9.60031414 1.02633494,9.57706806 1.04963069,9.55382199 C1.1654798,9.43815707 1.28976574,9.33223037 1.42053672,9.23472251 C1.48595369,9.18628272 1.55193731,9.14104712 1.62056531,9.09713089 C1.64518325,9.08161257 1.66973822,9.06609424 1.69498577,9.05126702 C1.70600403,9.04479581 1.7176519,9.03832461 1.72867016,9.0318534 C1.76235454,9.01181152 1.79597597,8.99246073 1.83028997,8.97373822 C1.83161216,8.97241885 1.83287139,8.97241885 1.83287139,8.97241885 C1.86070036,8.9575288 1.88789972,8.9413822 1.91509907,8.92460733 C1.99600456,8.87616754 2.07369902,8.82251309 2.14748986,8.76314136 C2.3850435,8.57453403 2.58186106,8.33679581 2.72295771,8.06613613 C2.76766036,7.98025131 2.8071372,7.89109948 2.84012901,7.79937173 C2.92235669,7.57068063 2.96705934,7.32458639 2.96705934,7.06749738 L3.46741415,7.0700733 L3.46873634,7.0700733 L3.98206122,7.07271204 C3.98206122,7.32653403 4.02544167,7.57011518 4.10565458,7.79616754 C4.13801678,7.88858639 4.17686401,7.97767539 4.22150369,8.06362304 C4.36197073,8.33553927 4.55815868,8.57453403 4.79571231,8.76383246 C4.8423038,8.80190576 4.88958786,8.8368377 4.93945335,8.86975916 C4.94461619,8.87365445 4.94914942,8.87685864 4.95431226,8.88012565 C4.977608,8.89564398 5.00090375,8.9111623 5.02552168,8.92536126 C5.05209142,8.94150785 5.07929078,8.95765445 5.10642717,8.97248168 C5.1109604,8.97380105 5.11486401,8.97568586 5.11807504,8.97826178 C5.14848543,8.99509948 5.17895879,9.01250262 5.2086766,9.03059686 C5.23461673,9.04542408 5.26049389,9.06094241 5.28637106,9.07708901 C5.31287784,9.0932356 5.33944758,9.11001047 5.36532474,9.12873298 C5.41903088,9.16297382 5.47147778,9.20048168 5.5226025,9.23918325 C5.5226025,9.23981152 5.52323211,9.23981152 5.52323211,9.23981152 L5.52392469,9.23981152 C5.5892787,9.28825131 5.65274386,9.33995812 5.71488683,9.39285864 C5.7770298,9.44582199 5.83659135,9.50142408 5.8942011,9.55891099 C6.51821224,10.1790785 6.90341052,11.0356021 6.90341052,11.9838534 Z" id="Shape" fill="#F0BB8E"></path>
                                        <path d="M6.90341052,11.9838534 L0.0358880387,11.9838534 C0.0358880387,11.5969005 0.0999828165,11.2242094 0.21910592,10.8773403 C0.240449859,10.8147016 0.263745603,10.7526911 0.288993153,10.6913089 L0.288993153,10.6906806 C0.313611089,10.6292984 0.340747483,10.5692356 0.369269029,10.5098639 C0.482536716,10.2714974 0.623696335,10.0486492 0.787459122,9.84452356 C0.82888777,9.79344503 0.871008994,9.74374869 0.914326487,9.69593717 C0.935670426,9.67137173 0.958336555,9.64749738 0.981002685,9.62356021 C1.00366881,9.60031414 1.02633494,9.57706806 1.04963069,9.55382199 C1.1654798,9.43815707 1.28976574,9.33223037 1.42053672,9.23472251 C1.48595369,9.18628272 1.55193731,9.14104712 1.62056531,9.09713089 C1.64518325,9.08161257 1.66973822,9.06609424 1.69498577,9.05126702 C1.70600403,9.04416754 1.71702228,9.03769634 1.72797758,9.03122513 C1.76166197,9.01118325 1.79597597,8.99183246 1.83028997,8.97310995 C1.83161216,8.97179058 1.83287139,8.97248168 1.83287139,8.97248168 L1.83287139,8.9718534 C1.86070036,8.95633508 1.88789972,8.94081675 1.91509907,8.92473298 C1.99600456,8.87560209 2.07369902,8.8213822 2.14616767,8.76194764 C2.14679729,8.76257592 2.14679729,8.76257592 2.14748986,8.76320419 C2.48282266,9.10554974 2.94955605,9.31809424 3.46741415,9.31935079 L3.47257699,9.31935079 C3.99043509,9.31935079 4.45912028,9.10617801 4.79571231,8.76383246 L4.79634193,8.76320419 C4.8423038,8.80134031 4.89021748,8.8368377 4.93939039,8.86975916 C4.94455323,8.87365445 4.94908645,8.87685864 4.9542493,8.88012565 C4.97754504,8.89564398 5.0014704,8.9104712 5.02545872,8.92536126 C5.05202846,8.94150785 5.07922782,8.95702618 5.10636421,8.9718534 C5.11089744,8.97317277 5.11410847,8.97574869 5.11801208,8.97763351 C5.14842247,8.9944712 5.17952544,9.01187435 5.20930622,9.02996859 C5.23518338,9.04548691 5.26112351,9.06100524 5.28637106,9.07715183 C5.31287784,9.09329843 5.33944758,9.1100733 5.36532474,9.12879581 C5.41903088,9.16303665 5.47147778,9.2005445 5.5226025,9.23924607 L5.52392469,9.23924607 C5.5892787,9.28831414 5.65337347,9.33939267 5.71488683,9.39298429 C5.7770298,9.44594764 5.83659135,9.50154974 5.8942011,9.55903665 C6.51821224,10.1790785 6.90341052,11.0356021 6.90341052,11.9838534 Z" id="Shape" fill="#473B7B"></path>
                                        <path d="M5.20930622,9.02996859 L5.2086766,9.03059686 L5.13809679,9.10228272 C4.69402953,9.55382199 4.1010584,9.80249215 3.46861042,9.80249215 C3.4679808,9.80249215 3.4679808,9.80249215 3.46728823,9.80249215 C2.82904779,9.8005445 2.23802846,9.55187435 1.79591301,9.10102618 L1.7286072,9.03191623 L1.72797758,9.03128796 C1.76166197,9.01124607 1.79597597,8.99189529 1.83028997,8.97317277 C1.83161216,8.9718534 1.83287139,8.9725445 1.83287139,8.9725445 L1.83287139,8.97191623 C1.86070036,8.95639791 1.88789972,8.94087958 1.91509907,8.92479581 C1.99600456,8.87566492 2.07369902,8.82144503 2.14616767,8.76201047 C2.14679729,8.76263874 2.14679729,8.76263874 2.14748986,8.76326702 C2.48282266,9.10561257 2.94955605,9.31815707 3.46741415,9.31941361 L3.47257699,9.31941361 C3.99043509,9.31941361 4.45912028,9.10624084 4.79571231,8.76389529 L4.79634193,8.76326702 C4.8423038,8.80140314 4.89021748,8.83690052 4.93939039,8.86982199 C4.94455323,8.87371728 4.94908645,8.87692147 4.9542493,8.88018848 C4.97754504,8.89570681 5.0014704,8.91053403 5.02545872,8.92542408 C5.05202846,8.94157068 5.07922782,8.95708901 5.10636421,8.97191623 C5.11089744,8.9732356 5.11410847,8.97581152 5.11801208,8.97769634 C5.14848543,8.99440838 5.1795884,9.01187435 5.20930622,9.02996859 Z" id="Shape" fill="#FFFFFF"></path>
                                        <g transform="translate(0.818499, 0.000000)">
                                            <path d="M5.28674883,3.39857592 L5.28674883,4.97528796 C5.28674883,5.00368586 5.28611921,5.0321466 5.2854896,5.0605445 C5.28485998,5.0824712 5.28416741,5.10446073 5.28290818,5.12638743 C5.28227856,5.14837696 5.28095637,5.16967539 5.27900456,5.19160209 C5.27837495,5.20642932 5.27705276,5.22131937 5.27579353,5.23620942 C5.27516391,5.24525654 5.2745343,5.25361257 5.27321211,5.26265969 C5.27195288,5.27880628 5.27063069,5.29558115 5.26804927,5.31172775 C5.26672708,5.32724607 5.26546785,5.3427644 5.26288643,5.3582199 C5.26156424,5.37310995 5.25967539,5.38856545 5.25703101,5.40408377 C5.25123856,5.45057592 5.24343133,5.49706806 5.2349945,5.54293194 C5.22920204,5.57396859 5.22334662,5.60494241 5.21686159,5.63535079 C5.21623198,5.63667016 5.21623198,5.6379267 5.21560236,5.63924607 C5.21497275,5.64376963 5.21428017,5.64829319 5.21302094,5.65281675 C5.21239133,5.65413613 5.21239133,5.65539267 5.21169875,5.65671204 C5.21169875,5.65803141 5.21169875,5.65928796 5.21106914,5.66060733 C5.20974695,5.66707853 5.20848772,5.67354974 5.20653591,5.67995812 C5.20527668,5.68768586 5.20332488,5.69547644 5.20137307,5.70320419 C5.20011384,5.71162304 5.19809907,5.71935079 5.19551765,5.72714136 C5.19356585,5.7387644 5.19035481,5.75038743 5.18771043,5.76201047 C5.18575863,5.76848168 5.1844994,5.77558115 5.18191798,5.78205236 C5.18059578,5.78789529 5.17870694,5.79367539 5.17738475,5.79889005 C5.16378507,5.8518534 5.14823359,5.90349738 5.13205249,5.95520419 C5.12430823,5.97976963 5.11650101,6.00364398 5.10812713,6.02820942 C5.10743455,6.03078534 5.10617533,6.03336126 5.10548275,6.03593717 C5.09773849,6.0579267 5.08993127,6.0798534 5.082187,6.10184293 C5.07960558,6.10831414 5.07702416,6.11472251 5.07444274,6.12188482 C5.06663552,6.14255497 5.05889126,6.16322513 5.05051738,6.18389529 C5.04082132,6.20908901 5.03043268,6.23365445 5.02010699,6.2582199 C5.01104054,6.28020942 5.00134448,6.30213613 4.99158545,6.32406283 C4.99032622,6.32795812 4.98837441,6.3311623 4.98705222,6.33505759 C4.97603396,6.35830366 4.96570828,6.38154974 4.95469003,6.40416754 C4.94367177,6.42804188 4.9320239,6.45197906 4.91974641,6.47591623 C4.89645066,6.52303665 4.87120311,6.5702199 4.84595556,6.61608377 L4.81101195,6.67809424 C4.71128098,6.84929843 4.60059471,7.01013613 4.48021238,7.15865969 C4.46403128,7.17995812 4.44722057,7.20062827 4.42971728,7.22067016 C4.40572896,7.24975916 4.38117398,7.27815707 4.35655605,7.3059267 C4.33451953,7.33049215 4.31254598,7.35499476 4.28987985,7.37893194 C4.22773688,7.44546597 4.16427171,7.50879581 4.09954732,7.56823037 C4.08657726,7.58117277 4.07304054,7.59279581 4.0593779,7.60504712 C4.03734139,7.62508901 4.01536783,7.64443979 3.9927017,7.6631623 C3.97519842,7.67868063 3.95712847,7.69350785 3.93893261,7.70839791 C3.89234112,7.7464712 3.84574963,7.78328796 3.79846557,7.8175288 C3.77901047,7.83241885 3.75898872,7.8466178 3.73890401,7.86018848 C3.70654182,7.88343455 3.67348705,7.90542408 3.64049523,7.92672251 C3.62236233,7.93897382 3.60359981,7.95059686 3.58483729,7.96159162 C3.52464613,7.99903665 3.46313277,8.03327749 3.4029416,8.06362304 C3.39714915,8.06682723 3.39198631,8.06940314 3.38613089,8.07197906 C3.36994979,8.08039791 3.35376869,8.08812565 3.3375876,8.09591623 C3.3214065,8.10364398 3.30459578,8.11143455 3.2870925,8.1191623 C3.26574856,8.1288377 3.24440462,8.13788482 3.22299772,8.14630366 C3.21456088,8.15013613 3.20612404,8.15340314 3.19775017,8.15597906 C3.17250262,8.16628272 3.14656249,8.17602094 3.1213779,8.18437696 C3.08964532,8.196 3.05728313,8.20567539 3.02561351,8.21472251 C3.00357699,8.22119372 2.98097382,8.22697382 2.95893731,8.23212565 C2.95761512,8.23281675 2.95635589,8.23344503 2.95440408,8.23344503 C2.93236757,8.23859686 2.91039401,8.24374869 2.8883575,8.24764398 C2.88250208,8.24896335 2.87670963,8.2502199 2.87085421,8.25084817 C2.8527213,8.25405236 2.8345884,8.25731937 2.8164555,8.25926702 C2.79057833,8.26309948 2.76470117,8.26636649 2.738824,8.26768586 C2.72975755,8.26900524 2.72132071,8.26963351 2.71231722,8.26963351 C2.6916029,8.27089005 2.67088858,8.27158115 2.65080387,8.27158115 L2.64885206,8.27158115 C2.62876735,8.27158115 2.6087456,8.27095288 2.58866089,8.26963351 C2.58085367,8.26963351 2.57310941,8.26900524 2.56536515,8.26768586 C2.54723225,8.26699476 2.52846973,8.26510995 2.50901463,8.26253403 C2.50511102,8.26253403 2.5005778,8.26190576 2.49673715,8.26121466 C2.47281179,8.25801047 2.44882347,8.25411518 2.42420553,8.24959162 C2.40349121,8.24638743 2.38277688,8.24186387 2.36143294,8.23671204 C2.25074668,8.21151832 2.13684938,8.1733822 2.02156692,8.12236649 C1.98271969,8.10490052 1.94324285,8.08686911 1.90439562,8.06613613 C1.84420446,8.03641885 1.78401329,8.00280628 1.72445174,7.96598953 C1.67458625,7.93564398 1.62472077,7.90335079 1.57554786,7.86910995 C1.55092992,7.85164398 1.52637495,7.83424084 1.50175701,7.8161466 C1.42475513,7.75991623 1.34831991,7.69859686 1.27326983,7.6326911 C1.25255551,7.61396859 1.23184119,7.59524607 1.21112686,7.57583246 C1.19041254,7.55710995 1.16969821,7.53775916 1.14961351,7.51897382 C1.09911841,7.47053403 1.0499455,7.4201466 1.00203182,7.36781152 C0.983269298,7.34776963 0.964506779,7.3271623 0.9456813,7.30580105 C0.89392697,7.24768586 0.843368909,7.18762304 0.79551819,7.12492147 C0.776755672,7.10230366 0.759252383,7.07905759 0.741812055,7.05581152 C0.676458048,6.96929843 0.614315076,6.87882723 0.556012753,6.78515183 C0.54046127,6.75995812 0.524972748,6.7340733 0.510050879,6.70894241 C0.491917976,6.67859686 0.474477648,6.64756021 0.456974359,6.61658639 C0.392249966,6.50029319 0.332688415,6.37953927 0.280871124,6.25482723 C0.273126863,6.23673298 0.26531964,6.21863874 0.258834609,6.20060733 C0.248508927,6.17736126 0.239442476,6.15348691 0.231005638,6.13017801 C0.218035575,6.09593717 0.205758088,6.06169634 0.194110216,6.0274555 C0.182462344,5.99321466 0.171444086,5.95834555 0.160425829,5.92347644 C0.150037186,5.88986387 0.14034112,5.85631414 0.131274668,5.8220733 C0.120948986,5.78588482 0.11125292,5.74906806 0.102816083,5.71162304 C0.102186468,5.70772775 0.100864277,5.70383246 0.100234662,5.7 C0.0879571755,5.64835602 0.076938918,5.59602094 0.0672428514,5.54299476 C0.0542727883,5.47325654 0.043947107,5.40219895 0.0361398845,5.33051309 C0.0329288495,5.30789529 0.0309770439,5.28527749 0.0290252383,5.26265969 C0.026443818,5.23878534 0.0244920124,5.21547644 0.0232327829,5.19160209 C0.0200217479,5.14831414 0.0180699423,5.10439791 0.0167477514,5.06048168 C0.0161181367,5.03202094 0.0154255605,5.00362304 0.0154255605,4.97522513 L0.0154255605,3.39857592 C0.0154255605,3.03750785 0.0885867902,2.69321466 0.220616996,2.37989529 C0.223828031,2.37084817 0.227731642,2.36249215 0.231635253,2.3540733 C0.282822929,2.23589529 0.34232152,2.12217801 0.410319909,2.01367539 C0.420708551,1.99627225 0.431663847,1.97943455 0.442682105,1.96265969 C0.912626527,1.24435602 1.72508135,0.769570681 2.6487891,0.768942408 L2.65137052,0.768942408 C2.85209169,0.768942408 3.0475241,0.791560209 3.2352752,0.833528796 C3.40684521,0.872293194 3.57186723,0.927832461 3.72851537,0.99826178 C3.94214364,1.09382199 4.14085005,1.21658639 4.3195347,1.36322513 C4.46969781,1.4859267 4.6063242,1.6241466 4.72538435,1.77662827 C4.77197584,1.83606283 4.8159859,1.8973822 4.85747751,1.96071204 C4.86912539,1.97811518 4.88077326,1.99558115 4.8911619,2.01367539 C4.95846771,2.12154974 5.01865888,2.23463874 5.0697836,2.35281675 L5.08143147,2.37995812 C5.21088025,2.68680628 5.28341187,3.02268063 5.28599329,3.37539267 C5.28674883,3.38305759 5.28674883,3.39078534 5.28674883,3.39857592 Z" id="Shape" fill="#F0BB8E"></path>
                                            <path d="M5.28674883,4.97528796 C5.28674883,5.00368586 5.28611921,5.0321466 5.2854896,5.0605445 C5.28485998,5.0824712 5.28416741,5.10446073 5.28290818,5.12638743 C5.28227856,5.14837696 5.28095637,5.16967539 5.27900456,5.19160209 C5.27837495,5.20642932 5.27705276,5.22131937 5.27579353,5.23620942 C5.27516391,5.24525654 5.2745343,5.25361257 5.27321211,5.26265969 C5.27195288,5.27880628 5.27063069,5.29558115 5.26804927,5.31172775 C5.26672708,5.32724607 5.26483823,5.3427644 5.26288643,5.3582199 C5.26156424,5.37310995 5.25967539,5.38856545 5.25703101,5.40408377 C5.25123856,5.45057592 5.24343133,5.49706806 5.2349945,5.54293194 C5.22983166,5.5700733 5.22466881,5.59658639 5.2188134,5.62303665 C5.21818378,5.62887958 5.21686159,5.63403141 5.21560236,5.63918325 C5.21497275,5.64370681 5.21428017,5.64823037 5.21302094,5.65275393 C5.21239133,5.6540733 5.21239133,5.65532984 5.21169875,5.65664921 C5.21169875,5.65796859 5.21169875,5.65922513 5.21106914,5.6605445 C5.21106914,5.66117277 5.21106914,5.66186387 5.21106914,5.66186387 C5.20974695,5.66896335 5.2078581,5.67606283 5.20653591,5.68253403 C5.20527668,5.68963351 5.20332488,5.69673298 5.20137307,5.70320419 C5.20011384,5.71162304 5.19809907,5.71935079 5.19551765,5.72714136 C5.19293623,5.74002094 5.18966224,5.75233508 5.18582159,5.76458639 C5.18519197,5.77036649 5.18386978,5.77620942 5.18198094,5.78198953 C5.18065875,5.78783246 5.1787699,5.79361257 5.17744771,5.79882723 C5.16384803,5.85179058 5.14829655,5.90343455 5.13211545,5.95514136 C5.12437119,5.97970681 5.11656397,6.00358115 5.10819009,6.0281466 C5.10749752,6.03072251 5.10623829,6.03329843 5.10554571,6.03587435 C5.09780145,6.05786387 5.08999423,6.07979058 5.08224997,6.1017801 C5.07966855,6.10825131 5.07708713,6.11465969 5.07450571,6.12182199 C5.06669848,6.14249215 5.05895422,6.1631623 5.05058035,6.18383246 C5.04088428,6.20902618 5.03049564,6.23359162 5.02016996,6.25815707 C5.0111035,6.2801466 5.00140744,6.3020733 4.99164841,6.324 C4.99038918,6.32789529 4.98843737,6.33109948 4.98711518,6.33499476 C4.97609693,6.35824084 4.96577124,6.38148691 4.95475299,6.40410471 C4.94373473,6.42797906 4.93208686,6.45191623 4.91980937,6.4758534 C4.89651363,6.52297382 4.87126608,6.57015707 4.84601853,6.61602094 L4.81107491,6.67803141 C4.71134394,6.8492356 4.60065767,7.0100733 4.48027534,7.15859686 C4.46409424,7.17989529 4.44728353,7.20056545 4.42978024,7.22060733 C4.40579192,7.24969634 4.38123694,7.27809424 4.35661901,7.30586387 C4.33458249,7.33042932 4.31260894,7.35493194 4.28994281,7.37886911 C4.22779984,7.44540314 4.16433468,7.50873298 4.09961028,7.56816754 C4.08664022,7.58110995 4.0731035,7.59273298 4.05944086,7.60498429 C4.03740435,7.62502618 4.0154308,7.64437696 3.99276467,7.66309948 C3.97526138,7.6786178 3.95719144,7.69344503 3.93899557,7.70833508 C3.89240408,7.74640838 3.84581259,7.78322513 3.79852853,7.81746597 C3.77907343,7.83235602 3.75905168,7.84655497 3.73896698,7.86012565 C3.70660478,7.88337173 3.67355001,7.90536126 3.6405582,7.92665969 C3.62242529,7.93891099 3.60366277,7.95053403 3.58490026,7.9615288 C3.52470909,7.99897382 3.46319573,8.03321466 3.40300456,8.06356021 C3.39721211,8.0667644 3.39204927,8.06934031 3.38619385,8.07191623 C3.37001275,8.08033508 3.35383166,8.08806283 3.33765056,8.0958534 C3.32146946,8.10358115 3.30465875,8.11137173 3.28715546,8.11909948 C3.26581152,8.12877487 3.24446758,8.13782199 3.22306068,8.14624084 C3.21462384,8.1500733 3.206187,8.15334031 3.19781313,8.15591623 C3.17256558,8.1662199 3.14662545,8.17595812 3.12144086,8.18431414 C3.08970828,8.19593717 3.05734609,8.20561257 3.02567647,8.21465969 C3.00363995,8.22113089 2.98103678,8.22691099 2.95900027,8.23206283 C2.95767808,8.23275393 2.95641885,8.2333822 2.95446704,8.2333822 C2.93243053,8.23853403 2.91045697,8.24368586 2.88842046,8.24758115 C2.88256504,8.24890052 2.87677259,8.25015707 2.87091717,8.25078534 C2.85278427,8.25398953 2.83465136,8.25725654 2.81651846,8.25920419 C2.79064129,8.26303665 2.76476413,8.26630366 2.73888696,8.26762304 C2.72982051,8.26894241 2.72138368,8.26957068 2.71238019,8.26957068 C2.69166586,8.27082723 2.67095154,8.27151832 2.65086683,8.27151832 L2.64891502,8.27151832 C2.62883031,8.27151832 2.60880856,8.27089005 2.58872386,8.26957068 C2.58091663,8.26957068 2.57317237,8.26894241 2.56542811,8.26762304 C2.54729521,8.26693194 2.52853269,8.26504712 2.50907759,8.2624712 C2.50517398,8.2624712 2.50064076,8.26184293 2.49680011,8.26115183 C2.47287475,8.25794764 2.44888643,8.25405236 2.42426849,8.2495288 C2.40355417,8.24632461 2.38283984,8.24180105 2.36149591,8.23664921 C2.25080964,8.2114555 2.13691234,8.17331937 2.02162988,8.12230366 C1.98278266,8.1048377 1.94330581,8.08680628 1.90445859,8.0660733 C1.84426742,8.03635602 1.78407625,8.00274346 1.7245147,7.9659267 C1.67464921,7.93620942 1.62547631,7.90391623 1.57561082,7.86904712 C1.55099288,7.85158115 1.52643791,7.83417801 1.50181998,7.81608377 C1.4248181,7.7598534 1.34838287,7.69853403 1.2733328,7.63262827 C1.25261847,7.61390576 1.23190415,7.59518325 1.21118982,7.57576963 C1.1904755,7.55704712 1.16976118,7.53769634 1.14967647,7.51891099 C1.09918137,7.4704712 1.05000846,7.42008377 1.00209478,7.36774869 C0.983332259,7.34770681 0.964569741,7.32709948 0.945744261,7.30573822 C0.893989932,7.24762304 0.84343187,7.18756021 0.795581152,7.12485864 C0.776818633,7.10224084 0.759315344,7.07899476 0.741875017,7.05574869 C0.67652101,6.9692356 0.614378037,6.8787644 0.556075715,6.78508901 C0.540524231,6.75989529 0.525035709,6.73401047 0.510113841,6.70887958 C0.491980937,6.67853403 0.474540609,6.64749738 0.45703732,6.61652356 C0.392312928,6.50023037 0.332751376,6.37947644 0.280934085,6.2547644 C0.273189824,6.23667016 0.265382602,6.21857592 0.25889757,6.2005445 C0.248571889,6.17729843 0.239505437,6.15342408 0.2310686,6.13011518 C0.218098537,6.09587435 0.20582105,6.06163351 0.194173178,6.02739267 C0.182525305,5.99315183 0.171507048,5.95828272 0.16048879,5.92341361 C0.150100148,5.88980105 0.140404081,5.85625131 0.131337629,5.82201047 C0.121011948,5.78582199 0.111315881,5.74900524 0.102879044,5.71156021 C0.102249429,5.70766492 0.100927239,5.70376963 0.100297624,5.69993717 C0.0880201369,5.64829319 0.0770018794,5.59595812 0.0673058129,5.54293194 C0.0543357498,5.47319372 0.0440100685,5.40213613 0.036202846,5.33045026 C0.032991811,5.30783246 0.0310400054,5.28521466 0.0290881998,5.26259686 C0.0265067794,5.23872251 0.0245549738,5.21541361 0.0232957444,5.19153927 C0.0200847094,5.14825131 0.0181329037,5.10433508 0.0168107128,5.06041885 C0.0161810981,5.03195812 0.0154885219,5.00356021 0.0154885219,4.9751623 L0.436260035,5.80071204 L1.15930957,6.11528796 L2.01445228,6.19218848 L2.01508189,6.19218848 L2.6487891,6.24967539 L2.65269271,6.24967539 L3.24566385,6.30332984 C3.24629346,6.30332984 3.24629346,6.30332984 3.24629346,6.30332984 L4.56879917,6.42219895 L5.28674883,4.97528796 Z" id="Shape" fill="#E9EDF2"></path>
                                            <g transform="translate(0.000000, 4.146597)" fill="#E9EDF2" id="Shape">
                                                <path d="M2.6540149,1.24341361 L2.65338529,1.87966492 L2.65338529,1.88035602 L2.65275567,2.10320419 L2.65275567,2.27824084 L2.65212606,2.85958115 L2.65212606,2.86020942 L2.65149644,2.85958115 L2.65086683,2.85958115 L2.65023721,2.85895288 L2.64891502,2.85832461 L0.102942006,1.56515183 C0.102312391,1.56125654 0.1009902,1.55736126 0.100360585,1.5535288 C0.0880830984,1.50188482 0.0770648409,1.44954974 0.0673687743,1.39652356 C0.0543987112,1.32678534 0.0440730299,1.25572775 0.0362658075,1.18404188 C0.0330547725,1.16142408 0.0311029668,1.13880628 0.0291511612,1.11618848 C0.0265697409,1.09231414 0.0246179353,1.06900524 0.0233587059,1.04513089 C0.0201476708,1.00184293 0.0181958652,0.957926702 0.0168736743,0.914010471 C0.0162440596,0.885549738 0.0155514834,0.857151832 0.0155514834,0.828753927 L0.0155514834,0.0567958115 C0.0155514834,0.0677905759 0.0161810981,0.0787853403 0.0161810981,0.0897172775 C0.0161810981,0.0974450262 0.0168107128,0.105235602 0.017503289,0.112963351 C0.0239253591,0.293151832 0.0537690965,0.49017801 0.108734461,0.691727749 C0.153374144,0.853193717 0.209095046,1.00240838 0.273819439,1.13553927 L0.273819439,1.13616754 C0.443437643,1.48818848 0.670602631,1.72718325 0.879760639,1.76594764 C0.892667741,1.76789529 0.906267418,1.76915183 0.919237482,1.7704712 C1.00014297,1.77951832 1.08495207,1.78467016 1.1723426,1.78467016 C1.50244959,1.78467016 1.79572412,1.5198534 1.98020124,1.41260733 C1.98152343,1.41197906 1.98278266,1.41128796 1.98410485,1.41065969 C1.99380091,1.40481675 2.00355994,1.39903665 2.01193382,1.39319372 C2.01451524,1.39124607 2.01709666,1.38998953 2.01967808,1.38867016 C2.17506699,1.3001466 2.39902094,1.24397906 2.64891502,1.24335079 L2.6540149,1.24335079 L2.6540149,1.24341361 Z"></path>
                                                <path d="M5.28756732,0.0564816754 L5.28693771,0.828376963 C5.28693771,1.02213613 5.26880481,1.21206283 5.23518338,1.3961466 C5.2215837,1.4697801 5.20603222,1.54278534 5.18796228,1.61509948 L4.59045791,2.4761466 L2.65231494,2.85920419 L2.65168533,2.85920419 L2.65105571,2.85983246 L2.65105571,2.85920419 L2.64910391,1.24278534 L2.65426675,1.24278534 C2.90409787,1.24341361 3.1287444,1.29964398 3.28407035,1.38810471 C3.28665177,1.38942408 3.28860357,1.39068063 3.29118499,1.39262827 C3.30025144,1.39840838 3.30994751,1.40425131 3.31964358,1.41003141 C3.32027319,1.41072251 3.32159538,1.41135079 3.32291757,1.41197906 C3.5080243,1.51922513 3.80060626,1.78423037 4.13077621,1.78423037 C4.21816673,1.78423037 4.30297584,1.77907853 4.38388133,1.77003141 C4.397481,1.76871204 4.41038811,1.7674555 4.42398778,1.76550785 C4.63239025,1.72674346 4.86031078,1.48774869 5.02923641,1.13572775 L5.02923641,1.13509948 C5.0939608,1.00203141 5.14961874,0.852816754 5.19432139,0.691350785 C5.25256075,0.47817801 5.2830341,0.270157068 5.28687475,0.080921466 C5.28756732,0.0726282723 5.28756732,0.0649005236 5.28756732,0.0564816754 Z"></path>
                                            </g>
                                            <path d="M4.95985287,3.35981152 C4.95985287,3.34881675 4.95204564,3.33914136 4.94109035,3.33782199 C4.84853698,3.32362304 4.43166908,3.2667644 3.98369821,3.2667644 C3.47553618,3.2667644 2.81979246,3.42565445 2.70520258,3.42565445 L2.60358276,3.42565445 C2.55050624,3.42565445 2.37962881,3.39141361 2.1608377,3.35459686 C1.90968439,3.31193717 1.59569553,3.2667644 1.32515009,3.2667644 C0.996994899,3.2667644 0.686280038,3.29780105 0.506902806,3.31909948 C0.440856222,3.32682723 0.392942543,3.3339267 0.367757954,3.33782199 C0.356739697,3.33914136 0.348995436,3.34881675 0.348995436,3.35981152 L0.343832595,3.63235602 C0.343832595,3.64203141 0.34962505,3.65045026 0.358061888,3.65434555 L0.389164854,3.66471204 C0.435126728,3.68217801 0.431223117,4.50376963 0.676583971,4.70921466 C0.822213854,4.83003141 0.952355215,4.89914136 1.49930152,4.89914136 C1.81587179,4.89914136 2.01520781,4.81388482 2.20421815,4.55937173 C2.34015197,4.3765445 2.46122688,3.94441885 2.46122688,3.94441885 C2.49617049,3.77258639 2.62108605,3.7532356 2.64891502,3.75065969 C2.64954464,3.75065969 2.64954464,3.75065969 2.65023721,3.75065969 L2.65218902,3.75065969 C2.65351121,3.75065969 2.65414082,3.75065969 2.65414082,3.75065969 C2.65867405,3.75065969 2.80890012,3.7532356 2.84768439,3.94441885 C2.84768439,3.94441885 2.9687593,4.3765445 3.10469311,4.55937173 C3.29370345,4.81388482 3.49303947,4.89914136 3.80960975,4.89914136 C4.35661901,4.89914136 4.48669741,4.83003141 4.63232729,4.70921466 C4.87762518,4.50376963 4.87378453,3.68217801 4.91974641,3.66471204 L4.95084938,3.65434555 C4.95928621,3.65045026 4.96507867,3.64209424 4.96507867,3.63235602 L4.95985287,3.35981152 Z M2.20415519,4.33193717 C2.1232497,4.52186387 1.91610646,4.76663874 1.6235245,4.7815288 C0.746408243,4.82544503 0.706301785,4.58129843 0.649258692,4.38753927 C0.592278561,4.19371728 0.577419654,4.02383246 0.600085783,3.83070157 C0.622751913,3.63694241 0.671924822,3.52322513 0.760007921,3.46642932 C0.797532957,3.4412356 0.838961606,3.4186178 0.944485032,3.4024712 C1.0389902,3.38890052 1.18462008,3.38048168 1.42739952,3.38048168 C1.56849617,3.38048168 1.69995973,3.39147644 1.81776064,3.41019895 C2.12973473,3.46058639 2.34078158,3.56651309 2.34078158,3.67049215 C2.34071862,3.74217801 2.32264868,4.05097382 2.20415519,4.33193717 Z M4.65946369,4.38753927 C4.60248355,4.58129843 4.5623771,4.82550785 3.68519788,4.7815288 C3.39261592,4.76670157 3.18484307,4.52186387 3.10456719,4.33193717 C2.9860737,4.05097382 2.96800376,3.74217801 2.96800376,3.67049215 C2.96800376,3.52712042 3.36736837,3.38048168 3.88138582,3.38048168 C4.3947107,3.38048168 4.47693838,3.4186178 4.54877742,3.46642932 C4.63679756,3.52328796 4.68603343,3.63694241 4.70869956,3.83070157 C4.73130273,4.02383246 4.71644382,4.19371728 4.65946369,4.38753927 Z" id="Shape" fill="#1A1A1A"></path>
                                            <g fill="#E9EDF2">
                                                <path d="M5.29260424,2.37926702 C5.29191167,2.37926702 5.29191167,2.37989529 5.29128205,2.37989529 L0.0155514834,2.37989529 C0.0155514834,0.520209424 1.27138099,0.595162304 2.64891502,0.748209424 C2.64954464,0.748209424 2.64954464,0.748209424 2.65023721,0.748209424 C2.74801638,0.759204188 2.8463622,0.770198953 2.94477098,0.78113089 C3.97532434,0.89547644 4.81422298,0.451036649 5.23436488,0.0576753927 C5.80586616,0.464041885 5.90754893,1.96391623 5.29260424,2.37926702 Z" id="Shape"></path>
                                                <path d="M0.934726003,2.2700733 L0.920496711,2.3146178 C0.913382065,2.3365445 0.906267418,2.35853403 0.898460196,2.37983246 C0.891975164,2.39729843 0.886182709,2.41470157 0.879005101,2.43153927 C0.757993153,2.75453403 0.574775272,3.05038743 0.350128742,3.31520419 C0.192221372,3.50186387 0.0336214257,3.80161257 0.0174403276,4.25956021 C0.0161181367,4.28601047 0.0154885219,4.31252356 0.0154885219,4.34029319 L0.0154885219,3.39851309 C0.0154885219,2.86498429 0.0154885219,2.37983246 0.0154885219,2.37983246 L0.231698215,2.35401047 L0.442745066,2.32881675 L0.691316955,2.29909948 L0.934726003,2.2700733 Z" id="Shape"></path>
                                                <path d="M5.29984481,2.38008377 L4.38092214,2.27063874 L4.39521439,2.31493194 C4.51414861,2.68404188 4.7146809,3.01909948 4.96533051,3.31539267 C5.13261914,3.51317277 5.29990777,3.83698429 5.29990777,4.34092147 C5.29984481,3.65057592 5.29984481,2.38008377 5.29984481,2.38008377 Z" id="Shape"></path>
                                                <ellipse id="Oval" cx="2.6487891" cy="2.27063874" rx="1.96376829" ry="1"></ellipse>
                                            </g>
                                        </g>
                                    </g>
                                </g>
                            </g>
                        </g>
                    </g>
                </g>
            </g>
        </g>
    </g>
</svg>