<?xml version="1.0" encoding="UTF-8"?>
<svg width="69px" height="65px" viewBox="0 0 69 65" version="1.1" xmlns="http://www.w3.org/2000/svg" xmlns:xlink="http://www.w3.org/1999/xlink">
    <!-- Generator: Sketch 48.2 (47327) - http://www.bohemiancoding.com/sketch -->
    <title>Icons/Color/Passport</title>
    <desc>Created with Sketch.</desc>
    <defs></defs>
    <g id="KYC---ID-Verification---Step-2-Choose-Method" stroke="none" stroke-width="1" fill="none" fill-rule="evenodd" transform="translate(-618.000000, -567.000000)">
        <g id="Group-3" transform="translate(316.000000, 563.000000)">
            <g id="Group-16" transform="translate(281.000000, 0.000000)">
                <g id="Icons/Color/Upload" transform="translate(21.000000, 0.000000)">
                    <g id="file" transform="translate(40.660714, 44.689655)">
                        <g id="Group" transform="translate(11.705357, 11.172414) rotate(-180.000000) translate(-11.705357, -11.172414) " fill-rule="nonzero">
                            <rect id="Rectangle-path" fill="#473B7B" x="0.508928571" y="0" width="22.3928571" height="22.3448276" rx="2"></rect>
                            <rect id="Rectangle-path" fill="#FFFFFF" x="10.6875" y="1.61085893" width="2.03571429" height="16.2507837"></rect>
                            <polygon id="Shape" fill="#FFFFFF" points="11.7053571 19.2978056 4.58035714 12.4856803 6.08271429 11.0495172 11.7053571 16.4254796 17.328 11.0495172 18.8303571 12.4856803"></polygon>
                        </g>
                    </g>
                    <g id="Icons/Color/Person-With-ID" transform="translate(0.000000, 3.724138)">
                        <g id="ID" transform="translate(36.452830, 10.612245)">
                            <g id="Card">
                                <path d="M31.6150005,22.9796457 L1.3849995,22.9796457 C0.717156057,22.9796457 0.17581316,22.4136963 0.17581316,21.7154963 L0.17581316,1.48889179 C0.17581316,0.790691829 0.717156057,0.224742437 1.3849995,0.224742437 L31.6150005,0.224742437 C32.2828439,0.224742437 32.8241868,0.790691829 32.8241868,1.48889179 L32.8241868,21.7154963 C32.8241868,22.4136247 32.2827755,22.9796457 31.6150005,22.9796457 Z" id="Shape" fill="#EEEEEE" fill-rule="nonzero"></path>
                                <path d="M13.3207063,21.1483058 L2.43796075,21.1483058 C2.10407327,21.1483058 1.83333333,20.8652595 1.83333333,20.5161953 L1.83333333,4.08211048 C1.83333333,3.7330463 2.10407327,3.45 2.43796075,3.45 L13.3207748,3.45 C13.6546623,3.45 13.9254022,3.7330463 13.9254022,4.08211048 L13.9254022,20.5162669 C13.9253337,20.8653311 13.6545938,21.1483058 13.3207063,21.1483058 Z" id="Shape" fill="#00BCD4" fill-rule="nonzero"></path>
                                <g id="Group" transform="translate(16.500000, 4.577698)" fill="#00BCD4" fill-rule="nonzero">
                                    <path d="M10.2781866,1.33575227 L0.604627416,1.33575227 C0.270739938,1.33575227 -2.84217094e-14,1.05270597 -2.84217094e-14,0.703641786 C-2.84217094e-14,0.354577605 0.270739938,0.071531306 0.604627416,0.071531306 L10.2781866,0.071531306 C10.6120741,0.071531306 10.8828141,0.354577605 10.8828141,0.703641786 C10.8828141,1.05277757 10.6120741,1.33575227 10.2781866,1.33575227 Z" id="Shape"></path>
                                    <path d="M13.3011867,3.86412258 L0.604627416,3.86412258 C0.270739938,3.86412258 -2.84217094e-14,3.58107629 -2.84217094e-14,3.2320121 C-2.84217094e-14,2.88294792 0.270739938,2.59990162 0.604627416,2.59990162 L13.3011867,2.59990162 C13.6350742,2.59990162 13.9058142,2.88294792 13.9058142,3.2320121 C13.9057457,3.58107629 13.6350742,3.86412258 13.3011867,3.86412258 Z" id="Shape"></path>
                                </g>
                                <path d="M18.3138138,14.1305286 L17.1046274,14.1305286 C16.7707399,14.1305286 16.5,13.8474823 16.5,13.4984181 C16.5,13.1493539 16.7707399,12.8663076 17.1046274,12.8663076 L18.3138138,12.8663076 C18.6477012,12.8663076 18.9184412,13.1493539 18.9184412,13.4984181 C18.9183727,13.8474823 18.6477012,14.1305286 18.3138138,14.1305286 Z" id="Shape" fill="#787489" fill-rule="nonzero"></path>
                                <path d="M27.987373,14.1305286 L20.7321864,14.1305286 C20.398299,14.1305286 20.127559,13.8474823 20.127559,13.4984181 C20.127559,13.1493539 20.398299,12.8663076 20.7321864,12.8663076 L27.987373,12.8663076 C28.3212605,12.8663076 28.5920004,13.1493539 28.5920004,13.4984181 C28.5920004,13.8474823 28.3212605,14.1305286 27.987373,14.1305286 Z" id="Shape" fill="#B3B3B3" fill-rule="nonzero"></path>
                                <path d="M18.3138138,16.6588273 L17.1046274,16.6588273 C16.7707399,16.6588273 16.5,16.375781 16.5,16.0267168 C16.5,15.6776526 16.7707399,15.3946063 17.1046274,15.3946063 L18.3138138,15.3946063 C18.6477012,15.3946063 18.9184412,15.6776526 18.9184412,16.0267168 C18.9183727,16.3758526 18.6477012,16.6588273 18.3138138,16.6588273 Z" id="Shape" fill="#787489" fill-rule="nonzero"></path>
                                <path d="M29.8011867,16.6588273 L20.7321864,16.6588273 C20.398299,16.6588273 20.127559,16.375781 20.127559,16.0267168 C20.127559,15.6776526 20.398299,15.3946063 20.7321864,15.3946063 L29.8011867,15.3946063 C30.1350742,15.3946063 30.4058142,15.6776526 30.4058142,16.0267168 C30.4057457,16.3758526 30.1350742,16.6588273 29.8011867,16.6588273 Z" id="Shape" fill="#B3B3B3" fill-rule="nonzero"></path>
                                <path d="M18.3138138,19.187126 L17.1046274,19.187126 C16.7707399,19.187126 16.5,18.9040797 16.5,18.5550155 C16.5,18.2059513 16.7707399,17.922905 17.1046274,17.922905 L18.3138138,17.922905 C18.6477012,17.922905 18.9184412,18.2059513 18.9184412,18.5550155 C18.9183727,18.9041513 18.6477012,19.187126 18.3138138,19.187126 Z" id="Shape" fill="#787489" fill-rule="nonzero"></path>
                                <path d="M25.5690003,19.187126 L20.7321864,19.187126 C20.398299,19.187126 20.127559,18.9040797 20.127559,18.5550155 C20.127559,18.2059513 20.398299,17.922905 20.7321864,17.922905 L25.5690003,17.922905 C25.9028878,17.922905 26.1736277,18.2059513 26.1736277,18.5550155 C26.1735592,18.9041513 25.9028878,19.187126 25.5690003,19.187126 Z" id="Shape" fill="#B3B3B3" fill-rule="nonzero"></path>
                            </g>
                            <g id="Icons/Color/Man-Purple-Shirt" transform="translate(3.666667, 4.216667)">
                                <g id="man-(4)" transform="translate(0.006645, 0.000000)">
                                    <g id="Group" fill-rule="nonzero">
                                        <path d="M8.87581353,15.9784712 L8.87581353,15.9793089 L0.046141764,15.9793089 L0.046141764,15.9784712 C0.046141764,15.462534 0.128549335,14.9656126 0.281707612,14.5031204 C0.309149819,14.4196021 0.33910149,14.3369215 0.371562626,14.2550785 L0.371562626,14.2542408 C0.403214257,14.1723979 0.438103907,14.0923141 0.474774466,14.0131518 C0.62040435,13.6953298 0.801895288,13.398199 1.01244744,13.1260314 C1.06571285,13.0579267 1.11986871,12.9916649 1.17556263,12.9279162 C1.20300483,12.8951623 1.232147,12.8633298 1.26128917,12.8314136 C1.29043133,12.8004188 1.3195735,12.7694241 1.34952517,12.7384293 C1.49847402,12.5842094 1.65827024,12.4429738 1.82640435,12.3129634 C1.91051188,12.248377 1.99534797,12.1880628 2.08358397,12.1295079 C2.1152356,12.1088168 2.14680628,12.0881257 2.17926742,12.068356 C2.19343375,12.0597277 2.20840959,12.0510995 2.22257592,12.0424712 C2.26588441,12.0157487 2.30911196,11.9899476 2.35322996,11.9649843 C2.35492992,11.9632251 2.35654893,11.9632251 2.35654893,11.9632251 C2.39232904,11.9433717 2.42729964,11.9218429 2.46227024,11.8994764 C2.56629158,11.8348901 2.66618445,11.7633508 2.7610584,11.6841885 C3.06648449,11.432712 3.31953564,11.1157277 3.50094563,10.7548482 C3.55842046,10.6403351 3.6091764,10.521466 3.65159444,10.3991623 C3.75731575,10.0942408 3.81479058,9.76611518 3.81479058,9.42332984 L4.45810391,9.4267644 L4.45980387,9.4267644 L5.11979299,9.43028272 C5.11979299,9.76871204 5.17556786,10.0934869 5.27869875,10.3948901 C5.32030729,10.5181152 5.37025373,10.6369005 5.4276476,10.7514974 C5.60824809,11.1140524 5.86048973,11.432712 6.16591583,11.6851099 C6.22581917,11.7358743 6.28661297,11.7824503 6.35072573,11.8263455 C6.35736367,11.8315393 6.36319211,11.8358115 6.36983004,11.8401675 C6.39978172,11.8608586 6.42973339,11.8815497 6.46138502,11.9004817 C6.49554611,11.9220105 6.53051671,11.9435393 6.56540636,11.9633089 C6.5712348,11.9650681 6.57625373,11.9675812 6.5803822,11.9710157 C6.61948127,11.993466 6.6586613,12.0166702 6.69686992,12.0407958 C6.73022151,12.0605654 6.76349215,12.0812565 6.79676279,12.1027853 C6.83084293,12.1243141 6.86500403,12.1466806 6.89827467,12.171644 C6.96732541,12.2172984 7.03475715,12.2673089 7.10048892,12.318911 C7.10048892,12.3197487 7.10129843,12.3197487 7.10129843,12.3197487 L7.10218888,12.3197487 C7.18621547,12.3843351 7.26781353,12.4532775 7.34771164,12.5238115 C7.42760975,12.5944293 7.50418888,12.6685654 7.57825856,12.7452147 C8.3805586,13.5721047 8.87581353,14.7141361 8.87581353,15.9784712 Z" id="Shape" fill="#F0BB8E"></path>
                                        <path d="M8.87581353,15.9784712 L0.046141764,15.9784712 C0.046141764,15.462534 0.128549335,14.9656126 0.281707612,14.5031204 C0.309149819,14.4196021 0.33910149,14.3369215 0.371562626,14.2550785 L0.371562626,14.2542408 C0.403214257,14.1723979 0.438103907,14.0923141 0.474774466,14.0131518 C0.62040435,13.6953298 0.801895288,13.398199 1.01244744,13.1260314 C1.06571285,13.0579267 1.11986871,12.9916649 1.17556263,12.9279162 C1.20300483,12.8951623 1.232147,12.8633298 1.26128917,12.8314136 C1.29043133,12.8004188 1.3195735,12.7694241 1.34952517,12.7384293 C1.49847402,12.5842094 1.65827024,12.4429738 1.82640435,12.3129634 C1.91051188,12.248377 1.99534797,12.1880628 2.08358397,12.1295079 C2.1152356,12.1088168 2.14680628,12.0881257 2.17926742,12.068356 C2.19343375,12.0588901 2.20760008,12.0502618 2.22168546,12.0416335 C2.26499396,12.014911 2.30911196,11.9891099 2.35322996,11.9641466 C2.35492992,11.9623874 2.35654893,11.9633089 2.35654893,11.9633089 L2.35654893,11.9624712 C2.39232904,11.9417801 2.42729964,11.921089 2.46227024,11.899644 C2.56629158,11.8341361 2.66618445,11.7618429 2.75935844,11.6825969 C2.76016794,11.6834346 2.76016794,11.6834346 2.7610584,11.6842723 C3.19220056,12.140733 3.79228635,12.4241257 4.45810391,12.425801 L4.46474184,12.425801 C5.1305594,12.425801 5.73315465,12.1415707 6.16591583,11.6851099 L6.16672533,11.6842723 C6.22581917,11.7351204 6.28742247,11.7824503 6.35064478,11.8263455 C6.35728272,11.8315393 6.36311116,11.8358115 6.36974909,11.8401675 C6.39970077,11.8608586 6.43046194,11.8806283 6.46130407,11.9004817 C6.49546516,11.9220105 6.53043576,11.9427016 6.56532541,11.9624712 C6.57115385,11.9642304 6.57528232,11.9676649 6.58030125,11.970178 C6.61940032,11.9926283 6.65938985,12.0158325 6.69767942,12.0399581 C6.73095006,12.0606492 6.76430165,12.0813403 6.79676279,12.1028691 C6.83084293,12.1243979 6.86500403,12.1467644 6.89827467,12.1717277 C6.96732541,12.2173822 7.03475715,12.2673927 7.10048892,12.3189948 L7.10218888,12.3189948 C7.18621547,12.3844188 7.26862304,12.4525236 7.34771164,12.5239791 C7.42760975,12.5945969 7.50418888,12.668733 7.57825856,12.7453822 C8.3805586,13.5721047 8.87581353,14.7141361 8.87581353,15.9784712 Z" id="Shape" fill="#473B7B"></path>
                                        <path d="M6.69767942,12.0399581 L6.69686992,12.0407958 L6.60612445,12.136377 C6.03518083,12.7384293 5.27278937,13.0699895 4.45964197,13.0699895 C4.45883246,13.0699895 4.45883246,13.0699895 4.45794201,13.0699895 C3.63734716,13.0673927 2.87746516,12.7358325 2.30903101,12.1347016 L2.22249497,12.042555 L2.22168546,12.0417173 C2.26499396,12.0149948 2.30911196,11.9891937 2.35322996,11.9642304 C2.35492992,11.9624712 2.35654893,11.9633927 2.35654893,11.9633927 L2.35654893,11.962555 C2.39232904,11.9418639 2.42729964,11.9211728 2.46227024,11.8997277 C2.56629158,11.8342199 2.66618445,11.7619267 2.75935844,11.6826806 C2.76016794,11.6835183 2.76016794,11.6835183 2.7610584,11.684356 C3.19220056,12.1408168 3.79228635,12.4242094 4.45810391,12.4258848 L4.46474184,12.4258848 C5.1305594,12.4258848 5.73315465,12.1416545 6.16591583,11.6851937 L6.16672533,11.684356 C6.22581917,11.7352042 6.28742247,11.782534 6.35064478,11.8264293 C6.35728272,11.831623 6.36311116,11.8358953 6.36974909,11.8402513 C6.39970077,11.8609424 6.43046194,11.880712 6.46130407,11.9005654 C6.49546516,11.9220942 6.53043576,11.9427853 6.56532541,11.962555 C6.57115385,11.9643141 6.57528232,11.9677487 6.58030125,11.9702618 C6.61948127,11.9925445 6.6594708,12.0158325 6.69767942,12.0399581 Z" id="Shape" fill="#FFFFFF"></path>
                                        <g transform="translate(1.052356, 0.000000)">
                                            <path d="M6.79724849,4.53143455 L6.79724849,6.63371728 C6.79724849,6.67158115 6.79643899,6.7095288 6.79562948,6.74739267 C6.79481998,6.77662827 6.79392952,6.80594764 6.79231051,6.83518325 C6.79150101,6.86450262 6.78980105,6.89290052 6.78729158,6.92213613 C6.78648208,6.94190576 6.78478212,6.96175916 6.78316311,6.98161257 C6.7823536,6.99367539 6.7815441,7.00481675 6.77984414,7.01687958 C6.77822513,7.03840838 6.77652517,7.06077487 6.7732062,7.08230366 C6.77150624,7.10299476 6.76988723,7.12368586 6.76656826,7.14429319 C6.7648683,7.1641466 6.76243979,7.18475393 6.75903987,7.20544503 C6.75159243,7.26743455 6.74155457,7.32942408 6.73070721,7.39057592 C6.72325977,7.43195812 6.71573137,7.47325654 6.70739348,7.51380105 C6.70658397,7.51556021 6.70658397,7.5172356 6.70577447,7.51899476 C6.70496496,7.52502618 6.70407451,7.53105759 6.7024555,7.53708901 C6.70164599,7.53884817 6.70164599,7.54052356 6.70075554,7.54228272 C6.70075554,7.54404188 6.70075554,7.54571728 6.69994603,7.54747644 C6.69824607,7.55610471 6.69662706,7.56473298 6.6941176,7.57327749 C6.69249859,7.58358115 6.68998913,7.59396859 6.68747966,7.60427225 C6.68586065,7.61549738 6.68327024,7.62580105 6.67995127,7.63618848 C6.6774418,7.65168586 6.67331333,7.66718325 6.66991341,7.68268063 C6.66740395,7.6913089 6.66578494,7.70077487 6.66246597,7.70940314 C6.66076601,7.71719372 6.65833749,7.72490052 6.65663754,7.7318534 C6.63915224,7.8024712 6.61915747,7.87132984 6.5983532,7.94027225 C6.58839629,7.97302618 6.57835844,8.00485864 6.56759203,8.03761257 C6.56670157,8.04104712 6.56508256,8.04448168 6.56419211,8.04791623 C6.5542352,8.0772356 6.54419734,8.1064712 6.53424043,8.13579058 C6.53092147,8.14441885 6.5276025,8.15296335 6.52428353,8.16251309 C6.51424567,8.1900733 6.50428876,8.21763351 6.49352235,8.24519372 C6.48105598,8.27878534 6.46769915,8.31153927 6.45442328,8.34429319 C6.44276641,8.37361257 6.43030004,8.40284817 6.41775272,8.43208377 C6.41613371,8.43727749 6.41362424,8.44154974 6.41192429,8.44674346 C6.39775795,8.47773822 6.38448208,8.50873298 6.37031575,8.53889005 C6.35614942,8.57072251 6.34117358,8.60263874 6.32538824,8.63455497 C6.29543657,8.6973822 6.26297543,8.76029319 6.2305143,8.82144503 L6.18558679,8.90412565 C6.05736126,9.13239791 5.91505034,9.34684817 5.76027306,9.54487958 C5.73946879,9.57327749 5.71785501,9.6008377 5.69535079,9.62756021 C5.66450866,9.66634555 5.63293798,9.70420942 5.60128635,9.7412356 C5.57295369,9.77398953 5.54470197,9.80665969 5.51555981,9.83857592 C5.4356617,9.92728796 5.35406363,10.0117277 5.27084656,10.0909738 C5.25417076,10.1082304 5.23676641,10.1237277 5.21920016,10.1400628 C5.1908675,10.1667853 5.16261579,10.1925864 5.13347362,10.2175497 C5.11096939,10.2382408 5.08773661,10.2580105 5.06434193,10.2778639 C5.00443858,10.3286283 4.94453524,10.3777173 4.88374144,10.4233717 C4.85872775,10.4432251 4.8329855,10.4621571 4.8071623,10.4802513 C4.76555377,10.5112461 4.72305477,10.5405654 4.68063673,10.5689634 C4.657323,10.5852984 4.63319976,10.6007958 4.60907652,10.6154555 C4.53168788,10.6653822 4.45259928,10.7110366 4.37521063,10.7514974 C4.36776319,10.7557696 4.36112525,10.7592042 4.35359686,10.7626387 C4.33279259,10.7738639 4.31198832,10.7841675 4.29118405,10.794555 C4.27037978,10.8048586 4.24876601,10.8152461 4.22626178,10.8255497 C4.19881957,10.8384503 4.17137737,10.8505131 4.14385421,10.8617382 C4.13300685,10.8668482 4.12215948,10.8712042 4.11139307,10.8746387 C4.07893194,10.888377 4.04558035,10.9013613 4.01320016,10.9125026 C3.97240113,10.928 3.93079259,10.9409005 3.89007451,10.9529634 C3.86174184,10.9615916 3.83268063,10.9692984 3.80434797,10.9761675 C3.80264801,10.977089 3.801029,10.9779267 3.79851953,10.9779267 C3.77018687,10.9847958 3.74193516,10.9916649 3.7136025,10.9968586 C3.7060741,10.9986178 3.69862666,11.0002932 3.69109827,11.0011309 C3.66778453,11.0054031 3.6444708,11.0097592 3.62115707,11.012356 C3.58788643,11.017466 3.55461579,11.021822 3.52134515,11.0235812 C3.50968828,11.0253403 3.49884092,11.026178 3.487265,11.026178 C3.4606323,11.0278534 3.4339996,11.0287749 3.4081764,11.0287749 L3.40566694,11.0287749 C3.37984374,11.0287749 3.35410149,11.0279372 3.32827829,11.026178 C3.31824043,11.026178 3.30828353,11.0253403 3.29832662,11.0235812 C3.27501289,11.0226597 3.25088965,11.0201466 3.22587596,11.016712 C3.22085703,11.016712 3.21502859,11.0158743 3.21009062,11.0149529 C3.17932944,11.0106806 3.14848731,11.0054869 3.11683568,10.9994555 C3.09020298,10.9951832 3.06357028,10.9891518 3.03612807,10.9822827 C2.89381716,10.9486911 2.74737777,10.8978429 2.59915747,10.829822 C2.54921104,10.806534 2.49845509,10.7824921 2.44850866,10.7548482 C2.37112002,10.7152251 2.29373137,10.6704084 2.21715224,10.6213194 C2.15303947,10.5808586 2.0889267,10.537801 2.02570439,10.4921466 C1.99405276,10.4688586 1.96248208,10.4456545 1.93083045,10.4215288 C1.83182803,10.346555 1.73355417,10.2647958 1.63706122,10.1769215 C1.61042851,10.1519581 1.58379581,10.1269948 1.55716311,10.1011099 C1.53053041,10.0761466 1.5038977,10.0503455 1.47807451,10.0252984 C1.41315224,9.96071204 1.34992992,9.8935288 1.28832662,9.82374869 C1.26420338,9.79702618 1.24008014,9.76954974 1.21587596,9.74106806 C1.14933468,9.66358115 1.08433145,9.58349738 1.0228091,9.49989529 C0.998685864,9.46973822 0.976181635,9.43874346 0.953758357,9.40774869 C0.869731776,9.29239791 0.789833669,9.17176963 0.71487354,9.04686911 C0.694878776,9.01327749 0.674964962,8.9787644 0.655779702,8.94525654 C0.632465969,8.90479581 0.61004269,8.86341361 0.587538462,8.82211518 C0.504321385,8.66705759 0.427742247,8.50605236 0.361120016,8.33976963 C0.351163109,8.31564398 0.341125252,8.29151832 0.332787354,8.26747644 C0.319511478,8.23648168 0.307854611,8.20464921 0.297007249,8.17357068 C0.280331454,8.12791623 0.264546114,8.08226178 0.249570278,8.03660733 C0.234594442,7.99095288 0.220428111,7.94446073 0.20626178,7.89796859 C0.192904954,7.85315183 0.180438582,7.80841885 0.168781716,7.7627644 C0.15550584,7.71451309 0.143039468,7.66542408 0.132192106,7.61549738 C0.131382602,7.61030366 0.129682642,7.60510995 0.128873137,7.6 C0.113087797,7.53114136 0.098921466,7.46136126 0.0864550946,7.39065969 C0.0697792992,7.29767539 0.0565034233,7.20293194 0.0464655658,7.10735079 C0.0423370922,7.07719372 0.0398276279,7.04703665 0.0373181635,7.01687958 C0.0339991945,6.98504712 0.0314897302,6.95396859 0.0298707209,6.92213613 C0.0257422473,6.86441885 0.0232327829,6.80586387 0.0215328232,6.7473089 C0.0207233186,6.70936126 0.0198328635,6.67149738 0.0198328635,6.63363351 L0.0198328635,4.53143455 C0.0198328635,4.05001047 0.113897302,3.59095288 0.283650423,3.17319372 C0.287778896,3.16113089 0.292797825,3.14998953 0.297816754,3.1387644 C0.36362948,2.98119372 0.440127668,2.82957068 0.527554168,2.68490052 C0.540910995,2.66169634 0.554996375,2.63924607 0.569162706,2.61687958 C1.17337696,1.65914136 2.21796174,1.02609424 3.40558598,1.02525654 L3.40890495,1.02525654 C3.66697503,1.02525654 3.91824527,1.05541361 4.15963955,1.11137173 C4.38022956,1.16305759 4.59240072,1.23710995 4.79380548,1.33101571 C5.0684704,1.45842932 5.32395006,1.62211518 5.55368747,1.81763351 C5.74675433,1.9812356 5.92241683,2.1655288 6.07549416,2.3688377 C6.1353975,2.44808377 6.19198188,2.52984293 6.24532823,2.61428272 C6.26030407,2.63748691 6.2752799,2.66077487 6.28863673,2.68490052 C6.37517277,2.82873298 6.45256142,2.97951832 6.51829319,3.13708901 L6.53326903,3.17327749 C6.69970318,3.58240838 6.79295812,4.03024084 6.79627708,4.50052356 C6.79724849,4.51074346 6.79724849,4.52104712 6.79724849,4.53143455 Z" id="Shape" fill="#F0BB8E"></path>
                                            <path d="M6.79724849,6.63371728 C6.79724849,6.67158115 6.79643899,6.7095288 6.79562948,6.74739267 C6.79481998,6.77662827 6.79392952,6.80594764 6.79231051,6.83518325 C6.79150101,6.86450262 6.78980105,6.89290052 6.78729158,6.92213613 C6.78648208,6.94190576 6.78478212,6.96175916 6.78316311,6.98161257 C6.7823536,6.99367539 6.7815441,7.00481675 6.77984414,7.01687958 C6.77822513,7.03840838 6.77652517,7.06077487 6.7732062,7.08230366 C6.77150624,7.10299476 6.76907773,7.12368586 6.76656826,7.14429319 C6.7648683,7.1641466 6.76243979,7.18475393 6.75903987,7.20544503 C6.75159243,7.26743455 6.74155457,7.32942408 6.73070721,7.39057592 C6.72406927,7.4267644 6.71743133,7.46211518 6.70990294,7.4973822 C6.70909344,7.50517277 6.70739348,7.51204188 6.70577447,7.51891099 C6.70496496,7.52494241 6.70407451,7.53097382 6.7024555,7.53700524 C6.70164599,7.5387644 6.70164599,7.54043979 6.70075554,7.54219895 C6.70075554,7.54395812 6.70075554,7.54563351 6.69994603,7.54739267 C6.69994603,7.54823037 6.69994603,7.54915183 6.69994603,7.54915183 C6.69824607,7.5586178 6.69581756,7.56808377 6.6941176,7.57671204 C6.69249859,7.58617801 6.68998913,7.59564398 6.68747966,7.60427225 C6.68586065,7.61549738 6.68327024,7.62580105 6.67995127,7.63618848 C6.6766323,7.65336126 6.67242288,7.6697801 6.6674849,7.68611518 C6.66667539,7.69382199 6.66497543,7.70161257 6.66254692,7.70931937 C6.66084696,7.71710995 6.65841845,7.72481675 6.65671849,7.73176963 C6.63923319,7.80238743 6.61923842,7.87124607 6.59843415,7.94018848 C6.58847725,7.97294241 6.57843939,8.00477487 6.56767298,8.0375288 C6.56678252,8.04096335 6.56516351,8.04439791 6.56427306,8.04783246 C6.55431615,8.07715183 6.54427829,8.10638743 6.53432139,8.13570681 C6.53100242,8.14433508 6.52768345,8.15287958 6.52436448,8.16242932 C6.51432662,8.18998953 6.50436971,8.21754974 6.4936033,8.24510995 C6.48113693,8.27870157 6.4677801,8.3114555 6.45450423,8.34420942 C6.44284736,8.3735288 6.43038099,8.4027644 6.41783367,8.432 C6.41621466,8.43719372 6.4137052,8.44146597 6.41200524,8.44665969 C6.3978389,8.47765445 6.38456303,8.50864921 6.3703967,8.53880628 C6.35623037,8.57063874 6.34125453,8.60255497 6.32546919,8.6344712 C6.29551752,8.69729843 6.26305638,8.76020942 6.23059525,8.82136126 L6.18566774,8.90404188 C6.05744221,9.13231414 5.91513129,9.3467644 5.76035401,9.54479581 C5.73954974,9.57319372 5.71793596,9.60075393 5.69543174,9.62747644 C5.66458961,9.66626178 5.63301893,9.70412565 5.6013673,9.74115183 C5.57303464,9.77390576 5.54478292,9.80657592 5.51564076,9.83849215 C5.43574265,9.92720419 5.35414458,10.011644 5.27092751,10.0908901 C5.25425171,10.1081466 5.23684736,10.123644 5.21928111,10.1399791 C5.19094845,10.1667016 5.16269674,10.1925026 5.13355457,10.217466 C5.11105034,10.2381571 5.08781756,10.2579267 5.06442288,10.2777801 C5.00451953,10.3285445 4.94461619,10.3776335 4.88382239,10.423288 C4.8588087,10.4431414 4.83306645,10.4620733 4.80724325,10.4801675 C4.76563472,10.5111623 4.72313572,10.5404817 4.68071768,10.5688796 C4.65740395,10.5852147 4.63328071,10.600712 4.60915747,10.6153717 C4.53176883,10.6652984 4.45268023,10.7109529 4.37529158,10.7514136 C4.36784414,10.7556859 4.3612062,10.7591204 4.35367781,10.762555 C4.33287354,10.7737801 4.31206927,10.7840838 4.291265,10.7944712 C4.27046073,10.8047749 4.24884696,10.8151623 4.22634273,10.825466 C4.19890052,10.8383665 4.17145832,10.8504293 4.14393516,10.8616545 C4.1330878,10.8667644 4.12224043,10.8711204 4.11147402,10.874555 C4.07901289,10.8882932 4.0456613,10.9012775 4.01328111,10.9124188 C3.97248208,10.9279162 3.93087354,10.9408168 3.89015546,10.9528796 C3.8618228,10.9615079 3.83276158,10.9692147 3.80442892,10.9760838 C3.80272896,10.9770052 3.80110995,10.9778429 3.79860048,10.9778429 C3.77026782,10.984712 3.74201611,10.9915812 3.71368345,10.9967749 C3.70615505,10.998534 3.69870761,11.0002094 3.69117922,11.0010471 C3.66786549,11.0053194 3.64455175,11.0096754 3.62123802,11.0122723 C3.58796738,11.0173822 3.55469674,11.0217382 3.5214261,11.0234974 C3.50976923,11.0252565 3.49892187,11.0260942 3.48734595,11.0260942 C3.46071325,11.0277696 3.43408055,11.0286911 3.40825735,11.0286911 L3.40574789,11.0286911 C3.37992469,11.0286911 3.35418244,11.0278534 3.32835924,11.0260942 C3.31832139,11.0260942 3.30836448,11.0252565 3.29840757,11.0234974 C3.27509384,11.0225759 3.2509706,11.0200628 3.22595691,11.0166283 C3.22093798,11.0166283 3.21510954,11.0157906 3.21017157,11.0148691 C3.17941039,11.0105969 3.14856826,11.0054031 3.11691663,10.9993717 C3.09028393,10.9950995 3.06365123,10.9890681 3.03620902,10.982199 C2.89389811,10.9486073 2.74745872,10.8977592 2.59923842,10.8297382 C2.54929199,10.8064503 2.49853605,10.7824084 2.44858961,10.7547644 C2.37120097,10.7151414 2.29381232,10.6703246 2.21723319,10.6212356 C2.15312042,10.5816126 2.08989811,10.538555 2.02578534,10.4920628 C1.99413371,10.4687749 1.96256303,10.4455707 1.9309114,10.421445 C1.83190898,10.3464712 1.73363512,10.264712 1.63714217,10.1768377 C1.61050946,10.1518743 1.58387676,10.126911 1.55724406,10.1010262 C1.53061136,10.0760628 1.50397865,10.0502618 1.47815546,10.0252147 C1.41323319,9.96062827 1.35001087,9.89344503 1.28840757,9.82366492 C1.26428433,9.79694241 1.2401611,9.76946597 1.21595691,9.74098429 C1.14941563,9.66349738 1.0844124,9.58341361 1.02289005,9.49981152 C0.998766814,9.46965445 0.976262586,9.43865969 0.953839307,9.40766492 C0.869812727,9.29231414 0.789914619,9.17168586 0.714954491,9.04678534 C0.694959726,9.01319372 0.675045912,8.97868063 0.655860652,8.94517277 C0.632546919,8.90471204 0.610123641,8.86332984 0.587619412,8.82203141 C0.504402336,8.66697382 0.427823198,8.50596859 0.361200967,8.33968586 C0.35124406,8.31556021 0.341206202,8.29143455 0.332868304,8.26739267 C0.319592429,8.23639791 0.307935562,8.20456545 0.2970882,8.17348691 C0.280412404,8.12783246 0.264627064,8.08217801 0.249651228,8.03652356 C0.234675393,7.99086911 0.220509062,7.94437696 0.206342731,7.89788482 C0.192985904,7.85306806 0.180519533,7.80833508 0.168862666,7.76268063 C0.15558679,7.71442932 0.143120419,7.66534031 0.132273057,7.61541361 C0.131463552,7.6102199 0.129763592,7.60502618 0.128954088,7.59991623 C0.113168747,7.53105759 0.0990024164,7.46127749 0.0865360451,7.39057592 C0.0698602497,7.29759162 0.0565843737,7.20284817 0.0465465163,7.10726702 C0.0424180427,7.07710995 0.0399085783,7.04695288 0.037399114,7.01679581 C0.034080145,6.98496335 0.0315706806,6.95388482 0.0299516714,6.92205236 C0.0258231977,6.86433508 0.0233137334,6.8057801 0.0216137737,6.74722513 C0.020804269,6.70927749 0.0199138139,6.67141361 0.0199138139,6.63354974 L0.560905759,7.73428272 L1.49054088,8.15371728 L2.59001007,8.25625131 L2.59081957,8.25625131 L3.40558598,8.33290052 L3.41060491,8.33290052 L4.17299638,8.40443979 C4.17380588,8.40443979 4.17380588,8.40443979 4.17380588,8.40443979 L5.87417036,8.56293194 L6.79724849,6.63371728 Z" id="Shape" fill="#E9EDF2"></path>
                                            <g transform="translate(0.000000, 5.528796)" fill="#E9EDF2" id="Shape">
                                                <path d="M3.41230487,1.65788482 L3.41149537,2.5062199 L3.41149537,2.50714136 L3.41068586,2.80427225 L3.41068586,3.03765445 L3.40987636,3.81277487 L3.40987636,3.81361257 L3.40906685,3.81277487 L3.40825735,3.81277487 L3.40744785,3.81193717 L3.40574789,3.81109948 L0.132354007,2.08686911 C0.131544503,2.08167539 0.129844543,2.07648168 0.129035038,2.07137173 C0.113249698,2.00251309 0.0990833669,1.93273298 0.0866169956,1.86203141 C0.0699412002,1.76904712 0.0566653242,1.67430366 0.0466274668,1.57872251 C0.0424989932,1.54856545 0.0399895288,1.51840838 0.0374800644,1.48825131 C0.0341610954,1.45641885 0.0316516311,1.42534031 0.0300326218,1.39350785 C0.0259041482,1.33579058 0.0233946839,1.2772356 0.0216947241,1.21868063 C0.0208852195,1.18073298 0.0199947644,1.14286911 0.0199947644,1.10500524 L0.0199947644,0.0757277487 C0.0199947644,0.0903874346 0.020804269,0.10504712 0.020804269,0.119623037 C0.020804269,0.129926702 0.0216137737,0.140314136 0.0225042288,0.150617801 C0.030761176,0.39086911 0.0691316955,0.653570681 0.13980145,0.922303665 C0.197195328,1.13759162 0.268836488,1.3365445 0.352053564,1.51405236 L0.352053564,1.51489005 C0.570134112,1.98425131 0.862203383,2.30291099 1.13112082,2.35459686 C1.14771567,2.35719372 1.16520097,2.35886911 1.18187676,2.36062827 C1.28589811,2.3726911 1.39493838,2.37956021 1.50729762,2.37956021 C1.9317209,2.37956021 2.30878816,2.0264712 2.54597302,1.88347644 C2.54767298,1.88263874 2.54929199,1.88171728 2.55099195,1.88087958 C2.56345832,1.87308901 2.57600564,1.8653822 2.58677205,1.85759162 C2.59009102,1.85499476 2.59340999,1.85331937 2.59672896,1.85156021 C2.7965147,1.7335288 3.0844555,1.65863874 3.40574789,1.65780105 L3.41230487,1.65780105 L3.41230487,1.65788482 Z"></path>
                                                <path d="M6.79830085,0.0753089005 L6.79749134,1.10450262 C6.79749134,1.36284817 6.77417761,1.61608377 6.73095006,1.8615288 C6.71346476,1.95970681 6.69347,2.05704712 6.67023721,2.15346597 L5.90201732,3.3015288 L3.41011921,3.81227225 L3.40930971,3.81227225 L3.4085002,3.81310995 L3.4085002,3.81227225 L3.40599074,1.65704712 L3.41262867,1.65704712 C3.73384011,1.65788482 4.02267137,1.73285864 4.22237616,1.85080628 C4.22569513,1.85256545 4.22820459,1.85424084 4.23152356,1.8568377 C4.24318043,1.8645445 4.2556468,1.87233508 4.26811317,1.88004188 C4.26892267,1.88096335 4.27062263,1.88180105 4.27232259,1.88263874 C4.51031696,2.02563351 4.88649376,2.37897382 5.31099799,2.37897382 C5.42335723,2.37897382 5.5323975,2.37210471 5.63641885,2.36004188 C5.65390415,2.35828272 5.67049899,2.35660733 5.68798429,2.35401047 C5.95593033,2.30232461 6.248971,1.98366492 6.4661611,1.51430366 L6.4661611,1.51346597 C6.54937817,1.33604188 6.62093838,1.13708901 6.67841321,0.921801047 C6.75329239,0.637570681 6.79247241,0.360209424 6.79741039,0.107895288 C6.79830085,0.0968376963 6.79830085,0.0865340314 6.79830085,0.0753089005 Z"></path>
                                            </g>
                                            <ellipse id="Oval" fill="#ECC19C" cx="3.40858115" cy="8.30081675" rx="1" ry="1"></ellipse>
                                            <path d="M6.37695369,4.47974869 C6.37695369,4.46508901 6.36691583,4.45218848 6.35283045,4.45042932 C6.23383327,4.43149738 5.69786025,4.35568586 5.1218977,4.35568586 C4.46854652,4.35568586 3.62544744,4.56753927 3.4781176,4.56753927 L3.34746355,4.56753927 C3.27922231,4.56753927 3.05952275,4.52188482 2.7782199,4.47279581 C2.4553085,4.41591623 2.05160854,4.35568586 1.7037644,4.35568586 C1.28185058,4.35568586 0.882360048,4.39706806 0.651732179,4.42546597 C0.566815143,4.43576963 0.505211841,4.4452356 0.472831655,4.45042932 C0.458665324,4.45218848 0.448708417,4.46508901 0.448708417,4.47974869 L0.442070479,4.84314136 C0.442070479,4.85604188 0.449517922,4.86726702 0.460365284,4.87246073 L0.500354813,4.88628272 C0.559448651,4.90957068 0.554429722,6.00502618 0.869893677,6.27895288 C1.0571321,6.44004188 1.22445671,6.53218848 1.92767338,6.53218848 C2.33469231,6.53218848 2.59098147,6.41851309 2.83399476,6.0791623 C3.00876681,5.83539267 3.16443455,5.25922513 3.16443455,5.25922513 C3.20936206,5.03011518 3.36996778,5.00431414 3.40574789,5.00087958 C3.40655739,5.00087958 3.40655739,5.00087958 3.40744785,5.00087958 L3.40995731,5.00087958 C3.41165727,5.00087958 3.41246677,5.00087958 3.41246677,5.00087958 C3.41829521,5.00087958 3.61144301,5.00431414 3.6613085,5.25922513 C3.6613085,5.25922513 3.81697624,5.83539267 3.99174829,6.0791623 C4.23476158,6.41851309 4.49105075,6.53218848 4.89806967,6.53218848 C5.6013673,6.53218848 5.76861095,6.44004188 5.95584938,6.27895288 C6.27123238,6.00502618 6.2662944,4.90957068 6.32538824,4.88628272 L6.36537777,4.87246073 C6.37622513,4.86726702 6.38367257,4.85612565 6.38367257,4.84314136 L6.37695369,4.47974869 Z M2.83391381,5.77591623 C2.72989247,6.02915183 2.46356545,6.35551832 2.08738864,6.37537173 C0.959667741,6.4339267 0.908102296,6.10839791 0.834761176,5.85005236 C0.761501007,5.59162304 0.742396698,5.36510995 0.771538864,5.10760209 C0.800681031,4.84925654 0.863903343,4.69763351 0.977153041,4.62190576 C1.02539952,4.58831414 1.07866492,4.55815707 1.2143379,4.53662827 C1.33584454,4.51853403 1.52308296,4.5073089 1.83522795,4.5073089 C2.01663794,4.5073089 2.18566251,4.52196859 2.33712082,4.54693194 C2.73823037,4.61411518 3.00957632,4.75535079 3.00957632,4.89398953 C3.00949537,4.98957068 2.98626259,5.40129843 2.83391381,5.77591623 Z M5.99073903,5.85005236 C5.91747886,6.10839791 5.86591341,6.43401047 4.73811156,6.37537173 C4.36193476,6.35560209 4.09479823,6.02915183 3.99158639,5.77591623 C3.83923762,5.40129843 3.81600483,4.98957068 3.81600483,4.89398953 C3.81600483,4.70282723 4.32947362,4.5073089 4.9903532,4.5073089 C5.65034233,4.5073089 5.75606363,4.55815707 5.84842811,4.62190576 C5.96159686,4.69771728 6.02490012,4.84925654 6.05404229,5.10760209 C6.0831035,5.36510995 6.06399919,5.59162304 5.99073903,5.85005236 Z" id="Shape" fill="#1A1A1A"></path>
                                            <g fill="#E9EDF2">
                                                <path d="M6.80477688,3.17235602 C6.80388643,3.17235602 6.80388643,3.17319372 6.80307692,3.17319372 L0.0199947644,3.17319372 C0.0199947644,0.693612565 1.6346327,0.793549738 3.40574789,0.997612565 C3.40655739,0.997612565 3.40655739,0.997612565 3.40744785,0.997612565 C3.53316391,1.01227225 3.65960854,1.02693194 3.78613411,1.04150785 C5.11113129,1.19396859 6.18971526,0.601382199 6.7298977,0.0769005236 C7.46468506,0.618722513 7.59542006,2.61855497 6.80477688,3.17235602 Z" id="Shape"></path>
                                                <path d="M1.20179058,3.0267644 L1.18349577,3.08615707 C1.17434837,3.11539267 1.16520097,3.14471204 1.15516311,3.17310995 C1.14682521,3.19639791 1.13937777,3.21960209 1.13014942,3.24205236 C0.974562626,3.67271204 0.738996778,4.06718325 0.450165526,4.42027225 C0.247141764,4.66915183 0.0432275473,5.06881675 0.0224232783,5.67941361 C0.0207233186,5.71468063 0.0199138139,5.75003141 0.0199138139,5.78705759 L0.0199138139,4.53135079 C0.0199138139,3.81997906 0.0199138139,3.17310995 0.0199138139,3.17310995 L0.297897704,3.13868063 L0.569243657,3.10508901 L0.888836085,3.06546597 L1.20179058,3.0267644 Z" id="Shape"></path>
                                                <path d="M6.81408619,3.17344503 L5.63261418,3.02751832 L5.65098993,3.08657592 C5.80390536,3.57872251 6.06173258,4.02546597 6.38399638,4.42052356 C6.59908176,4.68423037 6.81416714,5.11597906 6.81416714,5.78789529 C6.81408619,4.86743455 6.81408619,3.17344503 6.81408619,3.17344503 Z" id="Shape"></path>
                                                <ellipse id="Oval" cx="3.40558598" cy="3.02751832" rx="2.52484495" ry="1"></ellipse>
                                            </g>
                                        </g>
                                    </g>
                                </g>
                            </g>
                        </g>
                        <g id="Group-2">
                            <g id="Icons/Color/Man-Purple-Shirt">
                                <g id="man-(4)" transform="translate(0.028057, 0.000000)">
                                    <g id="Group" fill-rule="nonzero">
                                        <path d="M37.4756571,64.9125393 L37.4756571,64.9159424 L0.194820781,64.9159424 L0.194820781,64.9125393 C0.194820781,62.8165445 0.542763861,60.797801 1.18943214,58.9189267 C1.30529923,58.5796335 1.43176185,58.2437435 1.56881998,57.9112565 L1.56881998,57.9078534 C1.7024602,57.5753665 1.84977205,57.2500262 2.0046033,56.9284293 C2.61948503,55.6372775 3.3857801,54.4301832 4.27477809,53.3245026 C4.49967647,53.0478272 4.72833454,52.7786387 4.96348664,52.5196597 C5.07935374,52.3865969 5.20239844,52.2572775 5.32544315,52.1276178 C5.44848785,52.0017016 5.57153255,51.8757853 5.69799517,51.7498691 C6.32689032,51.1233508 7.00158545,50.5495812 7.71148503,50.0214136 C8.06660572,49.7590314 8.42480252,49.5140052 8.79735454,49.2761257 C8.93099476,49.1920681 9.06429319,49.1080105 9.20135132,49.0276963 C9.26116472,48.992644 9.32439603,48.9575916 9.38420942,48.9225393 C9.56706753,48.8139791 9.74958384,48.7091623 9.93585985,48.6077487 C9.94303745,48.6006021 9.94987327,48.6006021 9.94987327,48.6006021 C10.1009448,48.5199476 10.2485985,48.4324869 10.3962521,48.341623 C10.8354533,48.0792408 11.2572233,47.7886126 11.6578021,47.4670157 C12.947379,46.4453927 14.0158172,45.157644 14.7817704,43.6915707 C15.0244419,43.2263613 15.2387448,42.7434555 15.4178432,42.2465969 C15.864222,41.0078534 16.1068935,39.6748429 16.1068935,38.2822775 L18.8231054,38.2962304 L18.830283,38.2962304 L21.6169037,38.3105236 C21.6169037,39.6853927 21.8523976,41.0047906 22.2878392,42.2292408 C22.4635197,42.7298429 22.6744046,43.2124084 22.9167343,43.6779581 C23.6792697,45.1508377 24.74429,46.4453927 26.0338668,47.4707592 C26.2867921,47.6769895 26.543477,47.8662042 26.8141753,48.0445288 C26.8422022,48.0656283 26.8668111,48.0829843 26.894838,48.1006806 C27.0213006,48.1847382 27.1477632,48.2687958 27.2814034,48.3457068 C27.4256391,48.4331675 27.5732928,48.5206283 27.7206046,48.6009424 C27.7452136,48.608089 27.7664046,48.6182984 27.783836,48.6322513 C27.9489209,48.7234555 28.1143477,48.8177225 28.275673,48.915733 C28.4164908,48.9960471 28.5569668,49.0801047 28.6974429,49.1675654 C28.8413368,49.2550262 28.9855726,49.3458901 29.1260486,49.4473037 C29.4175962,49.6327749 29.702308,49.8359424 29.9798421,50.0455759 C29.9798421,50.0489791 29.98326,50.0489791 29.98326,50.0489791 L29.9870197,50.0489791 C30.3417986,50.3113613 30.6863238,50.5914398 31.0236714,50.8779843 C31.3610189,51.1648691 31.6843531,51.4660471 31.9970917,51.7774346 C35.3845807,55.1366754 37.4756571,59.776178 37.4756571,64.9125393 Z" id="Shape" fill="#F0BB8E"></path>
                                        <path d="M37.4756571,64.9125393 L0.194820781,64.9125393 C0.194820781,62.8165445 0.542763861,60.797801 1.18943214,58.9189267 C1.30529923,58.5796335 1.43176185,58.2437435 1.56881998,57.9112565 L1.56881998,57.9078534 C1.7024602,57.5753665 1.84977205,57.2500262 2.0046033,56.9284293 C2.61948503,55.6372775 3.3857801,54.4301832 4.27477809,53.3245026 C4.49967647,53.0478272 4.72833454,52.7786387 4.96348664,52.5196597 C5.07935374,52.3865969 5.20239844,52.2572775 5.32544315,52.1276178 C5.44848785,52.0017016 5.57153255,51.8757853 5.69799517,51.7498691 C6.32689032,51.1233508 7.00158545,50.5495812 7.71148503,50.0214136 C8.06660572,49.7590314 8.42480252,49.5140052 8.79735454,49.2761257 C8.93099476,49.1920681 9.06429319,49.1080105 9.20135132,49.0276963 C9.26116472,48.9892408 9.32097812,48.9541885 9.38044972,48.9191361 C9.56330783,48.8105759 9.74958384,48.7057592 9.93585985,48.6043455 C9.94303745,48.597199 9.94987327,48.6009424 9.94987327,48.6009424 L9.94987327,48.5975393 C10.1009448,48.5134817 10.2485985,48.4294241 10.3962521,48.3423037 C10.8354533,48.076178 11.2572233,47.7824869 11.6506245,47.4605497 C11.6540424,47.4639529 11.6540424,47.4639529 11.6578021,47.467356 C13.4781802,49.3217277 16.0118757,50.4730105 18.8231054,50.4798168 L18.8511322,50.4798168 C21.6623619,50.4798168 24.206653,49.3251309 26.0338668,47.4707592 L26.0372847,47.467356 C26.2867921,47.6739267 26.5468949,47.8662042 26.8138335,48.0445288 C26.8418604,48.0656283 26.8664693,48.0829843 26.8944962,48.1006806 C27.0209588,48.1847382 27.1508393,48.2650524 27.2810616,48.3457068 C27.4252974,48.4331675 27.572951,48.5172251 27.7202629,48.5975393 C27.7448718,48.6046859 27.7623031,48.6186387 27.7834942,48.6288482 C27.9485791,48.7200524 28.1174238,48.8143194 28.2790909,48.9123298 C28.4195669,48.9963874 28.5603847,49.080445 28.6974429,49.1679058 C28.8413368,49.2553665 28.9855726,49.3462304 29.1260486,49.447644 C29.4175962,49.6331152 29.702308,49.8362827 29.9798421,50.0459162 L29.9870197,50.0459162 C30.3417986,50.3117016 30.6897417,50.588377 31.0236714,50.8786649 C31.3610189,51.1655497 31.6843531,51.4667277 31.9970917,51.7781152 C35.3845807,55.1366754 37.4756571,59.776178 37.4756571,64.9125393 Z" id="Shape" fill="#473B7B"></path>
                                        <path d="M28.2790909,48.9123298 L28.275673,48.915733 L27.8925254,49.3040314 C25.4818746,51.7498691 22.2628884,53.0968325 18.8295994,53.0968325 C18.8261815,53.0968325 18.8261815,53.0968325 18.8224218,53.0968325 C15.357688,53.0862827 12.1492974,51.7393194 9.74924205,49.2972251 L9.38386763,48.9228796 L9.38044972,48.9194764 C9.56330783,48.8109162 9.74958384,48.7060995 9.93585985,48.6046859 C9.94303745,48.5975393 9.94987327,48.6012827 9.94987327,48.6012827 L9.94987327,48.5978796 C10.1009448,48.513822 10.2485985,48.4297644 10.3962521,48.342644 C10.8354533,48.0765183 11.2572233,47.7828272 11.6506245,47.4608901 C11.6540424,47.4642932 11.6540424,47.4642932 11.6578021,47.4676963 C13.4781802,49.3220681 16.0118757,50.4733508 18.8231054,50.4801571 L18.8511322,50.4801571 C21.6623619,50.4801571 24.206653,49.3254712 26.0338668,47.4710995 L26.0372847,47.4676963 C26.2867921,47.674267 26.5468949,47.8665445 26.8138335,48.0448691 C26.8418604,48.0659686 26.8664693,48.0833246 26.8944962,48.1010209 C27.0209588,48.1850785 27.1508393,48.2653927 27.2810616,48.3460471 C27.4252974,48.4335079 27.572951,48.5175654 27.7202629,48.5978796 C27.7448718,48.6050262 27.7623031,48.6189791 27.7834942,48.6291885 C27.9489209,48.719712 28.1177656,48.8143194 28.2790909,48.9123298 Z" id="Shape" fill="#FFFFFF"></path>
                                        <g transform="translate(4.443281, 0.000000)">
                                            <path d="M28.6994936,18.4089529 L28.6994936,26.9494764 C28.6994936,27.1032984 28.6960757,27.2574607 28.6926578,27.4112827 C28.6892399,27.5300524 28.6854802,27.6491623 28.6786444,27.7679319 C28.6752265,27.8870419 28.6680489,28.0024084 28.6574533,28.121178 C28.6540354,28.2014921 28.6468578,28.2821466 28.640022,28.362801 C28.6366041,28.4118063 28.6331862,28.4570681 28.6260086,28.5060733 C28.6191728,28.593534 28.6119952,28.6843979 28.5979817,28.7718586 C28.5908041,28.8559162 28.5839683,28.9399738 28.5699549,29.0236911 C28.5627773,29.1043455 28.5525236,29.1880628 28.5381683,29.2721204 C28.5067236,29.5239529 28.4643415,29.7757853 28.4185415,30.0242147 C28.3870968,30.1923298 28.3553102,30.3601047 28.3201058,30.5248168 C28.3166879,30.5319634 28.3166879,30.5387696 28.31327,30.5459162 C28.3098521,30.5704188 28.3060924,30.5949215 28.2992565,30.6194241 C28.2958386,30.6265707 28.2958386,30.633377 28.2920789,30.6405236 C28.2920789,30.6476702 28.2920789,30.6544764 28.288661,30.661623 C28.2814834,30.6966754 28.2746476,30.7317277 28.2640521,30.7664398 C28.2572163,30.8082984 28.2466208,30.8504974 28.2360252,30.892356 C28.2291894,30.9379581 28.2182521,30.9798168 28.2042387,31.0220157 C28.1936432,31.0849738 28.1762118,31.1479319 28.1618566,31.2108901 C28.1512611,31.2459424 28.1444253,31.2843979 28.1304119,31.3194503 C28.1232343,31.3510995 28.1129805,31.3824084 28.1058029,31.4106545 C28.0319761,31.6975393 27.9475538,31.9772775 27.8597135,32.257356 C27.8176732,32.3904188 27.7752912,32.5197382 27.729833,32.652801 C27.7260733,32.6667539 27.7192375,32.6807068 27.7154778,32.6946597 C27.6734375,32.8137696 27.6310554,32.9325393 27.5890152,33.0516492 C27.5750017,33.0867016 27.5609883,33.1214136 27.5469749,33.1602094 C27.5045928,33.2721728 27.4625526,33.3841361 27.4170944,33.4960995 C27.3644586,33.6325654 27.3080631,33.7656283 27.2520094,33.8986911 C27.2027915,34.017801 27.1501557,34.1365707 27.0971781,34.2553403 C27.0903423,34.2764398 27.0797468,34.2937958 27.0725692,34.3148953 C27.0127558,34.4408115 26.9567021,34.5667277 26.8968887,34.6892408 C26.8370753,34.8185602 26.773844,34.9482199 26.7071948,35.0778796 C26.5807322,35.3331152 26.4436741,35.5886911 26.3066159,35.8371204 L26.116922,36.1730105 C25.5755253,37.1003665 24.974657,37.9715707 24.3211529,38.7760733 C24.2333127,38.8914398 24.1420545,39.0034031 24.0470366,39.1119634 C23.9168143,39.2695288 23.7835159,39.4233508 23.6498757,39.5737696 C23.5302489,39.7068325 23.4109639,39.839555 23.2879192,39.9692147 C22.9505716,40.3296073 22.6060464,40.672644 22.2546855,40.9945812 C22.1842765,41.0646859 22.1107915,41.127644 22.0366229,41.1940052 C21.9169961,41.3025654 21.7977111,41.4073822 21.6746664,41.5087958 C21.5796485,41.5928534 21.4815546,41.6731675 21.382777,41.753822 C21.1298518,41.9600524 20.8769266,42.1594764 20.6202416,42.3449476 C20.5146283,42.4256021 20.4059388,42.5025131 20.2969075,42.5760209 C20.121227,42.7019372 19.9417868,42.8210471 19.7626884,42.9364136 C19.6642527,43.0027749 19.562399,43.065733 19.4605453,43.125288 C19.1337933,43.3281152 18.7998636,43.5135864 18.4731116,43.6779581 C18.4416668,43.6953141 18.41364,43.709267 18.3818534,43.7232199 C18.2940132,43.768822 18.2061729,43.8106806 18.1183327,43.8528796 C18.0304924,43.8947382 17.9392343,43.9369372 17.8442164,43.9787958 C17.7283493,44.0312042 17.6124822,44.0802094 17.4962733,44.1258115 C17.4504734,44.1465707 17.4046734,44.164267 17.3592152,44.1782199 C17.2221571,44.2340314 17.0813392,44.2867801 16.9446229,44.3320419 C16.7723603,44.395 16.5966798,44.4474084 16.424759,44.4964136 C16.3051322,44.531466 16.1824293,44.5627749 16.0628025,44.5906806 C16.0556249,44.5944241 16.0487891,44.5978272 16.0381936,44.5978272 C15.9185668,44.625733 15.7992818,44.6536387 15.679655,44.6747382 C15.6478684,44.6818848 15.6164237,44.6886911 15.5846371,44.6920942 C15.4862014,44.7094503 15.3877656,44.7271466 15.2893298,44.7376963 C15.1488538,44.7584555 15.0083778,44.7761518 14.8679017,44.7832984 C14.8186839,44.790445 14.7728839,44.7938482 14.7240078,44.7938482 C14.6115586,44.8006545 14.4991094,44.8043979 14.3900781,44.8043979 L14.3794826,44.8043979 C14.2704513,44.8043979 14.1617618,44.8009948 14.0527306,44.7938482 C14.0103485,44.7938482 13.9683082,44.790445 13.926268,44.7832984 C13.8278322,44.779555 13.7259785,44.7693455 13.6203651,44.7553927 C13.5991741,44.7553927 13.5745652,44.7519895 13.5537159,44.7482461 C13.4238354,44.7308901 13.2936131,44.7097906 13.1599729,44.685288 C13.0475237,44.6679319 12.9350745,44.6434293 12.8192074,44.6155236 C12.2183391,44.4790576 11.6000395,44.2724869 10.9742204,43.9961518 C10.7633355,43.9015445 10.5490326,43.8038743 10.3381477,43.6915707 C10.0113956,43.5306021 9.68464358,43.348534 9.36130944,43.1491099 C9.09061109,42.9847382 8.81991274,42.8098168 8.55297409,42.6243455 C8.41933387,42.5297382 8.28603544,42.4354712 8.15239522,42.3374607 C7.73438502,42.0328796 7.31945093,41.700733 6.91203625,41.3437435 C6.79958706,41.2423298 6.68713787,41.1409162 6.57468868,41.0357592 C6.4622395,40.9343455 6.34979031,40.8295288 6.24075903,40.7277749 C5.96664277,40.4653927 5.69970412,40.1924607 5.43960129,39.9089791 C5.33774762,39.8004188 5.23589395,39.6887958 5.13369848,39.573089 C4.85274641,39.2582984 4.57828836,38.9329581 4.31852732,38.5933246 C4.21667365,38.4708115 4.12165579,38.3448953 4.02697973,38.2189791 C3.67220083,37.7503665 3.33485327,37.2603141 3.01835495,36.7529058 C2.93393261,36.6164398 2.84985206,36.4762304 2.76884763,36.3401047 C2.67041187,36.175733 2.5757358,36.0076178 2.48071795,35.8398429 C2.12935696,35.2099215 1.80602282,34.5558377 1.52472896,33.8803141 C1.48268868,33.7823037 1.44030662,33.6842932 1.40510216,33.586623 C1.34904846,33.4607068 1.29983058,33.3313874 1.25403061,33.2051309 C1.18362169,33.0196597 1.11697248,32.8341885 1.05374117,32.6487173 C0.990509867,32.4632461 0.930696469,32.2743717 0.870883072,32.0854974 C0.814487582,31.9034293 0.761851792,31.7217016 0.712633911,31.5362304 C0.656580212,31.3402094 0.603944422,31.1407853 0.558144449,30.9379581 C0.55472654,30.9168586 0.547548933,30.8957592 0.544131024,30.875 C0.47748181,30.5952618 0.417668412,30.3117801 0.365032622,30.024555 C0.294623708,29.6468063 0.238570009,29.261911 0.196187945,28.8736126 C0.178756612,28.7510995 0.168161095,28.6285864 0.157565579,28.5060733 C0.143552155,28.3767539 0.132956638,28.2504974 0.126120822,28.121178 C0.108689489,27.8867016 0.0980939723,27.648822 0.0909163646,27.4109424 C0.0874984562,27.2567801 0.0837387569,27.1029581 0.0837387569,26.9491361 L0.0837387569,18.4089529 C0.0837387569,16.4531675 0.480899718,14.5882461 1.19763512,12.8910995 C1.21506645,12.8420942 1.23625748,12.7968325 1.25744852,12.7512304 C1.53532447,12.1110995 1.85831682,11.4951309 2.22745093,10.9074084 C2.28384642,10.8131414 2.34331803,10.7219372 2.40313143,10.6310733 C4.95425829,6.74026178 9.36472735,4.16850785 14.3791408,4.16510471 L14.3931542,4.16510471 C15.4827835,4.16510471 16.5437022,4.2876178 17.5629225,4.51494764 C18.4943026,4.72492147 19.3901364,5.02575916 20.240512,5.40725131 C21.4002084,5.92486911 22.4789003,6.58984293 23.4489027,7.38413613 C24.2640738,8.04876963 25.00576,8.79746073 25.6520865,9.62340314 C25.9050117,9.94534031 26.1439235,10.2774869 26.3691636,10.6205236 C26.432395,10.7147906 26.4956263,10.8093979 26.5520217,10.9074084 C26.9173962,11.4917277 27.2441482,12.1042932 27.5216824,12.7444241 L27.5849137,12.8914398 C28.2876357,14.553534 28.6813787,16.3728534 28.6953921,18.283377 C28.6994936,18.3248953 28.6994936,18.3667539 28.6994936,18.4089529 Z" id="Shape" fill="#F0BB8E"></path>
                                            <path d="M28.6994936,26.9494764 C28.6994936,27.1032984 28.6960757,27.2574607 28.6926578,27.4112827 C28.6892399,27.5300524 28.6854802,27.6491623 28.6786444,27.7679319 C28.6752265,27.8870419 28.6680489,28.0024084 28.6574533,28.121178 C28.6540354,28.2014921 28.6468578,28.2821466 28.640022,28.362801 C28.6366041,28.4118063 28.6331862,28.4570681 28.6260086,28.5060733 C28.6191728,28.593534 28.6119952,28.6843979 28.5979817,28.7718586 C28.5908041,28.8559162 28.5805504,28.9399738 28.5699549,29.0236911 C28.5627773,29.1043455 28.5525236,29.1880628 28.5381683,29.2721204 C28.5067236,29.5239529 28.4643415,29.7757853 28.4185415,30.0242147 C28.3905147,30.1712304 28.3624879,30.3148429 28.3307013,30.4581152 C28.3272834,30.4897644 28.3201058,30.5176702 28.31327,30.5455759 C28.3098521,30.5700785 28.3060924,30.5945812 28.2992565,30.6190838 C28.2958386,30.6262304 28.2958386,30.6330366 28.2920789,30.6401832 C28.2920789,30.6473298 28.2920789,30.6541361 28.288661,30.6612827 C28.288661,30.6646859 28.288661,30.6684293 28.288661,30.6684293 C28.2814834,30.7068848 28.2712297,30.7453403 28.2640521,30.7803927 C28.2572163,30.8188482 28.2466208,30.8573037 28.2360252,30.892356 C28.2291894,30.9379581 28.2182521,30.9798168 28.2042387,31.0220157 C28.1902253,31.0917801 28.1724521,31.1584817 28.1516029,31.2248429 C28.148185,31.2561518 28.1410074,31.287801 28.1307537,31.3191099 C28.1235761,31.3507592 28.1133223,31.3820681 28.1061447,31.4103141 C28.0323179,31.697199 27.9478956,31.9769372 27.8600553,32.2570157 C27.818015,32.3900785 27.775633,32.5193979 27.7301748,32.6524607 C27.7264151,32.6664136 27.7195793,32.6803665 27.7158196,32.6943194 C27.6737793,32.8134293 27.6313972,32.932199 27.589357,33.0513089 C27.5753435,33.0863613 27.5613301,33.1210733 27.5473167,33.1598691 C27.5049346,33.2718325 27.4628943,33.3837958 27.4174362,33.4957592 C27.3648004,33.6322251 27.3084049,33.765288 27.2523512,33.8983508 C27.2031333,34.0174607 27.1504975,34.1362304 27.0975199,34.255 C27.0906841,34.2760995 27.0800886,34.2934555 27.072911,34.314555 C27.0130976,34.4404712 26.9570439,34.5663874 26.8972305,34.6889005 C26.8374171,34.8182199 26.7741858,34.9478796 26.7075366,35.0775393 C26.581074,35.3327749 26.4440158,35.5883508 26.3069577,35.8367801 L26.1172638,36.1726702 C25.5758671,37.1000262 24.9749988,37.9712304 24.3214947,38.775733 C24.2336545,38.8910995 24.1423963,39.0030628 24.0473784,39.111623 C23.9171561,39.2691885 23.7838577,39.4230105 23.6502175,39.5734293 C23.5305907,39.7064921 23.4113057,39.8392147 23.288261,39.9688743 C22.9509134,40.329267 22.6063882,40.6723037 22.2550273,40.9942408 C22.1846183,41.0643455 22.1111333,41.1273037 22.0369647,41.1936649 C21.9173379,41.3022251 21.7980529,41.4070419 21.6750082,41.5084555 C21.5799903,41.5925131 21.4818964,41.6728272 21.3831188,41.7534817 C21.1301936,41.959712 20.8772684,42.1591361 20.6205834,42.3446073 C20.5149701,42.4252618 20.4062806,42.5021728 20.2972493,42.5756806 C20.1215688,42.7015969 19.9421286,42.8207068 19.7630302,42.9360733 C19.6645944,43.0024346 19.5627408,43.0653927 19.4608871,43.1249476 C19.1341351,43.3277749 18.8002054,43.5132461 18.4734533,43.6776178 C18.4420086,43.6949738 18.4139817,43.7089267 18.3821952,43.7228796 C18.2943549,43.7684817 18.2065147,43.8103403 18.1186745,43.8525393 C18.0308342,43.8943979 17.9395761,43.9365969 17.8445582,43.9784555 C17.7286911,44.0308639 17.612824,44.0798691 17.4966151,44.1254712 C17.4508151,44.1462304 17.4050152,44.1639267 17.359557,44.1778796 C17.2224989,44.2336911 17.081681,44.2864398 16.9449647,44.3317016 C16.7727021,44.3946597 16.5970216,44.4470681 16.4251008,44.4960733 C16.305474,44.5311257 16.1827711,44.5624346 16.0631443,44.5903403 C16.0559667,44.5940838 16.0491309,44.5974869 16.0385354,44.5974869 C15.9189086,44.6253927 15.7996236,44.6532984 15.6799968,44.6743979 C15.6482102,44.6815445 15.6167655,44.6883508 15.5849789,44.6917539 C15.4865432,44.7091099 15.3881074,44.7268063 15.2896716,44.737356 C15.1491956,44.7581152 15.0087196,44.7758115 14.8682435,44.7829581 C14.8190256,44.7901047 14.7732257,44.7935079 14.7243496,44.7935079 C14.6119004,44.8003141 14.4994512,44.8040576 14.3904199,44.8040576 L14.3798244,44.8040576 C14.2707931,44.8040576 14.1621036,44.8006545 14.0530724,44.7935079 C14.0106903,44.7935079 13.96865,44.7901047 13.9266097,44.7829581 C13.828174,44.7792147 13.7263203,44.7690052 13.6207069,44.7550524 C13.5995159,44.7550524 13.574907,44.7516492 13.5540577,44.7479058 C13.4241772,44.7305497 13.2939549,44.7094503 13.1603147,44.6849476 C13.0478655,44.6675916 12.9354163,44.643089 12.8195492,44.6151832 C12.2186809,44.4787173 11.6003813,44.2721466 10.9745622,43.9958115 C10.7636773,43.9012042 10.5493744,43.803534 10.3384895,43.6912304 C10.0117374,43.5302618 9.68498537,43.3481937 9.36165123,43.1487696 C9.09095288,42.987801 8.82401423,42.8128796 8.55331588,42.6240052 C8.41967566,42.5293979 8.28637723,42.4351309 8.15273701,42.3371204 C7.73472681,42.0325393 7.31979272,41.7003927 6.91237804,41.3434031 C6.79992885,41.2419895 6.68747966,41.1405759 6.57503047,41.0354188 C6.46258129,40.9340052 6.3501321,40.8291885 6.24110082,40.7274346 C5.96698456,40.4650524 5.70004591,40.1921204 5.43994308,39.9086387 C5.33808941,39.8000785 5.23623574,39.6884555 5.13404027,39.5727487 C4.8530882,39.2579581 4.57863015,38.9326178 4.31886911,38.5929843 C4.21701544,38.4704712 4.12199758,38.344555 4.02732152,38.2186387 C3.67254262,37.7500262 3.33519506,37.2599738 3.01869674,36.7525654 C2.9342744,36.6160995 2.85019385,36.4758901 2.76918942,36.3397644 C2.67075366,36.1753927 2.57607759,36.0072775 2.48105974,35.8395026 C2.12969875,35.2095812 1.80636461,34.5554974 1.52507075,33.8799738 C1.48303047,33.7819634 1.44064841,33.6839529 1.40544395,33.5862827 C1.34939025,33.4603665 1.30017237,33.3310471 1.2543724,33.2047906 C1.18396349,33.0193194 1.11731427,32.8338482 1.05408296,32.648377 C0.990851658,32.4629058 0.93103826,32.2740314 0.871224862,32.0851571 C0.814829373,31.903089 0.762193583,31.7213613 0.712975701,31.5358901 C0.656922003,31.3398691 0.604286213,31.140445 0.55848624,30.9376178 C0.555068331,30.9165183 0.547890724,30.8954188 0.544472815,30.8746597 C0.4778236,30.5949215 0.418010203,30.3114398 0.365374413,30.0242147 C0.294965499,29.646466 0.2389118,29.2615707 0.196529736,28.8732723 C0.179098402,28.7507592 0.168502886,28.6282461 0.15790737,28.505733 C0.143893945,28.3764136 0.133298429,28.2501571 0.126462612,28.1208377 C0.109031279,27.8863613 0.0984357632,27.6484817 0.0912581555,27.4106021 C0.087840247,27.2564398 0.0840805477,27.1026178 0.0840805477,26.9487958 L2.36826876,31.4205236 L6.29339482,33.1244764 L10.9355981,33.5410209 L10.939016,33.5410209 L14.3791408,33.8524084 L14.4003319,33.8524084 L17.619318,34.1430366 C17.6227359,34.1430366 17.6227359,34.1430366 17.6227359,34.1430366 L24.8020526,34.786911 L28.6994936,26.9494764 Z" id="Shape" fill="#E9EDF2"></path>
                                            <g transform="translate(0.000000, 22.460733)" fill="#E9EDF2" id="Shape">
                                                <path d="M14.4075095,6.73515707 L14.4040916,10.1815183 L14.4040916,10.1852618 L14.4006736,11.392356 L14.4006736,12.3404712 L14.3972557,15.4893979 L14.3972557,15.492801 L14.3938378,15.4893979 L14.3904199,15.4893979 L14.387002,15.4859948 L14.3798244,15.4825916 L0.558828031,8.47790576 C0.555410122,8.45680628 0.548232514,8.43570681 0.544814606,8.41494764 C0.478165391,8.13520942 0.418351994,7.85172775 0.365716204,7.56450262 C0.29530729,7.18675393 0.239253591,6.80185864 0.196871526,6.41356021 C0.179440193,6.29104712 0.168844677,6.16853403 0.158249161,6.04602094 C0.144235736,5.91670157 0.13364022,5.79044503 0.126804403,5.66112565 C0.10937307,5.42664921 0.098777554,5.18876963 0.0915999463,4.95089005 C0.0881820379,4.79672775 0.0844223386,4.64290576 0.0844223386,4.48908377 L0.0844223386,0.307643979 C0.0844223386,0.367198953 0.087840247,0.426753927 0.087840247,0.485968586 C0.087840247,0.527827225 0.0912581555,0.570026178 0.0950178547,0.611884817 C0.129880521,1.58790576 0.291889381,2.65513089 0.590272788,3.74685864 C0.832602497,4.62146597 1.13508739,5.42971204 1.48644838,6.1508377 L1.48644838,6.15424084 C2.40723292,8.06102094 3.64041428,9.35557592 4.77584347,9.56554974 C4.84591059,9.57609948 4.91973741,9.58290576 4.99014633,9.59005236 C5.42934756,9.63905759 5.88973983,9.66696335 6.36414552,9.66696335 C8.15615492,9.66696335 9.74821667,8.23253927 10.7496638,7.65162304 C10.7568415,7.6482199 10.7636773,7.64447644 10.7708549,7.6410733 C10.8234907,7.60942408 10.8764683,7.57811518 10.9219264,7.54646597 C10.9359399,7.53591623 10.9499533,7.52910995 10.9639667,7.52196335 C11.8075065,7.04246073 13.0232565,6.7382199 14.3798244,6.73481675 L14.4075095,6.73481675 L14.4075095,6.73515707 Z"></path>
                                                <path d="M28.7039369,0.305942408 L28.700519,4.48704188 C28.700519,5.53657068 28.6020832,6.56534031 28.4195669,7.56246073 C28.3457401,7.9613089 28.2613178,8.35675393 28.1632238,8.7484555 L24.9196287,13.4124607 L14.3982811,15.487356 L14.3948632,15.487356 L14.3914453,15.4907592 L14.3914453,15.487356 L14.3808498,6.73175393 L14.4088766,6.73175393 C15.7651027,6.73515707 16.9846124,7.03973822 17.8278104,7.51890052 C17.8418239,7.52604712 17.8524194,7.5328534 17.8664328,7.54340314 C17.9156507,7.57471204 17.9682865,7.60636126 18.0209223,7.63767016 C18.0243402,7.64141361 18.0315178,7.64481675 18.0386954,7.6482199 C19.0435605,8.22913613 20.6318625,9.66458115 22.4242137,9.66458115 C22.8986194,9.66458115 23.3590117,9.63667539 23.7982129,9.58767016 C23.8720397,9.58052356 23.9421069,9.57371728 24.0159337,9.56316754 C25.1472614,9.35319372 26.3845442,8.05863874 27.3015691,6.15185864 L27.3015691,6.1484555 C27.6529301,5.42767016 27.9550732,4.61942408 28.1977447,3.74481675 C28.5139012,2.59013089 28.679328,1.46335079 28.7001772,0.438324607 C28.7039369,0.393403141 28.7039369,0.351544503 28.7039369,0.305942408 Z"></path>
                                            </g>
                                            <ellipse id="Oval" fill="#ECC19C" cx="14.3917871" cy="33.7220681" rx="3.50506511" ry="1.07879581"></ellipse>
                                            <path d="M26.9249156,18.1989791 C26.9249156,18.1394241 26.8825335,18.0870157 26.8230619,18.0798691 C26.3206293,18.0029581 24.0576322,17.6949738 21.6257903,17.6949738 C18.8671964,17.6949738 15.3074448,18.5556283 14.6853854,18.5556283 L14.133735,18.5556283 C13.8456053,18.5556283 12.917985,18.3701571 11.7302618,18.170733 C10.3668581,17.9396597 8.66234716,17.6949738 7.1936719,17.6949738 C5.41225802,17.6949738 3.7255202,17.863089 2.75175809,17.9784555 C2.39321949,18.0203141 2.13311666,18.0587696 1.99640032,18.0798691 C1.93658692,18.0870157 1.89454665,18.1394241 1.89454665,18.1989791 L1.8665198,19.6752618 C1.8665198,19.7276702 1.89796456,19.7732723 1.94376453,19.7943717 L2.11260921,19.8505236 C2.36211653,19.9451309 2.34092549,24.3954188 3.67288441,25.5082461 C4.46344664,26.1626702 5.16992831,26.5370157 8.13906538,26.5370157 C9.85758974,26.5370157 10.9396996,26.0752094 11.9657557,24.6965969 C12.7036821,23.7062827 13.3609459,21.3656021 13.3609459,21.3656021 C13.5506398,20.4348429 14.2287529,20.3300262 14.3798244,20.3160733 C14.3832423,20.3160733 14.3832423,20.3160733 14.387002,20.3160733 L14.3975975,20.3160733 C14.4047751,20.3160733 14.408193,20.3160733 14.408193,20.3160733 C14.432802,20.3160733 15.2483149,20.3300262 15.4588581,21.3656021 C15.4588581,21.3656021 16.1161219,23.7062827 16.8540483,24.6965969 C17.8801044,26.0752094 18.9622143,26.5370157 20.6807386,26.5370157 C23.6502175,26.5370157 24.3563574,26.1626702 25.1469196,25.5082461 C26.4785367,24.3954188 26.4576875,19.9451309 26.7071948,19.8505236 L26.8760395,19.7943717 C26.9218394,19.7732723 26.9532842,19.7280105 26.9532842,19.6752618 L26.9249156,18.1989791 Z M11.9654139,23.4646597 C11.5262126,24.4934293 10.4017208,25.8192932 8.81341871,25.8999476 C4.05193046,26.1378272 3.83420969,24.8153665 3.52454719,23.7658377 C3.21522647,22.7159686 3.13456383,21.7957592 3.25760854,20.7496335 C3.38065324,19.7001047 3.64759189,19.0841361 4.12575728,18.7764921 C4.32946463,18.6400262 4.554363,18.5175131 5.12720446,18.4300524 C5.64023251,18.3565445 6.43079474,18.3109424 7.74874023,18.3109424 C8.51469352,18.3109424 9.2283528,18.3704974 9.86784347,18.471911 C11.5614171,18.7448429 12.7071,19.3186126 12.7071,19.8818325 C12.7067582,20.2701309 12.6086643,21.9427749 11.9654139,23.4646597 Z M25.2942314,23.7658377 C24.9849107,24.8153665 24.76719,26.1381675 20.0053599,25.8999476 C18.4170579,25.8196335 17.2891481,24.4934293 16.8533647,23.4646597 C16.2101144,21.9427749 16.1120204,20.2701309 16.1120204,19.8818325 C16.1120204,19.1052356 18.2799997,18.3109424 21.0703802,18.3109424 C23.8570009,18.3109424 24.3033798,18.5175131 24.6933631,18.7764921 C25.1711867,19.0844764 25.4384672,19.7001047 25.5615119,20.7496335 C25.6842148,21.7957592 25.6035522,22.7159686 25.2942314,23.7658377 Z" id="Shape" fill="#1A1A1A"></path>
                                            <g fill="#E9EDF2">
                                                <path d="M28.7312802,12.8876963 C28.7275205,12.8876963 28.7275205,12.8910995 28.7241026,12.8910995 L0.0844223386,12.8910995 C0.0844223386,2.81780105 6.90178252,3.22379581 14.3798244,4.05280105 C14.3832423,4.05280105 14.3832423,4.05280105 14.387002,4.05280105 C14.9178032,4.11235602 15.4516805,4.17191099 15.9858996,4.23112565 C21.5803321,4.85049738 26.1343533,2.44311518 28.4151236,0.312408377 C31.5175591,2.51356021 32.0695513,10.6378796 28.7312802,12.8876963 Z" id="Shape"></path>
                                                <path d="M5.07422688,12.2962304 L4.99698215,12.5375131 C4.95835978,12.6562827 4.91973741,12.7753927 4.87735535,12.8907592 C4.84215089,12.9853665 4.81070614,13.0796335 4.77174198,13.1708377 C4.11481998,14.9203927 3.12020862,16.5229319 1.90069889,17.957356 C1.04348745,18.9684293 0.182516311,20.5920681 0.0946760639,23.0726178 C0.0874984562,23.2158901 0.0840805477,23.3595026 0.0840805477,23.5099215 L0.0840805477,18.4086126 C0.0840805477,15.5186649 0.0840805477,12.8907592 0.0840805477,12.8907592 L1.25779031,12.7508901 L2.40347322,12.6144241 L3.75286347,12.4534555 L5.07422688,12.2962304 Z" id="Shape"></path>
                                                <path d="M28.7705861,12.8921204 L23.7821487,12.2992932 L23.8597353,12.5392147 C24.5053782,14.5385602 25.593982,16.3534555 26.9546514,17.958377 C27.8627896,19.0296859 28.7709279,20.7836649 28.7709279,23.5133246 C28.7705861,19.7739529 28.7705861,12.8921204 28.7705861,12.8921204 Z" id="Shape"></path>
                                                <ellipse id="Oval" cx="14.3791408" cy="12.2992932" rx="10.6604564" ry="2.01193717"></ellipse>
                                            </g>
                                        </g>
                                    </g>
                                </g>
                            </g>
                        </g>
                    </g>
                </g>
            </g>
        </g>
    </g>
</svg>