<?xml version="1.0" encoding="UTF-8"?>
<svg width="36px" height="36px" viewBox="0 0 36 36" version="1.1" xmlns="http://www.w3.org/2000/svg" xmlns:xlink="http://www.w3.org/1999/xlink">
    <!-- Generator: Sketch 48.2 (47327) - http://www.bohemiancoding.com/sketch -->
    <title>x-button</title>
    <desc>Created with Sketch.</desc>
    <defs></defs>
    <g id="KYC---ID-Verification---Failed-Try" stroke="none" stroke-width="1" fill="none" fill-rule="evenodd" transform="translate(-316.000000, -406.000000)">
        <g id="Group-16" transform="translate(316.000000, 406.000000)" fill-rule="nonzero">
            <g id="x-button">
                <circle id="Oval" fill="#E21B1B" cx="18" cy="18" r="18"></circle>
                <path d="M36,20.0970213 L26.1142121,10 L11,26.0051064 L20.7857968,36 C28.7834193,34.8765957 35.0817483,28.3228369 36,20.0970213 Z" id="Shape" fill="#C40606"></path>
                <g id="Group" transform="translate(10.000000, 10.000000)" fill="#FFFFFF">
                    <path d="M15.5080511,16.966434 C15.1376681,16.966434 14.7678638,16.8252255 14.4848681,16.5428085 L0.463557447,2.52091915 C-0.101855319,1.95550638 -0.101855319,1.03996596 0.463557447,0.475131915 C1.02897021,-0.0897021277 1.94451064,-0.0902808511 2.50934468,0.475131915 L16.531234,14.4970213 C17.0966468,15.062434 17.0966468,15.9779745 16.531234,16.5428085 C16.2482383,16.8252255 15.878434,16.966434 15.5080511,16.966434 Z" id="Shape"></path>
                    <path d="M1.4861617,16.966434 C1.11577872,16.966434 0.745974468,16.8252255 0.462978723,16.5428085 C-0.102434043,15.9773957 -0.102434043,15.0618553 0.462978723,14.4970213 L14.4848681,0.475131915 C15.0502809,-0.0902808511 15.9658213,-0.0902808511 16.5306553,0.475131915 C17.0954894,1.04054468 17.0960681,1.95608511 16.5306553,2.52091915 L2.50934468,16.5428085 C2.22692766,16.8252255 1.85654468,16.966434 1.4861617,16.966434 Z" id="Shape"></path>
                </g>
            </g>
        </g>
    </g>
</svg>