<?xml version="1.0" encoding="UTF-8"?>
<svg width="105px" height="72px" viewBox="0 0 105 72" version="1.1" xmlns="http://www.w3.org/2000/svg" xmlns:xlink="http://www.w3.org/1999/xlink">
    <!-- Generator: Sketch 48.2 (47327) - http://www.bohemiancoding.com/sketch -->
    <title>Icons/Color/Phone</title>
    <desc>Created with Sketch.</desc>
    <defs></defs>
    <g id="KYC---ID-Verification---Step-2-Upload-Photos" stroke="none" stroke-width="1" fill="none" fill-rule="evenodd" transform="translate(-340.000000, -563.000000)">
        <g id="Group-17" transform="translate(330.000000, 563.000000)">
            <g id="Group-3">
                <g id="Icons/Color/ID-Picture" transform="translate(10.000000, 0.000000)">
                    <g id="ID" transform="translate(7.924528, 6.904110)" stroke-width="1">
                        <g id="Card">
                            <path d="M85.2646983,58.9477867 L3.73530169,58.9477867 C1.93414815,58.9477867 0.474162765,57.4960035 0.474162765,55.7049688 L0.474162765,3.81933113 C0.474162765,2.02829643 1.93414815,0.576513208 3.73530169,0.576513208 L85.2646983,0.576513208 C87.0658518,0.576513208 88.5258372,2.02829643 88.5258372,3.81933113 L88.5258372,55.7049688 C88.5258372,57.4958198 87.0656671,58.9477867 85.2646983,58.9477867 Z" id="Shape" fill="#EEEEEE" fill-rule="nonzero"></path>
                            <path d="M35.9255413,54.2500019 L6.57510626,54.2500019 C5.67462185,54.2500019 4.94444444,53.5239266 4.94444444,52.6285011 L4.94444444,10.4715008 C4.94444444,9.57607529 5.67462185,8.85 6.57510626,8.85 L35.925726,8.85 C36.8262104,8.85 37.5563878,9.57607529 37.5563878,10.4715008 L37.5563878,52.6286847 C37.5562031,53.5241103 36.8260257,54.2500019 35.9255413,54.2500019 Z" id="Shape" fill="#00BCD4" fill-rule="nonzero"></path>
                            <g id="Group" transform="translate(44.500000, 11.742791)" fill="#00BCD4" fill-rule="nonzero">
                                <path d="M27.7199579,3.42649494 L1.63066182,3.42649494 C0.730177409,3.42649494 -2.84217094e-14,2.70041966 -2.84217094e-14,1.80499415 C-2.84217094e-14,0.909568639 0.730177409,0.18349335 1.63066182,0.18349335 L27.7199579,0.18349335 C28.6204423,0.18349335 29.3506197,0.909568639 29.3506197,1.80499415 C29.3506197,2.70060333 28.6204423,3.42649494 27.7199579,3.42649494 Z" id="Shape"></path>
                                <path d="M35.8728976,9.91231446 L1.63066182,9.91231446 C0.730177409,9.91231446 -2.84217094e-14,9.18623917 -2.84217094e-14,8.29081366 C-2.84217094e-14,7.39538815 0.730177409,6.66931286 1.63066182,6.66931286 L35.8728976,6.66931286 C36.773382,6.66931286 37.5035594,7.39538815 37.5035594,8.29081366 C37.5033747,9.18623917 36.773382,9.91231446 35.8728976,9.91231446 Z" id="Shape"></path>
                            </g>
                            <path d="M49.3918007,36.2478776 L46.1306618,36.2478776 C45.2301774,36.2478776 44.5,35.5218024 44.5,34.6263769 C44.5,33.7309513 45.2301774,33.0048761 46.1306618,33.0048761 L49.3918007,33.0048761 C50.2922851,33.0048761 51.0224626,33.7309513 51.0224626,34.6263769 C51.0222778,35.5218024 50.2922851,36.2478776 49.3918007,36.2478776 Z" id="Shape" fill="#787489" fill-rule="nonzero"></path>
                            <path d="M75.4810968,36.2478776 L55.9140786,36.2478776 C55.0135942,36.2478776 54.2834168,35.5218024 54.2834168,34.6263769 C54.2834168,33.7309513 55.0135942,33.0048761 55.9140786,33.0048761 L75.4810968,33.0048761 C76.3815812,33.0048761 77.1117587,33.7309513 77.1117587,34.6263769 C77.1117587,35.5218024 76.3815812,36.2478776 75.4810968,36.2478776 Z" id="Shape" fill="#B3B3B3" fill-rule="nonzero"></path>
                            <path d="M49.3918007,42.7335135 L46.1306618,42.7335135 C45.2301774,42.7335135 44.5,42.0074382 44.5,41.1120127 C44.5,40.2165872 45.2301774,39.4905119 46.1306618,39.4905119 L49.3918007,39.4905119 C50.2922851,39.4905119 51.0224626,40.2165872 51.0224626,41.1120127 C51.0222778,42.0076219 50.2922851,42.7335135 49.3918007,42.7335135 Z" id="Shape" fill="#787489" fill-rule="nonzero"></path>
                            <path d="M80.3728976,42.7335135 L55.9140786,42.7335135 C55.0135942,42.7335135 54.2834168,42.0074382 54.2834168,41.1120127 C54.2834168,40.2165872 55.0135942,39.4905119 55.9140786,39.4905119 L80.3728976,39.4905119 C81.273382,39.4905119 82.0035594,40.2165872 82.0035594,41.1120127 C82.0033747,42.0076219 81.273382,42.7335135 80.3728976,42.7335135 Z" id="Shape" fill="#B3B3B3" fill-rule="nonzero"></path>
                            <path d="M49.3918007,49.2191493 L46.1306618,49.2191493 C45.2301774,49.2191493 44.5,48.493074 44.5,47.5976485 C44.5,46.702223 45.2301774,45.9761477 46.1306618,45.9761477 L49.3918007,45.9761477 C50.2922851,45.9761477 51.0224626,46.702223 51.0224626,47.5976485 C51.0222778,48.4932577 50.2922851,49.2191493 49.3918007,49.2191493 Z" id="Shape" fill="#787489" fill-rule="nonzero"></path>
                            <path d="M68.958819,49.2191493 L55.9140786,49.2191493 C55.0135942,49.2191493 54.2834168,48.493074 54.2834168,47.5976485 C54.2834168,46.702223 55.0135942,45.9761477 55.9140786,45.9761477 L68.958819,45.9761477 C69.8593034,45.9761477 70.5894808,46.702223 70.5894808,47.5976485 C70.5892961,48.4932577 69.8593034,49.2191493 68.958819,49.2191493 Z" id="Shape" fill="#B3B3B3" fill-rule="nonzero"></path>
                        </g>
                        <g id="Icons/Color/Man-Purple-Shirt" transform="translate(9.888889, 10.816667)">
                            <g id="man-(4)" transform="translate(0.017720, 0.000000)">
                                <g id="Group" fill-rule="nonzero">
                                    <path d="M23.6688361,40.9448325 L23.6688361,40.9469791 L0.123044704,40.9469791 L0.123044704,40.9448325 C0.123044704,39.6227435 0.342798228,38.3493822 0.751220298,37.1642461 C0.824399517,36.9502304 0.90427064,36.7383613 0.990833669,36.5286387 L0.990833669,36.5264921 C1.07523802,36.3167696 1.16827708,36.111555 1.26606524,35.9087016 C1.6544116,35.0942827 2.13838743,34.3328848 2.69985985,33.6354555 C2.84190093,33.4609372 2.98631655,33.2911414 3.13483367,33.1277853 C3.20801289,33.0438534 3.28572533,32.9622827 3.36343778,32.8804974 C3.44115022,32.8010733 3.51886267,32.7216492 3.59873379,32.6422251 C3.99593073,32.2470366 4.42205397,31.8851204 4.8704116,31.5519686 C5.09469835,31.386466 5.32092791,31.231911 5.55622392,31.0818639 C5.64062827,31.0288429 5.72481675,30.975822 5.81137978,30.9251623 C5.84915667,30.9030524 5.88909223,30.8809424 5.92686911,30.8588325 C6.04235844,30.790356 6.1576319,30.7242408 6.2752799,30.6602723 C6.27981313,30.6557644 6.28413049,30.6557644 6.28413049,30.6557644 C6.3795441,30.6048901 6.47279903,30.5497225 6.56605397,30.4924084 C6.84344422,30.3269058 7.10982521,30.1435864 7.36282239,29.940733 C8.17729199,29.2963246 8.85209505,28.4840524 9.33585501,27.5592984 C9.48912122,27.2658586 9.6244704,26.9612565 9.73758518,26.6478534 C10.0195087,25.8664921 10.1727749,25.0256702 10.1727749,24.1472827 L11.8882771,24.1560838 L11.8928103,24.1560838 L13.6527813,24.1650995 C13.6527813,25.0323246 13.8015143,25.8645602 14.07653,26.6369058 C14.1874861,26.9526702 14.3206766,27.2570576 14.4737269,27.550712 C14.9553282,28.4797592 15.6279726,29.2963246 16.4424422,29.9430942 C16.6021845,30.073178 16.7643012,30.1925288 16.9352686,30.3050105 C16.9529698,30.3183194 16.9685123,30.329267 16.9862135,30.3404293 C17.0660846,30.3934503 17.1459557,30.4464712 17.23036,30.4949843 C17.3214563,30.5501518 17.4147112,30.6053194 17.5077503,30.6559791 C17.5232928,30.6604869 17.5366766,30.6669267 17.5476859,30.6757277 C17.6519501,30.7332565 17.7564301,30.7927173 17.8583198,30.8545393 C17.9472573,30.905199 18.0359791,30.9582199 18.1247008,31.0133874 C18.2155812,31.068555 18.3066774,31.1258691 18.3953991,31.1898377 C18.5795344,31.3068272 18.7593524,31.4349791 18.9346371,31.5672094 C18.9346371,31.569356 18.9367958,31.569356 18.9367958,31.569356 L18.9391704,31.569356 C19.1632412,31.7348586 19.3808361,31.9115236 19.5938977,32.092267 C19.8069593,32.2732251 20.0111704,32.463199 20.2086895,32.6596126 C22.3481563,34.7785183 23.6688361,37.7049738 23.6688361,40.9448325 Z" id="Shape" fill="#F0BB8E"></path>
                                    <path d="M23.6688361,40.9448325 L0.123044704,40.9448325 C0.123044704,39.6227435 0.342798228,38.3493822 0.751220298,37.1642461 C0.824399517,36.9502304 0.90427064,36.7383613 0.990833669,36.5286387 L0.990833669,36.5264921 C1.07523802,36.3167696 1.16827708,36.111555 1.26606524,35.9087016 C1.6544116,35.0942827 2.13838743,34.3328848 2.69985985,33.6354555 C2.84190093,33.4609372 2.98631655,33.2911414 3.13483367,33.1277853 C3.20801289,33.0438534 3.28572533,32.9622827 3.36343778,32.8804974 C3.44115022,32.8010733 3.51886267,32.7216492 3.59873379,32.6422251 C3.99593073,32.2470366 4.42205397,31.8851204 4.8704116,31.5519686 C5.09469835,31.386466 5.32092791,31.231911 5.55622392,31.0818639 C5.64062827,31.0288429 5.72481675,30.975822 5.81137978,30.9251623 C5.84915667,30.9009058 5.88693355,30.8787958 5.92449456,30.8566859 C6.03998389,30.7882094 6.1576319,30.7220942 6.2752799,30.6581257 C6.27981313,30.6536178 6.28413049,30.6559791 6.28413049,30.6559791 L6.28413049,30.6538325 C6.3795441,30.6008115 6.47279903,30.5477906 6.56605397,30.4928377 C6.84344422,30.3249738 7.10982521,30.1397225 7.35828917,29.9366545 C7.36044785,29.938801 7.36044785,29.938801 7.36282239,29.9409476 C8.51253484,31.1106283 10.1127636,31.836822 11.8882771,31.8411152 L11.9059783,31.8411152 C13.6814917,31.8411152 15.2884124,31.1127749 16.4424422,29.9430942 L16.4446009,29.9409476 C16.6021845,30.0712461 16.7664599,30.1925288 16.9350528,30.3050105 C16.9527539,30.3183194 16.9682964,30.329267 16.9859976,30.3404293 C17.0658687,30.3934503 17.1478985,30.4441099 17.2301442,30.4949843 C17.3212404,30.5501518 17.4144954,30.6031728 17.5075344,30.6538325 C17.5230769,30.6583403 17.5340862,30.6671414 17.54747,30.6735812 C17.6517342,30.7311099 17.7583729,30.7905707 17.8604785,30.8523927 C17.9492002,30.9054136 18.0381377,30.9584346 18.1247008,31.0136021 C18.2155812,31.0687696 18.3066774,31.1260838 18.3953991,31.1900524 C18.5795344,31.3070419 18.7593524,31.4351937 18.9346371,31.5674241 L18.9391704,31.5674241 C19.1632412,31.7350733 19.3829948,31.9095916 19.5938977,32.0926963 C19.8069593,32.2736545 20.0111704,32.4636283 20.2086895,32.6600419 C22.3481563,34.7785183 23.6688361,37.7049738 23.6688361,40.9448325 Z" id="Shape" fill="#473B7B"></path>
                                    <path d="M17.8604785,30.8523927 L17.8583198,30.8545393 L17.6163319,31.099466 C16.0938155,32.6422251 14.0607716,33.4918482 11.8923786,33.4918482 C11.8902199,33.4918482 11.8902199,33.4918482 11.8878453,33.4918482 C9.69959243,33.4851937 7.67324043,32.6355707 6.15741603,31.0951728 L5.92665324,30.8590471 L5.92449456,30.8569005 C6.03998389,30.7884241 6.1576319,30.7223089 6.2752799,30.6583403 C6.27981313,30.6538325 6.28413049,30.6561937 6.28413049,30.6561937 L6.28413049,30.6540471 C6.3795441,30.6010262 6.47279903,30.5480052 6.56605397,30.4930524 C6.84344422,30.3251885 7.10982521,30.1399372 7.35828917,29.9368691 C7.36044785,29.9390157 7.36044785,29.9390157 7.36282239,29.9411623 C8.51253484,31.1108429 10.1127636,31.8370366 11.8882771,31.8413298 L11.9059783,31.8413298 C13.6814917,31.8413298 15.2884124,31.1129895 16.4424422,29.9433089 L16.4446009,29.9411623 C16.6021845,30.0714607 16.7664599,30.1927435 16.9350528,30.3052251 C16.9527539,30.318534 16.9682964,30.3294817 16.9859976,30.340644 C17.0658687,30.3936649 17.1478985,30.4443246 17.2301442,30.495199 C17.3212404,30.5503665 17.4144954,30.6033874 17.5075344,30.6540471 C17.5230769,30.658555 17.5340862,30.667356 17.54747,30.6737958 C17.6519501,30.7308953 17.7585888,30.7905707 17.8604785,30.8523927 Z" id="Shape" fill="#FFFFFF"></path>
                                    <g transform="translate(2.806283, 0.000000)">
                                        <path d="M18.125996,11.611801 L18.125996,16.9989005 C18.125996,17.0959267 18.1238373,17.1931675 18.1216786,17.2901937 C18.1195199,17.3651099 18.1171454,17.4402408 18.112828,17.5151571 C18.1106694,17.590288 18.1061361,17.6630576 18.0994442,17.7379738 C18.0972855,17.7886335 18.0927523,17.8395079 18.088435,17.8903822 C18.0862763,17.9212932 18.0841176,17.9498429 18.0795844,17.9807539 C18.075267,18.0359215 18.0707338,18.0932356 18.0618832,18.1484031 C18.05735,18.2014241 18.0530326,18.254445 18.044182,18.3072513 C18.0396488,18.3581257 18.0331728,18.4109319 18.0241063,18.4639529 C18.0042465,18.622801 17.9774789,18.7816492 17.9485526,18.9383508 C17.9286927,19.0443927 17.908617,19.1502199 17.8863826,19.2541152 C17.8842239,19.258623 17.8842239,19.2629162 17.8820652,19.2674241 C17.8799066,19.2828796 17.877532,19.2983351 17.8732147,19.3137906 C17.871056,19.3182984 17.871056,19.3225916 17.8686814,19.3270995 C17.8686814,19.3316073 17.8686814,19.3359005 17.8665228,19.3404084 C17.8619895,19.3625183 17.8576722,19.3846283 17.8509803,19.4065236 C17.8466629,19.4329267 17.839971,19.4595445 17.8332791,19.4859476 C17.8289617,19.514712 17.822054,19.5411152 17.8132034,19.567733 C17.8065115,19.607445 17.7955022,19.6471571 17.7864358,19.6868691 C17.7797439,19.7089791 17.7754265,19.7332356 17.7665759,19.7553455 C17.7620427,19.7753089 17.7555667,19.7950576 17.7510334,19.8128743 C17.704406,19.9938325 17.6510866,20.1702827 17.5956085,20.3469476 C17.5690568,20.4308796 17.5422892,20.5124503 17.5135787,20.5963822 C17.5112042,20.6051832 17.5068868,20.6139843 17.5045123,20.6227853 C17.4779605,20.6979162 17.4511929,20.7728325 17.4246412,20.8479634 C17.4157906,20.8700733 17.40694,20.8919686 17.3980894,20.9164398 C17.3713218,20.9870628 17.34477,21.0576859 17.3160596,21.1283089 C17.2828159,21.2143874 17.2471977,21.2983194 17.2117954,21.3822513 C17.1807104,21.4573822 17.1474668,21.5322984 17.1140072,21.6072147 C17.1096899,21.6205236 17.102998,21.6314712 17.0984648,21.6447801 C17.0606879,21.7242042 17.0252855,21.8036283 16.9875087,21.8809058 C16.9497318,21.9624764 16.9097962,22.0442618 16.867702,22.1260471 C16.7878308,22.2870419 16.7012678,22.4482513 16.6147048,22.6049529 L16.4948981,22.816822 C16.1529634,23.4017696 15.7734676,23.9512984 15.3607282,24.4587539 C15.3052501,24.5315236 15.2476134,24.6021466 15.1876021,24.670623 C15.1053564,24.7700105 15.0211679,24.8670366 14.9367636,24.9619162 C14.8612098,25.0458482 14.7858719,25.1295654 14.7081595,25.2113508 C14.4950979,25.4386754 14.277503,25.6550524 14.0555908,25.8581204 C14.011122,25.9023403 13.9647104,25.9420524 13.9178671,25.983911 C13.8423133,26.0523874 13.7669754,26.1185026 13.689263,26.1824712 C13.6292517,26.2354921 13.5672976,26.2861518 13.5049118,26.3370262 C13.3451696,26.4671099 13.1854273,26.5929005 13.0233105,26.7098901 C12.9566073,26.7607644 12.8879613,26.8092775 12.8190995,26.855644 C12.7081434,26.9350681 12.5948127,27.010199 12.4816979,27.0829686 C12.419528,27.1248272 12.3551994,27.1645393 12.2908707,27.2021047 C12.084501,27.3300419 11.8735981,27.4470314 11.6672284,27.550712 C11.6473685,27.5616597 11.6296673,27.5704607 11.6095916,27.5792618 C11.5541136,27.6080262 11.4986355,27.6344293 11.4431575,27.6610471 C11.3876794,27.6874503 11.3300427,27.7140681 11.2700314,27.7404712 C11.1968522,27.7735288 11.123673,27.8044398 11.0502779,27.8332042 C11.0213516,27.8462984 10.9924253,27.8574607 10.9637149,27.8662618 C10.8771518,27.901466 10.7882143,27.9347382 10.7018671,27.963288 C10.5930697,28.003 10.4821136,28.0360576 10.373532,28.0669686 C10.2979783,28.0890785 10.2204817,28.1088272 10.1449279,28.1264293 C10.1403947,28.1287906 10.1360773,28.1309372 10.1293854,28.1309372 C10.0538317,28.1485393 9.97849376,28.1661414 9.90293999,28.1794503 C9.88286428,28.1839581 9.86300443,28.1882513 9.84292872,28.1903979 C9.78075876,28.2013455 9.7185888,28.2125079 9.65641885,28.2191623 C9.56769714,28.2322565 9.47897543,28.2434188 9.39025373,28.2479267 C9.35916875,28.2524346 9.33024245,28.2545812 9.29937334,28.2545812 C9.2283528,28.2588743 9.15733226,28.2612356 9.0884704,28.2612356 L9.08177849,28.2612356 C9.01291663,28.2612356 8.94427064,28.259089 8.87540878,28.2545812 C8.84864116,28.2545812 8.82208941,28.2524346 8.79553766,28.2479267 C8.7333677,28.2455654 8.66903907,28.2391257 8.60233588,28.2303246 C8.58895207,28.2303246 8.57340959,28.228178 8.56024164,28.2258168 C8.47821184,28.2148691 8.39596617,28.2015602 8.31156182,28.1861047 C8.24054128,28.1751571 8.16952074,28.1597016 8.09634152,28.1420995 C7.71684575,28.0560209 7.32634072,27.9257225 6.93108659,27.7514188 C6.79789609,27.6917435 6.66254692,27.6301361 6.52935642,27.5592984 C6.32298671,27.4577644 6.116617,27.3429215 5.91240596,27.2171309 C5.74143858,27.1134503 5.5704712,27.0031152 5.40187837,26.8861257 C5.31747402,26.8264503 5.23328554,26.7669895 5.14888119,26.7051675 C4.88487475,26.5130471 4.62281112,26.3035393 4.36549658,26.0783613 C4.29447604,26.0143927 4.2234555,25.9504241 4.15243496,25.8840942 C4.08141442,25.8201257 4.01039388,25.7540105 3.94153202,25.6898272 C3.76840596,25.5243246 3.59981313,25.3521675 3.43553766,25.173356 C3.37120902,25.1048796 3.30688039,25.0344712 3.24233588,24.9614869 C3.06489247,24.7629267 2.89155054,24.557712 2.72749094,24.3434817 C2.6631623,24.2662042 2.60315103,24.1867801 2.54335562,24.107356 C2.31928474,23.8117696 2.10622312,23.5026597 1.90632944,23.1826021 C1.85301007,23.0965236 1.79990656,23.0080838 1.74874587,22.9222199 C1.68657592,22.8185393 1.62678051,22.7124974 1.56676923,22.6066702 C1.34485703,22.2093351 1.14064599,21.7967592 0.96298671,21.3706597 C0.936434958,21.3088377 0.909667338,21.2470157 0.887432944,21.1854084 C0.852030608,21.1059843 0.82094563,21.0244136 0.792019331,20.9447749 C0.747550544,20.8277853 0.705456303,20.7107958 0.665520741,20.5938063 C0.625585179,20.4768168 0.587808296,20.3576806 0.550031414,20.2385445 C0.51441321,20.1237016 0.481169553,20.0090733 0.450084575,19.8920838 C0.414682239,19.7684398 0.381438582,19.6426492 0.352512284,19.514712 C0.350353605,19.5014031 0.345820379,19.4880942 0.3436617,19.475 C0.301567459,19.2985497 0.263790576,19.1197382 0.230546919,18.9385654 C0.186078131,18.7002932 0.150675795,18.4575131 0.123908176,18.2125864 C0.112898913,18.1353089 0.106207008,18.0580314 0.0995151027,17.9807539 C0.0906645187,17.8991832 0.0839726138,17.8195445 0.0796552557,17.7379738 C0.0686459928,17.5900733 0.0619540878,17.4400262 0.0574208619,17.2899791 C0.0552621828,17.1927382 0.0528876359,17.095712 0.0528876359,16.9986859 L0.0528876359,11.611801 C0.0528876359,10.3781518 0.303726138,9.20181675 0.756401128,8.1313089 C0.767410391,8.10039791 0.780794201,8.07184817 0.79417801,8.04308377 C0.969678615,7.6393089 1.17367378,7.25077487 1.40681112,6.88005759 C1.44242932,6.82059686 1.47999033,6.76306806 1.51776722,6.70575393 C3.12900524,4.25154974 5.91456464,2.62936649 9.08156263,2.6272199 L9.09041321,2.6272199 C9.77860008,2.6272199 10.448654,2.70449738 11.0923721,2.84789005 C11.6806122,2.98033508 12.2464019,3.17009424 12.7834813,3.41072775 C13.5159211,3.73722513 14.1972002,4.15667016 14.8098333,4.65768586 C15.3246782,5.07691623 15.7931116,5.54916754 16.2013178,6.0701466 C16.36106,6.27321466 16.5119517,6.48272251 16.6542086,6.69909948 C16.6941442,6.75856021 16.7340797,6.8182356 16.7696979,6.88005759 C17.0004607,7.24862827 17.2068304,7.63501571 17.3821152,8.03879058 L17.4220507,8.13152356 C17.8658752,9.17992147 18.114555,10.3274921 18.1234056,11.5325916 C18.125996,11.5587801 18.125996,11.5851832 18.125996,11.611801 Z" id="Shape" fill="#F0BB8E"></path>
                                        <path d="M18.125996,16.9989005 C18.125996,17.0959267 18.1238373,17.1931675 18.1216786,17.2901937 C18.1195199,17.3651099 18.1171454,17.4402408 18.112828,17.5151571 C18.1106694,17.590288 18.1061361,17.6630576 18.0994442,17.7379738 C18.0972855,17.7886335 18.0927523,17.8395079 18.088435,17.8903822 C18.0862763,17.9212932 18.0841176,17.9498429 18.0795844,17.9807539 C18.075267,18.0359215 18.0707338,18.0932356 18.0618832,18.1484031 C18.05735,18.2014241 18.0508739,18.254445 18.044182,18.3072513 C18.0396488,18.3581257 18.0331728,18.4109319 18.0241063,18.4639529 C18.0042465,18.622801 17.9774789,18.7816492 17.9485526,18.9383508 C17.9308514,19.0310838 17.9131502,19.1216702 17.8930745,19.2120419 C17.8909158,19.2320052 17.8863826,19.2496073 17.8820652,19.2672094 C17.8799066,19.2826649 17.877532,19.2981204 17.8732147,19.3135759 C17.871056,19.3180838 17.871056,19.322377 17.8686814,19.3268848 C17.8686814,19.3313927 17.8686814,19.3356859 17.8665228,19.3401937 C17.8665228,19.3423403 17.8665228,19.3447016 17.8665228,19.3447016 C17.8619895,19.3689581 17.8555135,19.3932147 17.8509803,19.4153246 C17.8466629,19.4395812 17.839971,19.4638377 17.8332791,19.4859476 C17.8289617,19.514712 17.822054,19.5411152 17.8132034,19.567733 C17.8043528,19.6117382 17.7931277,19.6538115 17.7799597,19.6956702 C17.777801,19.7154188 17.7732678,19.7353822 17.7667918,19.7551309 C17.7622586,19.7750942 17.7557825,19.7948429 17.7512493,19.8126597 C17.7046218,19.9936178 17.6513025,20.1700681 17.5958244,20.346733 C17.5692727,20.4306649 17.542505,20.5122356 17.5137946,20.5961675 C17.5114201,20.6049686 17.5071027,20.6137696 17.5047282,20.6225707 C17.4781764,20.6977016 17.4514088,20.7726178 17.424857,20.8477487 C17.4160064,20.8698586 17.4071559,20.8917539 17.3983053,20.9162251 C17.3715377,20.9868482 17.3449859,21.0574712 17.3162755,21.1280942 C17.2830318,21.2141728 17.2474136,21.2981047 17.2120113,21.3820366 C17.1809263,21.4571675 17.1476826,21.5320838 17.1142231,21.607 C17.1099058,21.6203089 17.1032139,21.6312565 17.0986806,21.6445654 C17.0609037,21.7239895 17.0255014,21.8034136 16.9877245,21.8806911 C16.9499476,21.9622618 16.9100121,22.0440471 16.8679178,22.1258325 C16.7880467,22.2868272 16.7014837,22.4480366 16.6149207,22.6047382 L16.495114,22.8166073 C16.1531792,23.401555 15.7736834,23.9510838 15.360944,24.4585393 C15.305466,24.5313089 15.2478292,24.6019319 15.187818,24.6704084 C15.1055723,24.7697958 15.0213838,24.866822 14.9369795,24.9617016 C14.8614257,25.0456335 14.7860878,25.1293508 14.7083754,25.2111361 C14.4953137,25.4384607 14.2777189,25.6548377 14.0558067,25.8579058 C14.0113379,25.9021257 13.9649263,25.9418377 13.918083,25.9836963 C13.8425292,26.0521728 13.7671913,26.118288 13.6894789,26.1822565 C13.6294676,26.2352775 13.5675135,26.2859372 13.5051277,26.3368115 C13.3453854,26.4668953 13.1856432,26.5926859 13.0235264,26.7096754 C12.9568232,26.7605497 12.8881772,26.8090628 12.8193153,26.8554293 C12.7083592,26.9348534 12.5950286,27.0099843 12.4819138,27.0827539 C12.4197439,27.1246126 12.3554152,27.1643246 12.2910866,27.2018901 C12.0847169,27.3298272 11.8738139,27.4468168 11.6674442,27.5504974 C11.6475844,27.561445 11.6298832,27.5702461 11.6098075,27.5790471 C11.5543294,27.6078115 11.4988514,27.6342147 11.4433733,27.6608325 C11.3878953,27.6872356 11.3302586,27.7138534 11.2702473,27.7402565 C11.1970681,27.7733141 11.1238888,27.8042251 11.0504938,27.8329895 C11.0215675,27.8460838 10.9926412,27.8572461 10.9639307,27.8660471 C10.8773677,27.9012513 10.7884301,27.9345236 10.702083,27.9630733 C10.5932855,28.0027853 10.4823294,28.0358429 10.3737479,28.0667539 C10.2981941,28.0888639 10.2206975,28.1086126 10.1451438,28.1262147 C10.1406106,28.1285759 10.1362932,28.1307225 10.1296013,28.1307225 C10.0540475,28.1483246 9.97870963,28.1659267 9.90315586,28.1792356 C9.88308014,28.1837435 9.8632203,28.1880366 9.84314458,28.1901832 C9.78097463,28.2011309 9.71880467,28.2122932 9.65663472,28.2189476 C9.56791301,28.2320419 9.4791913,28.2432042 9.39046959,28.247712 C9.35938462,28.2522199 9.33045832,28.2543665 9.29958921,28.2543665 C9.22856867,28.2586597 9.15754813,28.2610209 9.08868627,28.2610209 L9.08199436,28.2610209 C9.0131325,28.2610209 8.94448651,28.2588743 8.87562465,28.2543665 C8.84885703,28.2543665 8.82230528,28.2522199 8.79575352,28.247712 C8.73358357,28.2453508 8.66925493,28.238911 8.60255175,28.2301099 C8.58916794,28.2301099 8.57362545,28.2279634 8.56045751,28.2256021 C8.47842771,28.2146545 8.39618204,28.2013455 8.31177769,28.1858901 C8.24075715,28.1749424 8.16973661,28.1594869 8.09655739,28.1418848 C7.71706162,28.0558063 7.32655658,27.9255079 6.93130246,27.7512042 C6.79811196,27.6915288 6.66276279,27.6299215 6.52957229,27.5590838 C6.32320258,27.4575497 6.11683286,27.3427068 5.91262183,27.2169162 C5.74165445,27.1153822 5.57306162,27.0050471 5.40209424,26.885911 C5.31768989,26.8262356 5.23350141,26.7667749 5.14909706,26.7049529 C4.88509062,26.5128325 4.62302698,26.3033246 4.36571244,26.0781466 C4.2946919,26.014178 4.22367137,25.9502094 4.15265083,25.8838796 C4.08163029,25.819911 4.01060975,25.7537958 3.94174789,25.6896126 C3.76862183,25.5241099 3.600029,25.3519529 3.43575352,25.1731414 C3.37142489,25.1046649 3.30709625,25.0342565 3.24255175,24.9612723 C3.06510834,24.762712 2.89176641,24.5574974 2.72770681,24.343267 C2.66337817,24.2659895 2.60336689,24.1865654 2.54357149,24.1071414 C2.3195006,23.811555 2.10643899,23.502445 1.90654531,23.1823874 C1.85322594,23.0963089 1.80012243,23.0078691 1.74896174,22.9220052 C1.68679178,22.8183246 1.62699638,22.7122827 1.5669851,22.6064555 C1.3450729,22.2091204 1.14086186,21.7965445 0.963202578,21.370445 C0.936650826,21.308623 0.909883206,21.246801 0.887648812,21.1851937 C0.852246476,21.1057696 0.821161498,21.024199 0.792235199,20.9445602 C0.747766412,20.8275707 0.705672171,20.7105812 0.665736609,20.5935916 C0.625801047,20.4766021 0.588024164,20.357466 0.550247282,20.2383298 C0.514629078,20.1234869 0.481385421,20.0088586 0.450300443,19.8918691 C0.414898107,19.7682251 0.38165445,19.6424346 0.352728151,19.5144974 C0.350569472,19.5011885 0.346036246,19.4878796 0.343877567,19.4747853 C0.301783327,19.2983351 0.264006444,19.1195236 0.230762787,18.9383508 C0.186293999,18.7000785 0.150891663,18.4572984 0.124124043,18.2123717 C0.113114781,18.1350942 0.106422876,18.0578168 0.0997309706,17.9805393 C0.0908803866,17.8989686 0.0841884817,17.8193298 0.0798711236,17.7377592 C0.0688618607,17.5898586 0.0621699557,17.4398115 0.0576367298,17.2897644 C0.0554780507,17.1925236 0.0531035038,17.0954974 0.0531035038,16.9984712 L1.49574869,19.8190995 L3.97477567,20.8939005 L6.90669352,21.156644 L6.90885219,21.156644 L9.08156263,21.3530576 L9.09494644,21.3530576 L11.1279903,21.536377 C11.130149,21.536377 11.130149,21.536377 11.130149,21.536377 L15.6644543,21.9425131 L18.125996,16.9989005 Z" id="Shape" fill="#E9EDF2"></path>
                                        <g transform="translate(0.000000, 14.167539)" fill="#E9EDF2" id="Shape">
                                            <path d="M9.09947966,4.24832984 L9.09732098,6.42218848 L9.09732098,6.42454974 L9.0951623,7.18594764 L9.0951623,7.78398953 L9.09300362,9.7702356 L9.09300362,9.7723822 L9.09084495,9.7702356 L9.08868627,9.7702356 L9.08652759,9.76808901 L9.08199436,9.76594241 L0.352944019,5.34760209 C0.35078534,5.33429319 0.346252114,5.32098429 0.344093435,5.30789005 C0.301999195,5.13143979 0.264222312,4.95262827 0.230978655,4.7714555 C0.186509867,4.53318325 0.151107531,4.29040314 0.124339911,4.04547644 C0.113330648,3.96819895 0.106638743,3.89092147 0.0999468385,3.81364398 C0.0910962545,3.7320733 0.0844043496,3.65243455 0.0800869915,3.57086387 C0.0690777286,3.42296335 0.0623858236,3.27291623 0.0578525977,3.12286911 C0.0556939186,3.02562827 0.0533193717,2.92860209 0.0533193717,2.83157592 L0.0533193717,0.194052356 C0.0533193717,0.231617801 0.0554780507,0.269183246 0.0554780507,0.306534031 C0.0554780507,0.332937173 0.0576367298,0.359554974 0.0600112767,0.385958115 C0.0820298027,1.00160209 0.184351188,1.67477487 0.372803866,2.36340314 C0.525854209,2.91507853 0.716897302,3.42489529 0.938809505,3.87975916 L0.938809505,3.88190576 C1.52035763,5.08464398 2.29920902,5.90120942 3.01632219,6.03365445 C3.06057511,6.0403089 3.10720258,6.04460209 3.15167137,6.04910995 C3.42906162,6.08002094 3.71983568,6.09762304 4.01946033,6.09762304 C5.15125574,6.09762304 6.15676843,5.19283246 6.78926138,4.82640838 C6.7937946,4.82426178 6.79811196,4.82190052 6.80264519,4.81975393 C6.83588884,4.79979058 6.86934837,4.78004188 6.8980588,4.76007853 C6.90690938,4.75342408 6.91575997,4.74913089 6.92461055,4.74462304 C7.45737253,4.44216754 8.22521466,4.25026178 9.08199436,4.24811518 L9.09947966,4.24811518 L9.09947966,4.24832984 Z"></path>
                                            <path d="M18.1288023,0.192979058 L18.1266436,2.83028796 C18.1266436,3.49229843 18.0644736,4.14121466 17.9492002,4.77016754 C17.9025727,5.02174869 17.8492533,5.27118325 17.7872992,5.51825654 L15.7387128,8.46016754 L9.09365123,9.76894764 L9.09149255,9.76894764 L9.08933387,9.77109424 L9.08933387,9.76894764 L9.08264197,4.24618325 L9.10034313,4.24618325 C9.95690697,4.24832984 10.7271236,4.44045026 11.2596698,4.7426911 C11.2685203,4.74719895 11.2752122,4.75149215 11.2840628,4.7581466 C11.3151478,4.77789529 11.3483915,4.79785864 11.3816351,4.81760733 C11.3837938,4.81996859 11.388327,4.82211518 11.3928602,4.82426178 C12.0275119,5.19068586 13.03065,6.09612042 14.1626613,6.09612042 C14.4622859,6.09612042 14.75306,6.07851832 15.0304503,6.04760733 C15.0770777,6.04309948 15.1213306,6.03880628 15.1679581,6.03215183 C15.8824809,5.89970681 16.6639227,5.08314136 17.2430963,3.88040314 L17.2430963,3.87825654 C17.4650085,3.42360733 17.6558357,2.91379058 17.8091019,2.36211518 C18.0087797,1.63377487 18.1132598,0.923036649 18.1264277,0.276481675 C18.1288023,0.248146597 18.1288023,0.221743455 18.1288023,0.192979058 Z"></path>
                                        </g>
                                        <ellipse id="Oval" fill="#ECC19C" cx="9.08954974" cy="21.2708429" rx="2.21372533" ry="1"></ellipse>
                                        <path d="M17.0052098,11.479356 C17.0052098,11.4417906 16.9784422,11.408733 16.9408812,11.4042251 C16.6235554,11.355712 15.194294,11.161445 13.6583939,11.161445 C11.916124,11.161445 9.66785985,11.7043194 9.27498027,11.7043194 L8.92656947,11.7043194 C8.74459283,11.7043194 8.15872735,11.5873298 7.40858639,11.4615393 C6.54748933,11.3157853 5.4709561,11.161445 4.54337173,11.161445 C3.41826822,11.161445 2.35296013,11.2674869 1.73795248,11.3402565 C1.51150705,11.3666597 1.34723157,11.3909162 1.26088441,11.4042251 C1.22310753,11.408733 1.19655578,11.4417906 1.19655578,11.479356 L1.17885461,12.4105497 C1.17885461,12.4436073 1.19871446,12.4723717 1.22764076,12.4856806 L1.3342795,12.5210995 C1.49186307,12.5807749 1.47847926,15.3878796 2.31971647,16.0898168 C2.81901893,16.5026073 3.26521788,16.738733 5.14046234,16.738733 C6.22584615,16.738733 6.90928393,16.4474398 7.55731937,15.5778534 C8.02337817,14.9531937 8.43849215,13.4767644 8.43849215,13.4767644 C8.55829883,12.8896702 8.98658075,12.823555 9.08199436,12.8147539 C9.08415304,12.8147539 9.08415304,12.8147539 9.08652759,12.8147539 L9.09321949,12.8147539 C9.09775272,12.8147539 9.0999114,12.8147539 9.0999114,12.8147539 C9.11545389,12.8147539 9.6305147,12.823555 9.76348933,13.4767644 C9.76348933,13.4767644 10.1786033,14.9531937 10.6446621,15.5778534 C11.2926975,16.4474398 11.9761353,16.738733 13.0615191,16.738733 C14.9369795,16.738733 15.3829625,16.5026073 15.882265,16.0898168 C16.7232863,15.3878796 16.7101184,12.5807749 16.867702,12.5210995 L16.9743407,12.4856806 C17.003267,12.4723717 17.0231269,12.443822 17.0231269,12.4105497 L17.0052098,11.479356 Z M7.5571035,14.8007853 C7.27971325,15.4497016 6.56950785,16.2860157 5.56636971,16.3368901 C2.55911398,16.4869372 2.42160612,15.6527696 2.2260298,14.9907592 C2.03066935,14.328534 1.97972453,13.7480942 2.05743697,13.0882304 C2.13514942,12.4262199 2.30374225,12.0376859 2.60574144,11.8436335 C2.73439871,11.757555 2.87643979,11.6802775 3.23823439,11.6251099 C3.56225211,11.5787435 4.06155457,11.5499791 4.8939412,11.5499791 C5.37770117,11.5499791 5.82843335,11.5875445 6.23232219,11.6515131 C7.30194764,11.8236702 8.02553685,12.1855864 8.02553685,12.5408482 C8.02532098,12.7857749 7.96336689,13.8408272 7.5571035,14.8007853 Z M15.9753041,14.9907592 C15.7799436,15.6527696 15.6424358,16.4871518 12.6349642,16.3368901 C11.631826,16.2862304 10.9194619,15.4497016 10.6442304,14.8007853 C10.237967,13.8408272 10.1760129,12.7857749 10.1760129,12.5408482 C10.1760129,12.0509948 11.545263,11.5499791 13.3076085,11.5499791 C15.0675795,11.5499791 15.349503,11.6802775 15.5958083,11.8436335 C15.8975916,12.0379005 16.0664003,12.4262199 16.1441128,13.0882304 C16.2216093,13.7480942 16.1706645,14.328534 15.9753041,14.9907592 Z" id="Shape" fill="#1A1A1A"></path>
                                        <g fill="#E9EDF2">
                                            <path d="M18.1460717,8.1291623 C18.1436971,8.1291623 18.1436971,8.1313089 18.1415385,8.1313089 L0.0533193717,8.1313089 C0.0533193717,1.7773822 4.35902054,2.0334712 9.08199436,2.5563822 C9.08415304,2.5563822 9.08415304,2.5563822 9.08652759,2.5563822 C9.42177044,2.59394764 9.7589561,2.63151309 10.0963576,2.66886387 C13.6296834,3.0595445 16.5059074,1.54104188 17.9463939,0.197057592 C19.9058268,1.58547644 20.2544535,6.71004712 18.1460717,8.1291623 Z" id="Shape"></path>
                                            <path d="M3.20477487,7.75608377 L3.15598872,7.90827749 C3.13159565,7.98319372 3.10720258,8.05832461 3.08043496,8.13109424 C3.05820056,8.19076963 3.03834072,8.25023037 3.01373178,8.30775916 C2.59883367,9.41132461 1.97065807,10.4221571 1.2004414,11.3269476 C0.659044704,11.9647016 0.11527346,12.9888429 0.0597954088,14.5534974 C0.0552621828,14.6438691 0.0531035038,14.7344555 0.0531035038,14.8293351 L0.0531035038,11.6115864 C0.0531035038,9.78869634 0.0531035038,8.13109424 0.0531035038,8.13109424 L0.794393878,8.04286911 L1.51798308,7.95679058 L2.37022956,7.85525654 L3.20477487,7.75608377 Z" id="Shape"></path>
                                            <path d="M18.1708965,8.13195288 L15.0203045,7.75801571 L15.0693065,7.90935079 C15.477081,9.17047644 16.1646202,10.3152565 17.0239903,11.3275916 C17.5975513,12.0033403 18.1711124,13.1096963 18.1711124,14.8314817 C18.1708965,12.472801 18.1708965,8.13195288 18.1708965,8.13195288 Z" id="Shape"></path>
                                            <ellipse id="Oval" cx="9.08156263" cy="7.75801571" rx="6.73291986" ry="1.26906806"></ellipse>
                                        </g>
                                    </g>
                                </g>
                            </g>
                        </g>
                    </g>
                    <path d="M0.0383820109,0 L0.0383820109,-0.00639700181 L17.7918067,-0.00639700181 L17.7918067,2.96530111 L2.97169811,2.96530111 L2.97169811,17.7534247 L0,17.7534247 L0,0 L0.0383820109,0 Z" id="Combined-Shape" fill="#34373B"></path>
                    <path d="M87.2081933,0 L87.2081933,-0.00639700181 L104.961618,-0.00639700181 L104.961618,2.96530111 L90.1415094,2.96530111 L90.1415094,17.7534247 L87.1698113,17.7534247 L87.1698113,0 L87.2081933,0 Z" id="Combined-Shape" fill="#34373B" transform="translate(96.084906, 8.876712) rotate(-270.000000) translate(-96.084906, -8.876712) "></path>
                    <path d="M87.2081933,54.2465753 L87.2081933,54.2401783 L104.961618,54.2401783 L104.961618,57.2118765 L90.1415094,57.2118765 L90.1415094,72 L87.1698113,72 L87.1698113,54.2465753 L87.2081933,54.2465753 Z" id="Combined-Shape" fill="#34373B" transform="translate(96.084906, 63.123288) rotate(-180.000000) translate(-96.084906, -63.123288) "></path>
                    <path d="M0.0383820109,54.2465753 L0.0383820109,54.2401783 L17.7918067,54.2401783 L17.7918067,57.2118765 L2.97169811,57.2118765 L2.97169811,72 L0,72 L0,54.2465753 L0.0383820109,54.2465753 Z" id="Combined-Shape" fill="#34373B" transform="translate(8.915094, 63.123288) rotate(-450.000000) translate(-8.915094, -63.123288) "></path>
                </g>
            </g>
        </g>
    </g>
</svg>