<?xml version="1.0" encoding="UTF-8"?>
<svg width="48px" height="48px" viewBox="0 0 48 48" version="1.1" xmlns="http://www.w3.org/2000/svg" xmlns:xlink="http://www.w3.org/1999/xlink">
    <!-- Generator: Sketch 48.2 (47327) - http://www.bohemiancoding.com/sketch -->
    <title>Group</title>
    <desc>Created with Sketch.</desc>
    <defs></defs>
    <g id="KYC---ID-Verification---Step-2-Live-Verification" stroke="none" stroke-width="1" fill="none" fill-rule="evenodd" transform="translate(-218.000000, -298.000000)">
        <g id="Group-12" transform="translate(192.000000, 298.000000)">
            <g id="Group-7">
                <g id="Group-6">
                    <g id="Group" transform="translate(26.000000, 0.000000)">
                        <circle id="Oval" fill="#F4F5F7" fill-rule="nonzero" cx="24" cy="24" r="24"></circle>
                        <circle id="Oval" fill="#FFFFFF" fill-rule="nonzero" cx="24" cy="24" r="21.4285714"></circle>
                        <g id="ic_list_black_24px" transform="translate(9.428571, 11.142857)" opacity="0.6">
                            <g id="Group-3">
                                <path d="M16.2857143,8.14285714 L17.5714286,8.14285714 L17.5714286,6.85714286 L16.2857143,6.85714286 L16.2857143,8.14285714 Z M16.2857143,10.7142857 L17.5714286,10.7142857 L17.5714286,9.42857143 L16.2857143,9.42857143 L16.2857143,10.7142857 Z M16.2857143,5.57142857 L17.5714286,5.57142857 L17.5714286,4.28571429 L16.2857143,4.28571429 L16.2857143,5.57142857 Z M18.8571429,8.14285714 L27.8571429,8.14285714 L27.8571429,6.85714286 L18.8571429,6.85714286 L18.8571429,8.14285714 Z M18.8571429,10.7142857 L27.8571429,10.7142857 L27.8571429,9.42857143 L18.8571429,9.42857143 L18.8571429,10.7142857 Z M18.8571429,4.28571429 L18.8571429,5.57142857 L27.8571429,5.57142857 L27.8571429,4.28571429 L18.8571429,4.28571429 Z" id="Shape" fill="#473B7B" fill-rule="nonzero"></path>
                                <g id="Group-2">
                                    <g id="Icons/Color/Man-Purple-Shirt">
                                        <g id="man-(4)" transform="translate(0.011075, 0.000000)">
                                            <g id="Group" fill-rule="nonzero">
                                                <path d="M14.7930226,26.9636702 L14.7930226,26.9650838 L0.07690294,26.9650838 L0.07690294,26.9636702 C0.07690294,26.0930262 0.214248892,25.2544712 0.469512686,24.4740157 C0.515249698,24.3330785 0.56516915,24.193555 0.619271043,24.055445 L0.619271043,24.0540314 C0.672023762,23.9159215 0.730173178,23.7807801 0.791290777,23.6471937 C1.03400725,23.1108691 1.33649215,22.6094607 1.6874124,22.150178 C1.77618808,22.0352513 1.86644785,21.9234346 1.95927104,21.8158586 C2.00500805,21.7605864 2.05357833,21.7068691 2.10214861,21.6530105 C2.15071889,21.6007068 2.19928917,21.5484031 2.24920862,21.4960995 C2.49745671,21.2358534 2.76378373,20.9975183 3.04400725,20.7781257 C3.18418647,20.6691361 3.32557994,20.567356 3.47263995,20.4685445 C3.52539267,20.4336283 3.57801047,20.398712 3.63211236,20.3653508 C3.65572292,20.3507906 3.68068264,20.3362304 3.70429319,20.3216702 C3.77647402,20.2765759 3.84851994,20.2330366 3.92204994,20.190911 C3.92488321,20.1879424 3.92758155,20.1879424 3.92758155,20.1879424 C3.98721506,20.1544398 4.0454994,20.1181099 4.10378373,20.0803665 C4.27715264,19.971377 4.44364076,19.8506545 4.601764,19.7170681 C5.11080749,19.2927016 5.5325594,18.7577906 5.83490938,18.1488063 C5.93070077,17.9555654 6.015294,17.7549738 6.08599074,17.5485864 C6.26219291,17.0340314 6.35798429,16.4803194 6.35798429,15.9018691 L7.43017318,15.9076649 L7.43300644,15.9076649 L8.53298832,15.9136021 C8.53298832,16.4847016 8.62594644,17.0327592 8.79783125,17.541377 C8.86717882,17.7493194 8.95042288,17.9497696 9.04607934,18.1431518 C9.34708014,18.7549634 9.76748288,19.2927016 10.2765264,19.718623 C10.3763653,19.804288 10.4776883,19.8828848 10.5845429,19.9569581 C10.5956061,19.9657225 10.6053202,19.9729319 10.6163834,19.9802827 C10.6663029,20.015199 10.7162223,20.0501152 10.768975,20.0820628 C10.8259102,20.1183927 10.8841945,20.1547225 10.9423439,20.1880838 C10.952058,20.1910524 10.9604229,20.1952932 10.9673037,20.201089 C11.0324688,20.2389738 11.0977688,20.2781309 11.1614499,20.3188429 C11.2170358,20.3522042 11.2724869,20.3871204 11.327938,20.4234503 C11.3847382,20.4597801 11.4416734,20.4975236 11.4971244,20.5396492 C11.612209,20.6166911 11.7245952,20.7010838 11.8341482,20.7881623 C11.8341482,20.7895759 11.8354974,20.7895759 11.8354974,20.7895759 L11.8369815,20.7895759 C11.9770258,20.8985654 12.1130226,21.0149058 12.2461861,21.1339319 C12.3793496,21.2530995 12.5069815,21.3782042 12.6304309,21.5075497 C13.9675977,22.9029267 14.7930226,24.8301047 14.7930226,26.9636702 Z" id="Shape" fill="#F0BB8E"></path>
                                                <path d="M14.7930226,26.9636702 L0.07690294,26.9636702 C0.07690294,26.0930262 0.214248892,25.2544712 0.469512686,24.4740157 C0.515249698,24.3330785 0.56516915,24.193555 0.619271043,24.055445 L0.619271043,24.0540314 C0.672023762,23.9159215 0.730173178,23.7807801 0.791290777,23.6471937 C1.03400725,23.1108691 1.33649215,22.6094607 1.6874124,22.150178 C1.77618808,22.0352513 1.86644785,21.9234346 1.95927104,21.8158586 C2.00500805,21.7605864 2.05357833,21.7068691 2.10214861,21.6530105 C2.15071889,21.6007068 2.19928917,21.5484031 2.24920862,21.4960995 C2.49745671,21.2358534 2.76378373,20.9975183 3.04400725,20.7781257 C3.18418647,20.6691361 3.32557994,20.567356 3.47263995,20.4685445 C3.52539267,20.4336283 3.57801047,20.398712 3.63211236,20.3653508 C3.65572292,20.349377 3.67933347,20.3348168 3.7028091,20.3202565 C3.77498993,20.2751623 3.84851994,20.231623 3.92204994,20.1894974 C3.92488321,20.1865288 3.92758155,20.1880838 3.92758155,20.1880838 L3.92758155,20.1866702 C3.98721506,20.1517539 4.0454994,20.1168377 4.10378373,20.0806492 C4.27715264,19.9701047 4.44364076,19.8481099 4.59893073,19.7143822 C4.6002799,19.7157958 4.6002799,19.7157958 4.601764,19.7172094 C5.32033427,20.4874869 6.32047725,20.965712 7.43017318,20.9685393 L7.44123641,20.9685393 C8.55093234,20.9685393 9.55525775,20.4889005 10.2765264,19.718623 L10.2778756,19.7172094 C10.3763653,19.8030157 10.4790375,19.8828848 10.584408,19.9569581 C10.5954712,19.9657225 10.6051853,19.9729319 10.6162485,19.9802827 C10.6661679,20.015199 10.7174366,20.0485602 10.7688401,20.0820628 C10.8257753,20.1183927 10.8840596,20.1533089 10.942209,20.1866702 C10.9519231,20.1896387 10.9588039,20.1954346 10.9671687,20.1996754 C11.0323339,20.2375602 11.0989831,20.2767173 11.162799,20.3174293 C11.2182501,20.3523455 11.2738361,20.3872618 11.327938,20.4235916 C11.3847382,20.4599215 11.4416734,20.4976649 11.4971244,20.5397906 C11.612209,20.6168325 11.7245952,20.7012251 11.8341482,20.7883037 L11.8369815,20.7883037 C11.9770258,20.8987068 12.1143717,21.0136335 12.2461861,21.1342147 C12.3793496,21.2533822 12.5069815,21.3784869 12.6304309,21.5078325 C13.9675977,22.9029267 14.7930226,24.8301047 14.7930226,26.9636702 Z" id="Shape" fill="#473B7B"></path>
                                                <path d="M11.162799,20.3174293 L11.1614499,20.3188429 L11.0102074,20.4801361 C10.0586347,21.4960995 8.78798228,22.0556073 7.43273661,22.0556073 C7.43138743,22.0556073 7.43138743,22.0556073 7.42990334,22.0556073 C6.06224527,22.0512251 4.79577527,21.4917173 3.84838502,20.4773089 L3.70415828,20.3218115 L3.7028091,20.3203979 C3.77498993,20.2753037 3.84851994,20.2317644 3.92204994,20.1896387 C3.92488321,20.1866702 3.92758155,20.1882251 3.92758155,20.1882251 L3.92758155,20.1868115 C3.98721506,20.1518953 4.0454994,20.1169791 4.10378373,20.0807906 C4.27715264,19.9702461 4.44364076,19.8482513 4.59893073,19.7145236 C4.6002799,19.7159372 4.6002799,19.7159372 4.601764,19.7173508 C5.32033427,20.4876283 6.32047725,20.9658534 7.43017318,20.9686806 L7.44123641,20.9686806 C8.55093234,20.9686806 9.55525775,20.4890419 10.2765264,19.7187644 L10.2778756,19.7173508 C10.3763653,19.8031571 10.4790375,19.8830262 10.584408,19.9570995 C10.5954712,19.9658639 10.6051853,19.9730733 10.6162485,19.9804241 C10.6661679,20.0153403 10.7174366,20.0487016 10.7688401,20.0822042 C10.8257753,20.118534 10.8840596,20.1534503 10.942209,20.1868115 C10.9519231,20.1897801 10.9588039,20.1955759 10.9671687,20.1998168 C11.0324688,20.2374188 11.099118,20.2767173 11.162799,20.3174293 Z" id="Shape" fill="#FFFFFF"></path>
                                                <g transform="translate(1.753927, 0.000000)">
                                                    <path d="M11.3287475,7.64679581 L11.3287475,11.1943979 C11.3287475,11.2582932 11.3273983,11.3223298 11.3260491,11.3862251 C11.3247,11.4355602 11.3232159,11.4850366 11.3205175,11.5343717 C11.3191683,11.5838482 11.3163351,11.6317696 11.3121526,11.6811047 C11.3108035,11.714466 11.3079702,11.7479686 11.3052718,11.7814712 C11.3039227,11.8018272 11.3025735,11.8206283 11.2997402,11.8409843 C11.2970419,11.8773141 11.2942086,11.9150576 11.288677,11.9513874 C11.2858437,11.9863037 11.2831454,12.0212199 11.2776138,12.0559948 C11.2747805,12.0894974 11.270733,12.1242723 11.2650665,12.1591885 C11.252654,12.2637958 11.2359243,12.3684031 11.2178453,12.4715969 C11.2054329,12.5414293 11.1928856,12.6111204 11.1789891,12.6795393 C11.17764,12.6825079 11.17764,12.6853351 11.1762908,12.6883037 C11.1749416,12.6984817 11.1734575,12.7086597 11.1707592,12.7188377 C11.16941,12.7218063 11.16941,12.7246335 11.1679259,12.7276021 C11.1679259,12.7305707 11.1679259,12.7333979 11.1665767,12.7363665 C11.1637435,12.7509267 11.1610451,12.7654869 11.1568627,12.7799058 C11.1541643,12.7972932 11.1499819,12.814822 11.1457994,12.8322094 C11.1431011,12.8511518 11.1387837,12.8685393 11.1332521,12.8860681 C11.1290697,12.9122199 11.1221889,12.9383717 11.1165224,12.9645236 C11.1123399,12.9790838 11.1096416,12.9950576 11.1041099,13.0096178 C11.1012767,13.0227644 11.0972292,13.0357696 11.0943959,13.0475026 C11.0652537,13.1666702 11.0319291,13.2828691 10.9972553,13.3992094 C10.9806605,13.4544817 10.9639307,13.508199 10.9459867,13.5634712 C10.9445026,13.569267 10.9418043,13.5750628 10.9403202,13.5808586 C10.9237253,13.6303351 10.9069956,13.6796702 10.8904007,13.7291466 C10.8848691,13.7437068 10.8793375,13.7581257 10.8738059,13.7742408 C10.8570761,13.8207487 10.8404813,13.8672565 10.8225373,13.9137644 C10.80176,13.9704503 10.7794986,14.0257225 10.7573721,14.0809948 C10.737944,14.1304712 10.7171667,14.1798063 10.6962545,14.2291414 C10.6935562,14.2379058 10.6893737,14.2451152 10.6865405,14.2538796 C10.6629299,14.3061832 10.6408035,14.3584869 10.6171929,14.409377 C10.5935824,14.4630942 10.5686226,14.5169529 10.5423137,14.5708115 C10.4923943,14.6768325 10.4382924,14.7829948 10.3841905,14.8861885 L10.3093113,15.025712 C10.0956021,15.4109215 9.85841724,15.7728063 9.60045509,16.1069843 C9.56578131,16.1549058 9.52975836,16.2014136 9.49225131,16.2465079 C9.44084776,16.3119581 9.38822996,16.3758534 9.33547725,16.4383351 C9.28825614,16.4936073 9.24116996,16.5487382 9.19259968,16.6025969 C9.05943617,16.7522984 8.92343939,16.8947906 8.78474426,17.0285183 C8.75695127,17.0576387 8.72794402,17.0837906 8.69866694,17.111356 C8.65144583,17.1564503 8.60435965,17.1999895 8.55578937,17.2421152 C8.51828232,17.2770314 8.47956101,17.3103927 8.44056988,17.3438953 C8.34073097,17.4295602 8.24089207,17.5123979 8.13956907,17.5894398 C8.09787958,17.6229424 8.05497584,17.6548901 8.01193717,17.6854241 C7.94258961,17.7377277 7.87175795,17.7872042 7.80106122,17.8351257 C7.76220499,17.8626911 7.7219996,17.8888429 7.6817942,17.9135812 C7.55281313,17.9978325 7.42099879,18.0748743 7.29201772,18.1431518 C7.27960532,18.1503613 7.26854209,18.1561571 7.25599476,18.1619529 C7.22132098,18.1808953 7.1866472,18.1982827 7.15197342,18.2158115 C7.11729964,18.233199 7.08127668,18.2507277 7.04376963,18.2681152 C6.99803262,18.2898848 6.95229561,18.3102408 6.90642368,18.3291832 C6.88834474,18.3378063 6.87026581,18.3451571 6.85232179,18.3509529 C6.7982199,18.3741361 6.74263391,18.3960471 6.68866694,18.4148482 C6.62066855,18.441 6.55132098,18.4627696 6.48345751,18.4831257 C6.43623641,18.4976859 6.38780105,18.5106911 6.34057994,18.5222827 C6.33774668,18.5238377 6.33504833,18.5252513 6.33086589,18.5252513 C6.28364478,18.5368429 6.2365586,18.5484346 6.18933749,18.557199 C6.17679017,18.5601675 6.16437777,18.5629948 6.15183045,18.5644084 C6.11297422,18.5716178 6.074118,18.5789686 6.03526178,18.5833508 C5.97981071,18.5919738 5.92435965,18.5993246 5.86890858,18.6022932 C5.84948047,18.6052618 5.83140153,18.6066754 5.81210834,18.6066754 C5.7677205,18.6095026 5.72333266,18.6110576 5.680294,18.6110576 L5.67611156,18.6110576 C5.6330729,18.6110576 5.59016915,18.609644 5.54713049,18.6066754 C5.53040072,18.6066754 5.51380588,18.6052618 5.49721104,18.6022932 C5.45835481,18.6007382 5.41814942,18.5964974 5.37645993,18.5907016 C5.36809505,18.5907016 5.35838099,18.589288 5.35015103,18.587733 C5.2988824,18.5805236 5.24747886,18.5717592 5.19472614,18.5615812 C5.1503383,18.5543717 5.10595046,18.5441937 5.06021345,18.5326021 C4.82302859,18.4759162 4.57896295,18.3901099 4.33192912,18.2753246 C4.24868506,18.2360262 4.16409182,18.1954555 4.08084776,18.1488063 C3.95186669,18.0819424 3.82288562,18.0063141 3.69525373,17.9234764 C3.58839911,17.855199 3.4815445,17.7825393 3.37617398,17.7054974 C3.32342126,17.666199 3.27080346,17.6270419 3.21805075,17.5863298 C3.05304672,17.4598115 2.88925695,17.3218429 2.72843536,17.173555 C2.68404752,17.1314293 2.63965969,17.0893037 2.59527185,17.045623 C2.55088401,17.0034974 2.50649617,16.9599581 2.46345751,16.9176911 C2.35525373,16.8087016 2.24988321,16.6953298 2.14721104,16.5775759 C2.10700564,16.5324817 2.06680024,16.4861152 2.02645993,16.4380524 C1.91555779,16.3072932 1.80721909,16.1721518 1.70468184,16.0310733 C1.66447644,15.9801832 1.62696939,15.9278796 1.58959726,15.8755759 C1.44955296,15.6809215 1.31638945,15.4773613 1.1914559,15.2665916 C1.15813129,15.2099058 1.1249416,15.1516649 1.09296617,15.0951204 C1.05410995,15.0268429 1.01673782,14.9570105 0.979230769,14.8873194 C0.840535642,14.6256597 0.712903745,14.3539634 0.601866694,14.0733613 C0.585271849,14.0326492 0.568542086,13.9919372 0.55464559,13.9513665 C0.53251913,13.8990628 0.513091019,13.8453455 0.495012082,13.7929005 C0.46721909,13.7158586 0.440910189,13.6388168 0.415950463,13.5617749 C0.390990737,13.484733 0.367380185,13.4062775 0.343769634,13.327822 C0.321508256,13.2521937 0.300730971,13.1767068 0.281302859,13.0996649 C0.2591764,13.0182408 0.238399114,12.9354031 0.220320177,12.8511518 C0.218971003,12.8423874 0.216137737,12.833623 0.214788562,12.825 C0.188479662,12.708801 0.16486911,12.5910471 0.144091824,12.4717382 C0.116298832,12.3148272 0.0941723721,12.1549476 0.0774426097,11.9936545 C0.0705618204,11.9427644 0.0663793798,11.8918743 0.0621969392,11.8409843 C0.0566653242,11.787267 0.0524828836,11.734822 0.0497845348,11.6811047 C0.0429037455,11.5837068 0.0387213049,11.4848953 0.0358880387,11.3860838 C0.0345388643,11.3220471 0.0330547725,11.2581518 0.0330547725,11.1942565 L0.0330547725,7.64679581 C0.0330547725,6.83439267 0.189828836,6.05973298 0.472750705,5.3547644 C0.479631494,5.33440838 0.487996375,5.31560733 0.496361257,5.29666492 C0.606049134,5.0307644 0.733546114,4.77490052 0.879256947,4.53076963 C0.901518325,4.49161257 0.924993959,4.45372775 0.948604511,4.41598429 C1.95562827,2.79980105 3.6966029,1.73153403 5.67597664,1.73012042 L5.68150826,1.73012042 C6.11162505,1.73012042 6.53040878,1.78101047 6.93273258,1.87543979 C7.3003826,1.96265969 7.65400121,2.08762304 7.9896758,2.24608901 C8.44745066,2.46109948 8.8732501,2.73731937 9.25614579,3.06725654 C9.57792388,3.34333508 9.87069472,3.65432984 10.1258236,3.99741361 C10.2256625,4.13114136 10.3199698,4.26910995 10.4088804,4.41160209 C10.4338401,4.45075916 10.4587998,4.49005759 10.4810612,4.53076963 C10.625288,4.77348691 10.754269,5.02793717 10.863822,5.2938377 L10.8887817,5.35490576 C11.166172,6.04531414 11.3215969,6.80103141 11.3271285,7.59463351 C11.3287475,7.61187958 11.3287475,7.62926702 11.3287475,7.64679581 Z" id="Shape" fill="#F0BB8E"></path>
                                                    <path d="M11.3287475,11.1943979 C11.3287475,11.2582932 11.3273983,11.3223298 11.3260491,11.3862251 C11.3247,11.4355602 11.3232159,11.4850366 11.3205175,11.5343717 C11.3191683,11.5838482 11.3163351,11.6317696 11.3121526,11.6811047 C11.3108035,11.714466 11.3079702,11.7479686 11.3052718,11.7814712 C11.3039227,11.8018272 11.3025735,11.8206283 11.2997402,11.8409843 C11.2970419,11.8773141 11.2942086,11.9150576 11.288677,11.9513874 C11.2858437,11.9863037 11.2817962,12.0212199 11.2776138,12.0559948 C11.2747805,12.0894974 11.270733,12.1242723 11.2650665,12.1591885 C11.252654,12.2637958 11.2359243,12.3684031 11.2178453,12.4715969 C11.2067821,12.5326649 11.1957189,12.5923194 11.1831716,12.6518325 C11.1818224,12.6649791 11.1789891,12.6765707 11.1762908,12.6881623 C11.1749416,12.6983403 11.1734575,12.7085183 11.1707592,12.7186963 C11.16941,12.7216649 11.16941,12.7244921 11.1679259,12.7274607 C11.1679259,12.7304293 11.1679259,12.7332565 11.1665767,12.7362251 C11.1665767,12.7376387 11.1665767,12.7391937 11.1665767,12.7391937 C11.1637435,12.7551675 11.1596959,12.7711414 11.1568627,12.7857016 C11.1541643,12.8016754 11.1499819,12.8176492 11.1457994,12.8322094 C11.1431011,12.8511518 11.1387837,12.8685393 11.1332521,12.8860681 C11.1277205,12.9150471 11.1207048,12.9427539 11.1124748,12.9703194 C11.1111257,12.9833246 11.1082924,12.9964712 11.1042449,13.0094764 C11.1014116,13.022623 11.0973641,13.0356283 11.0945308,13.0473613 C11.0653886,13.1665288 11.032064,13.2827277 10.9973903,13.3990681 C10.9807954,13.4543403 10.9640656,13.5080576 10.9461216,13.5633298 C10.9446375,13.5691257 10.9419392,13.5749215 10.9404551,13.5807173 C10.9238602,13.6301937 10.9071305,13.6795288 10.8905356,13.7290052 C10.885004,13.7435654 10.8794724,13.7579843 10.8739408,13.7740995 C10.857211,13.8206073 10.8406162,13.8671152 10.8226722,13.913623 C10.8018949,13.9703089 10.7796335,14.0255812 10.757507,14.0808534 C10.7380789,14.1303298 10.7173017,14.1796649 10.6963894,14.229 C10.6936911,14.2377644 10.6895087,14.2449738 10.6866754,14.2537382 C10.6630648,14.3060419 10.6409384,14.3583455 10.6173278,14.4092356 C10.5937173,14.4629529 10.5687576,14.5168115 10.5424487,14.5706702 C10.4925292,14.6766911 10.4384273,14.7828534 10.3843254,14.8860471 L10.3094462,15.0255707 C10.095737,15.4107801 9.85855215,15.7726649 9.60059001,16.1068429 C9.56591623,16.1547644 9.52989327,16.2012723 9.49238623,16.2463665 C9.44098268,16.3118168 9.38836488,16.375712 9.33561216,16.4381937 C9.28839106,16.493466 9.24130487,16.5485969 9.1927346,16.6024555 C9.05957108,16.7521571 8.92357431,16.8946492 8.78487918,17.028377 C8.75708619,17.0574974 8.72807894,17.0836492 8.69880185,17.1112147 C8.65158075,17.1563089 8.60449456,17.1998482 8.55592429,17.2419738 C8.51841724,17.2768901 8.47969593,17.3102513 8.44070479,17.3437539 C8.34086589,17.4294188 8.24102698,17.5122565 8.13970399,17.5892984 C8.0980145,17.622801 8.05511075,17.6547487 8.01207209,17.6852827 C7.94272453,17.7375864 7.87189287,17.7870628 7.80119613,17.8349843 C7.76233991,17.8625497 7.72213451,17.8887016 7.68192912,17.9134398 C7.55294805,17.9976911 7.42113371,18.074733 7.29215264,18.1430105 C7.27974023,18.1502199 7.268677,18.1560157 7.25612968,18.1618115 C7.2214559,18.1807539 7.18678212,18.1981414 7.15210834,18.2156702 C7.11743455,18.2330576 7.0814116,18.2505864 7.04390455,18.2679738 C6.99816754,18.2897435 6.95243053,18.3100995 6.9065586,18.3290419 C6.88847966,18.3376649 6.87040072,18.3450157 6.85245671,18.3508115 C6.79835481,18.3739948 6.74276883,18.3959058 6.68880185,18.4147068 C6.62080346,18.4408586 6.5514559,18.4626283 6.48359243,18.4829843 C6.43637133,18.4975445 6.38793596,18.5105497 6.34071486,18.5221414 C6.33788159,18.5236963 6.33518325,18.5251099 6.33100081,18.5251099 C6.2837797,18.5367016 6.23669352,18.5482932 6.18947241,18.5570576 C6.17692509,18.5600262 6.16451269,18.5628534 6.15196536,18.564267 C6.11310914,18.5714764 6.07425292,18.5788272 6.0353967,18.5832094 C5.97994563,18.5918325 5.92449456,18.5991832 5.8690435,18.6021518 C5.84961538,18.6051204 5.83153645,18.606534 5.81224325,18.606534 C5.76785542,18.6093613 5.72346758,18.6109162 5.68042892,18.6109162 L5.67624648,18.6109162 C5.63320781,18.6109162 5.59030407,18.6095026 5.5472654,18.606534 C5.53053564,18.606534 5.5139408,18.6051204 5.49734595,18.6021518 C5.45848973,18.6005969 5.41828433,18.596356 5.37659484,18.5905602 C5.36822996,18.5905602 5.35851591,18.5891466 5.35028594,18.5875916 C5.29901732,18.5803822 5.24761377,18.5716178 5.19486106,18.5614398 C5.15047322,18.5542304 5.10608538,18.5440524 5.06034837,18.5324607 C4.82316351,18.4757749 4.57909787,18.3899686 4.33206404,18.2751832 C4.24881998,18.2358848 4.16422674,18.1953141 4.08098268,18.1486649 C3.95200161,18.081801 3.82302054,18.0061728 3.69538864,17.9233351 C3.58853403,17.8564712 3.48316351,17.7838115 3.3763089,17.705356 C3.32355618,17.6660576 3.27093838,17.6269005 3.21818566,17.5861885 C3.05318164,17.4596702 2.88939186,17.3217016 2.72857028,17.1734136 C2.68418244,17.131288 2.6397946,17.0891623 2.59540677,17.0454817 C2.55101893,17.003356 2.50663109,16.9598168 2.46359243,16.9175497 C2.35538864,16.8085602 2.25001812,16.6951885 2.14734595,16.5774346 C2.10714056,16.5323403 2.06693516,16.4859738 2.02659484,16.437911 C1.91569271,16.3071518 1.80735401,16.1720105 1.70481675,16.0309319 C1.66461136,15.9800419 1.62710431,15.9277382 1.58973218,15.8754346 C1.44968788,15.6807801 1.31652437,15.4772199 1.19159082,15.2664503 C1.15826621,15.2097644 1.12507652,15.1515236 1.09310109,15.0949791 C1.05424487,15.0267016 1.01687273,14.9568691 0.979365687,14.887178 C0.84067056,14.6255183 0.713038663,14.353822 0.602001611,14.0732199 C0.585406766,14.0325079 0.568677004,13.9917958 0.554780507,13.9512251 C0.532654048,13.8989215 0.513225936,13.8452042 0.495147,13.7927592 C0.467354007,13.7157173 0.441045107,13.6386754 0.416085381,13.5616335 C0.391125654,13.4845916 0.367515103,13.4061361 0.343904551,13.3276806 C0.321643174,13.2520524 0.300865888,13.1765654 0.281437777,13.0995236 C0.259311317,13.0180995 0.238534031,12.9352618 0.220455095,12.8510105 C0.21910592,12.8422461 0.216272654,12.8334817 0.21492348,12.8248586 C0.188614579,12.7086597 0.165004027,12.5909058 0.144226742,12.4715969 C0.116433749,12.3146859 0.0943072896,12.1548063 0.0775775272,11.9935131 C0.0706967378,11.942623 0.0665142972,11.891733 0.0623318566,11.8408429 C0.0568002416,11.7871257 0.052617801,11.7346806 0.0499194523,11.6809634 C0.0430386629,11.5835654 0.0388562223,11.4847539 0.0360229561,11.3859424 C0.0346737817,11.3219058 0.0331896899,11.2580105 0.0331896899,11.1941152 L0.934842932,13.0516021 L2.4842348,13.7593979 L4.31668345,13.9324241 L4.31803262,13.9324241 L5.67597664,14.0617696 L5.68434152,14.0617696 L6.95499396,14.1824921 C6.95634313,14.1824921 6.95634313,14.1824921 6.95634313,14.1824921 L9.79028393,14.4499476 L11.3287475,11.1943979 Z" id="Shape" fill="#E9EDF2"></path>
                                                    <g transform="translate(0.000000, 9.329843)" fill="#E9EDF2" id="Shape">
                                                        <path d="M5.68717479,2.79768063 L5.68582561,4.22924607 L5.68582561,4.23080105 L5.68447644,4.73220942 L5.68447644,5.12604188 L5.68312727,6.43405759 L5.68312727,6.4354712 L5.68177809,6.43405759 L5.68042892,6.43405759 L5.67907974,6.43264398 L5.67624648,6.43123037 L0.220590012,3.52159162 C0.219240838,3.51282723 0.216407571,3.50406283 0.215058397,3.49543979 C0.188749497,3.37924084 0.165138945,3.26148691 0.144361659,3.14217801 C0.116568667,2.98526702 0.094442207,2.82538743 0.0777124446,2.66409424 C0.0708316553,2.61320419 0.0666492147,2.56231414 0.0624667741,2.51142408 C0.0569351591,2.45770681 0.0527527185,2.40526178 0.0500543697,2.3515445 C0.0431735803,2.2541466 0.0389911398,2.15533508 0.0361578735,2.05652356 C0.0348086992,1.99248691 0.0333246073,1.92859162 0.0333246073,1.86469634 L0.0333246073,0.127790576 C0.0333246073,0.152528796 0.0346737817,0.177267016 0.0346737817,0.201863874 C0.0346737817,0.219251309 0.0360229561,0.236780105 0.0375070479,0.254167539 C0.0512686267,0.659591623 0.115219493,1.10290052 0.233002416,1.55638743 C0.32865888,1.91968586 0.448060814,2.25541885 0.58675594,2.55496335 L0.58675594,2.55637696 C0.95022352,3.34842408 1.43700564,3.8861623 1.88520137,3.9733822 C1.91285944,3.9777644 1.94200161,3.98059162 1.9697946,3.98356021 C2.14316351,4.00391623 2.3248973,4.01550785 2.51216271,4.01550785 C3.21953484,4.01550785 3.84798027,3.41967016 4.24328836,3.17836649 C4.24612163,3.17695288 4.24881998,3.17539791 4.25165324,3.17398429 C4.27243053,3.1608377 4.29334273,3.14783246 4.31128675,3.13468586 C4.31681836,3.13030366 4.32234998,3.12747644 4.32788159,3.12450785 C4.66085783,2.92532984 5.14075916,2.79895288 5.67624648,2.79753927 L5.68717479,2.79753927 L5.68717479,2.79768063 Z"></path>
                                                        <path d="M11.3305014,0.12708377 L11.3291522,1.86384817 C11.3291522,2.29980628 11.290296,2.72714136 11.2182501,3.14132984 C11.1891079,3.30700524 11.1557833,3.47126702 11.117062,3.63397382 L9.83669553,5.57132984 L5.68353202,6.43320942 L5.68218284,6.43320942 L5.68083367,6.43462304 L5.68083367,6.43320942 L5.67665123,2.79626702 L5.68771446,2.79626702 C6.22306685,2.79768063 6.70445228,2.92419895 7.0372936,3.1232356 C7.04282521,3.12620419 7.04700765,3.12903141 7.05253927,3.13341361 C7.07196738,3.14641885 7.09274466,3.15956545 7.11352195,3.17257068 C7.11487112,3.17412565 7.11770439,3.17553927 7.12053766,3.17695288 C7.51719493,3.41825654 8.14415626,4.01451832 8.85166331,4.01451832 C9.03892872,4.01451832 9.22066251,4.0029267 9.39403141,3.98257068 C9.42317358,3.97960209 9.45083166,3.97677487 9.47997382,3.97239267 C9.92655054,3.88517277 10.4149517,3.34743455 10.7769352,2.55538743 L10.7769352,2.55397382 C10.9156303,2.25457068 11.0348973,1.9188377 11.1306887,1.55553927 C11.2554873,1.07590052 11.3207874,0.607853403 11.3290173,0.182073298 C11.3305014,0.163413613 11.3305014,0.146026178 11.3305014,0.12708377 Z"></path>
                                                    </g>
                                                    <ellipse id="Oval" fill="#ECC19C" cx="5.68096859" cy="14.0076283" rx="1.38357833" ry="1"></ellipse>
                                                    <path d="M10.6282561,7.55957592 C10.6282561,7.5348377 10.6115264,7.51306806 10.5880507,7.51009948 C10.3897221,7.47815183 9.49643375,7.3502199 8.53649617,7.3502199 C7.44757753,7.3502199 6.0424124,7.70772251 5.79686267,7.70772251 L5.57910592,7.70772251 C5.46537052,7.70772251 5.09920459,7.63068063 4.63036649,7.54784293 C4.09218083,7.45185864 3.41934756,7.3502199 2.83960733,7.3502199 C2.13641764,7.3502199 1.47060008,7.42005236 1.0862203,7.46797382 C0.944691905,7.48536126 0.842019734,7.50133508 0.788052759,7.51009948 C0.764442207,7.51306806 0.747847362,7.5348377 0.747847362,7.55957592 L0.736784132,8.17280105 C0.736784132,8.19457068 0.749196536,8.21351309 0.767275473,8.22227749 L0.833924688,8.24560209 C0.932414418,8.28490052 0.924049537,10.1334817 1.4498228,10.595733 C1.76188683,10.8675707 2.04076118,11.0230681 3.21278896,11.0230681 C3.89115385,11.0230681 4.31830246,10.8312408 4.72332461,10.2585864 C5.01461136,9.84722513 5.27405759,8.87494241 5.27405759,8.87494241 C5.34893677,8.48831937 5.61661297,8.4447801 5.67624648,8.43898429 C5.67759565,8.43898429 5.67759565,8.43898429 5.67907974,8.43898429 L5.68326218,8.43898429 C5.68609545,8.43898429 5.68744462,8.43898429 5.68744462,8.43898429 C5.69715868,8.43898429 6.01907169,8.4447801 6.10218083,8.87494241 C6.10218083,8.87494241 6.36162706,9.84722513 6.65291381,10.2585864 C7.05793596,10.8312408 7.48508458,11.0230681 8.16344946,11.0230681 C9.33561216,11.0230681 9.61435159,10.8675707 9.92641563,10.595733 C10.452054,10.1334817 10.443824,8.28490052 10.5423137,8.24560209 L10.6089629,8.22227749 C10.6270419,8.21351309 10.6394543,8.19471204 10.6394543,8.17280105 L10.6282561,7.55957592 Z M4.72318969,9.74685864 C4.54982078,10.1741937 4.10594241,10.7249372 3.47898107,10.7584398 C1.59944623,10.8572513 1.51350383,10.3079215 1.39126863,9.87196335 C1.26916834,9.43586387 1.23732783,9.05362304 1.28589811,8.61907853 C1.33446839,8.18312042 1.4398389,7.92725654 1.6285884,7.79946597 C1.70899919,7.7427801 1.79777487,7.69189005 2.0238965,7.65556021 C2.22640757,7.62502618 2.53847161,7.60608377 3.05871325,7.60608377 C3.36106323,7.60608377 3.64277084,7.63082199 3.89520137,7.67294764 C4.56371728,7.78631937 5.01596053,8.02465445 5.01596053,8.25860733 C5.01582561,8.41990052 4.97710431,9.1146911 4.72318969,9.74685864 Z M9.98456504,9.87196335 C9.86246476,10.3079215 9.77652235,10.8573927 7.8968526,10.7584398 C7.26989126,10.7250785 6.82466371,10.1741937 6.65264398,9.74685864 C6.39872936,9.1146911 6.36000805,8.41990052 6.36000805,8.25860733 C6.36000805,7.93602094 7.21578937,7.60608377 8.31725534,7.60608377 C9.41723721,7.60608377 9.59343939,7.69189005 9.74738019,7.79946597 C9.93599476,7.92739791 10.0415002,8.18312042 10.0900705,8.61907853 C10.1385058,9.05362304 10.1066653,9.43586387 9.98456504,9.87196335 Z" id="Shape" fill="#1A1A1A"></path>
                                                    <g fill="#E9EDF2">
                                                        <path d="M11.3412948,5.35335079 C11.3398107,5.35335079 11.3398107,5.3547644 11.3384615,5.3547644 L0.0333246073,5.3547644 C0.0333246073,1.1704712 2.72438784,1.33911518 5.67624648,1.6834712 C5.67759565,1.6834712 5.67759565,1.6834712 5.67907974,1.6834712 C5.88860652,1.70820942 6.09934756,1.73294764 6.31022352,1.7575445 C8.51855215,2.01482199 10.3161921,1.01483246 11.2164962,0.129769634 C12.4411418,1.04409424 12.6590334,4.41881152 11.3412948,5.35335079 Z" id="Shape"></path>
                                                        <path d="M2.00298429,5.10766492 L1.97249295,5.20789005 C1.95724728,5.25722513 1.94200161,5.30670157 1.92527185,5.35462304 C1.91137535,5.39392147 1.89896295,5.43307853 1.88358236,5.47096335 C1.62427104,6.19770157 1.2316613,6.86337173 0.750275876,7.45920942 C0.41190294,7.87919372 0.0720459122,8.55362827 0.0373721305,9.58401047 C0.0345388643,9.64352356 0.0331896899,9.70317801 0.0331896899,9.76565969 L0.0331896899,7.64665445 C0.0331896899,6.44621466 0.0331896899,5.35462304 0.0331896899,5.35462304 L0.496496174,5.29652356 L0.948739428,5.2398377 L1.48139348,5.17297382 L2.00298429,5.10766492 Z" id="Shape"></path>
                                                        <path d="M11.3568103,5.35518848 L9.38769029,5.10893717 L9.41831655,5.20859686 C9.67317559,6.03909424 10.1028876,6.79297382 10.639994,7.45963351 C10.9984696,7.90463874 11.3569452,8.63321466 11.3569452,9.7670733 C11.3568103,8.21379581 11.3568103,5.35518848 11.3568103,5.35518848 Z" id="Shape"></path>
                                                        <ellipse id="Oval" cx="5.67597664" cy="5.10893717" rx="4.20807491" ry="1"></ellipse>
                                                    </g>
                                                </g>
                                            </g>
                                        </g>
                                    </g>
                                </g>
                            </g>
                        </g>
                    </g>
                </g>
            </g>
        </g>
    </g>
</svg>