<?xml version="1.0" encoding="UTF-8"?>
<svg width="48px" height="48px" viewBox="0 0 48 48" version="1.1" xmlns="http://www.w3.org/2000/svg" xmlns:xlink="http://www.w3.org/1999/xlink">
    <!-- Generator: Sketch 48.2 (47327) - http://www.bohemiancoding.com/sketch -->
    <title>Icons/KYC/Inactive/Envelope</title>
    <desc>Created with Sketch.</desc>
    <defs>
        <linearGradient x1="9.03888485%" y1="21.3187232%" x2="90.9611152%" y2="78.6812768%" id="linearGradient-1">
            <stop stop-color="#F7DE48" offset="0%"></stop>
            <stop stop-color="#FDF051" offset="49.741%"></stop>
            <stop stop-color="#F7DE48" offset="100%"></stop>
        </linearGradient>
        <linearGradient x1="9.03888941%" y1="21.3187012%" x2="90.9611294%" y2="78.68128%" id="linearGradient-2">
            <stop stop-color="#F7DE48" offset="0%"></stop>
            <stop stop-color="#E3AF4A" offset="100%"></stop>
        </linearGradient>
        <linearGradient x1="7.91085359%" y1="102.302164%" x2="101.570188%" y2="14.8111909%" id="linearGradient-3">
            <stop stop-color="#FF9E04" offset="0%"></stop>
            <stop stop-color="#D75200" offset="100%"></stop>
        </linearGradient>
        <radialGradient cx="20.4409553%" cy="100.001657%" fx="20.4409553%" fy="100.001657%" r="1703.805%" gradientTransform="translate(0.204410,1.000017),scale(1.000000,0.109740),translate(-0.204410,-1.000017)" id="radialGradient-4">
            <stop stop-color="#FDFCEB" offset="0%"></stop>
            <stop stop-color="#FFFFFF" offset="96.368%"></stop>
        </radialGradient>
        <radialGradient cx="120141.617%" cy="7511.105%" fx="120141.617%" fy="7511.105%" r="1703.661%" gradientTransform="translate(1201.416170,75.111050),scale(1.000000,0.109729),translate(-1201.416170,-75.111050)" id="radialGradient-5">
            <stop stop-color="#FDFCEB" offset="0%"></stop>
            <stop stop-color="#FFFFFF" offset="96.368%"></stop>
        </radialGradient>
        <radialGradient cx="2171.10417%" cy="1023.3016%" fx="2171.10417%" fy="1023.3016%" r="1703.882%" gradientTransform="translate(21.711042,10.233016),scale(0.087005,1.000000),translate(-21.711042,-10.233016)" id="radialGradient-6">
            <stop stop-color="#FDFCEB" offset="0%"></stop>
            <stop stop-color="#FFFFFF" offset="96.368%"></stop>
        </radialGradient>
        <radialGradient cx="2171.10417%" cy="1023.3016%" fx="2171.10417%" fy="1023.3016%" r="1703.661%" gradientTransform="translate(21.711042,10.233016),scale(0.086997,1.000000),translate(-21.711042,-10.233016)" id="radialGradient-7">
            <stop stop-color="#FDFCEB" offset="0%"></stop>
            <stop stop-color="#FFFFFF" offset="96.368%"></stop>
        </radialGradient>
        <radialGradient cx="2171.39722%" cy="1023.79839%" fx="2171.39722%" fy="1023.79839%" r="1203.901%" gradientTransform="translate(21.713972,10.237984),scale(0.890582,1.000000),translate(-21.713972,-10.237984)" id="radialGradient-8">
            <stop stop-color="#FDFCEB" offset="0%"></stop>
            <stop stop-color="#FFFFFF" offset="96.368%"></stop>
        </radialGradient>
        <radialGradient cx="2171.39722%" cy="1023.79839%" fx="2171.39722%" fy="1023.79839%" r="1203.918%" gradientTransform="translate(21.713972,10.237984),scale(0.890411,1.000000),translate(-21.713972,-10.237984)" id="radialGradient-9">
            <stop stop-color="#FDFCEB" offset="0%"></stop>
            <stop stop-color="#FFFFFF" offset="96.368%"></stop>
        </radialGradient>
        <radialGradient cx="2171.21343%" cy="1023.14121%" fx="2171.21343%" fy="1023.14121%" r="1203.901%" gradientTransform="translate(21.712134,10.231412),scale(0.890582,1.000000),translate(-21.712134,-10.231412)" id="radialGradient-10">
            <stop stop-color="#FDFCEB" offset="0%"></stop>
            <stop stop-color="#FFFFFF" offset="96.368%"></stop>
        </radialGradient>
        <radialGradient cx="2171.21343%" cy="1023.14121%" fx="2171.21343%" fy="1023.14121%" r="1203.918%" gradientTransform="translate(21.712134,10.231412),scale(0.890411,1.000000),translate(-21.712134,-10.231412)" id="radialGradient-11">
            <stop stop-color="#FDFCEB" offset="0%"></stop>
            <stop stop-color="#FFFFFF" offset="96.368%"></stop>
        </radialGradient>
        <radialGradient cx="24.3940515%" cy="49.9974084%" fx="24.3940515%" fy="49.9974084%" r="1001.457%" gradientTransform="translate(0.243941,0.499974),scale(1.000000,0.093248),translate(-0.243941,-0.499974)" id="radialGradient-12">
            <stop stop-color="#FDFCEB" offset="0%"></stop>
            <stop stop-color="#FBFAEB" offset="60.508%"></stop>
            <stop stop-color="#F4F4EB" offset="82.275%"></stop>
            <stop stop-color="#EAEAEA" offset="96.368%"></stop>
        </radialGradient>
        <radialGradient cx="39347.722%" cy="20618.464%" fx="39347.722%" fy="20618.464%" r="1001.457%" gradientTransform="translate(393.477220,206.184640),scale(1.000000,0.093240),translate(-393.477220,-206.184640)" id="radialGradient-13">
            <stop stop-color="#FDFCEB" offset="0%"></stop>
            <stop stop-color="#FBFAEB" offset="60.508%"></stop>
            <stop stop-color="#F4F4EB" offset="82.275%"></stop>
            <stop stop-color="#EAEAEA" offset="96.368%"></stop>
        </radialGradient>
        <radialGradient cx="40762.82%" cy="19203.365%" fx="40762.82%" fy="19203.365%" r="1001.457%" gradientTransform="translate(407.628200,192.033650),scale(0.073924,1.000000),translate(-407.628200,-192.033650)" id="radialGradient-14">
            <stop stop-color="#FDFCEB" offset="0%"></stop>
            <stop stop-color="#FBFAEB" offset="60.508%"></stop>
            <stop stop-color="#F4F4EB" offset="82.275%"></stop>
            <stop stop-color="#EAEAEA" offset="96.368%"></stop>
        </radialGradient>
        <radialGradient cx="37932.623%" cy="19203.365%" fx="37932.623%" fy="19203.365%" r="1001.457%" gradientTransform="translate(379.326230,192.033650),scale(0.073924,1.000000),translate(-379.326230,-192.033650)" id="radialGradient-15">
            <stop stop-color="#FDFCEB" offset="0%"></stop>
            <stop stop-color="#FBFAEB" offset="60.508%"></stop>
            <stop stop-color="#F4F4EB" offset="82.275%"></stop>
            <stop stop-color="#EAEAEA" offset="96.368%"></stop>
        </radialGradient>
        <radialGradient cx="40040.653%" cy="18510.228%" fx="40040.653%" fy="18510.228%" r="721.962%" gradientTransform="translate(400.406530,185.102280),scale(0.890411,1.000000),translate(-400.406530,-185.102280)" id="radialGradient-16">
            <stop stop-color="#FDFCEB" offset="0%"></stop>
            <stop stop-color="#FBFAEB" offset="60.508%"></stop>
            <stop stop-color="#F4F4EB" offset="82.275%"></stop>
            <stop stop-color="#EAEAEA" offset="96.368%"></stop>
        </radialGradient>
        <radialGradient cx="38654.746%" cy="19896.135%" fx="38654.746%" fy="19896.135%" r="721.598%" gradientTransform="translate(386.547460,198.961350),scale(0.890411,1.000000),translate(-386.547460,-198.961350)" id="radialGradient-17">
            <stop stop-color="#FDFCEB" offset="0%"></stop>
            <stop stop-color="#FBFAEB" offset="60.508%"></stop>
            <stop stop-color="#F4F4EB" offset="82.275%"></stop>
            <stop stop-color="#EAEAEA" offset="96.368%"></stop>
        </radialGradient>
        <radialGradient cx="40040.653%" cy="19896.499%" fx="40040.653%" fy="19896.499%" r="721.962%" gradientTransform="translate(400.406530,198.964990),scale(0.890411,1.000000),translate(-400.406530,-198.964990)" id="radialGradient-18">
            <stop stop-color="#FDFCEB" offset="0%"></stop>
            <stop stop-color="#FBFAEB" offset="60.508%"></stop>
            <stop stop-color="#F4F4EB" offset="82.275%"></stop>
            <stop stop-color="#EAEAEA" offset="96.368%"></stop>
        </radialGradient>
        <radialGradient cx="38654.746%" cy="18510.594%" fx="38654.746%" fy="18510.594%" r="721.597%" gradientTransform="translate(386.547460,185.105940),scale(0.890411,1.000000),translate(-386.547460,-185.105940)" id="radialGradient-19">
            <stop stop-color="#FDFCEB" offset="0%"></stop>
            <stop stop-color="#FBFAEB" offset="60.508%"></stop>
            <stop stop-color="#F4F4EB" offset="82.275%"></stop>
            <stop stop-color="#EAEAEA" offset="96.368%"></stop>
        </radialGradient>
        <linearGradient x1="34190.277%" y1="13355.502%" x2="37625.267%" y2="13355.502%" id="linearGradient-20">
            <stop stop-color="#FF9E04" offset="0%"></stop>
            <stop stop-color="#D75200" offset="100%"></stop>
        </linearGradient>
        <radialGradient cx="49.9887207%" cy="49.9988745%" fx="49.9887207%" fy="49.9988745%" r="114.437089%" gradientTransform="translate(0.499887,0.499989),scale(0.843679,1.000000),translate(-0.499887,-0.499989)" id="radialGradient-21">
            <stop stop-color="#FFF7B4" offset="0%"></stop>
            <stop stop-color="#FDF051" offset="96.368%"></stop>
        </radialGradient>
        <radialGradient cx="12.97209%" cy="99.9871289%" fx="12.97209%" fy="99.9871289%" r="1089.91%" gradientTransform="translate(0.129721,0.999871),scale(1.000000,0.171541),translate(-0.129721,-0.999871)" id="radialGradient-22">
            <stop stop-color="#FDFCEB" offset="0%"></stop>
            <stop stop-color="#FFFFFF" offset="96.368%"></stop>
        </radialGradient>
        <radialGradient cx="114016.625%" cy="13322.602%" fx="114016.625%" fy="13322.602%" r="1089.8%" gradientTransform="translate(1140.166250,133.226020),scale(1.000000,0.171567),translate(-1140.166250,-133.226020)" id="radialGradient-23">
            <stop stop-color="#FDFCEB" offset="0%"></stop>
            <stop stop-color="#FFFFFF" offset="96.368%"></stop>
        </radialGradient>
        <radialGradient cx="1302.32004%" cy="3496.4583%" fx="1302.32004%" fy="3496.4583%" r="1089.91%" gradientTransform="translate(13.023200,34.964583),scale(0.136024,1.000000),translate(-13.023200,-34.964583)" id="radialGradient-24">
            <stop stop-color="#FDFCEB" offset="0%"></stop>
            <stop stop-color="#FFFFFF" offset="96.368%"></stop>
        </radialGradient>
        <radialGradient cx="1302.32004%" cy="3496.4583%" fx="1302.32004%" fy="3496.4583%" r="1089.8%" gradientTransform="translate(13.023200,34.964583),scale(0.136003,1.000000),translate(-13.023200,-34.964583)" id="radialGradient-25">
            <stop stop-color="#FDFCEB" offset="0%"></stop>
            <stop stop-color="#FFFFFF" offset="96.368%"></stop>
        </radialGradient>
        <radialGradient cx="1302.66734%" cy="3497.01983%" fx="1302.66734%" fy="3497.01983%" r="770.172%" gradientTransform="translate(13.026673,34.970198),scale(0.890144,1.000000),translate(-13.026673,-34.970198)" id="radialGradient-26">
            <stop stop-color="#FDFCEB" offset="0%"></stop>
            <stop stop-color="#FFFFFF" offset="96.368%"></stop>
        </radialGradient>
        <radialGradient cx="1302.66824%" cy="3497.01892%" fx="1302.66824%" fy="3497.01892%" r="770.127%" gradientTransform="translate(13.026682,34.970189),scale(0.890144,1.000000),translate(-13.026682,-34.970189)" id="radialGradient-27">
            <stop stop-color="#FDFCEB" offset="0%"></stop>
            <stop stop-color="#FFFFFF" offset="96.368%"></stop>
        </radialGradient>
        <radialGradient cx="1302.40156%" cy="3496.39051%" fx="1302.40156%" fy="3496.39051%" r="770.172%" gradientTransform="translate(13.024016,34.963905),scale(0.890144,1.000000),translate(-13.024016,-34.963905)" id="radialGradient-28">
            <stop stop-color="#FDFCEB" offset="0%"></stop>
            <stop stop-color="#FFFFFF" offset="96.368%"></stop>
        </radialGradient>
        <radialGradient cx="1302.40246%" cy="3496.39142%" fx="1302.40246%" fy="3496.39142%" r="770.125%" gradientTransform="translate(13.024025,34.963914),scale(0.890144,1.000000),translate(-13.024025,-34.963914)" id="radialGradient-29">
            <stop stop-color="#FDFCEB" offset="0%"></stop>
            <stop stop-color="#FFFFFF" offset="96.368%"></stop>
        </radialGradient>
    </defs>
    <g id="KYC---Step-1-Email-Invalid" stroke="none" stroke-width="1" fill="none" fill-rule="evenodd" transform="translate(-376.000000, -405.000000)">
        <g id="Group-12" transform="translate(192.000000, 405.000000)">
            <g id="Group-7">
                <g id="Group-9" transform="translate(162.000000, 0.000000)">
                    <g id="Icons/KYC/Inactive/Wallet" transform="translate(22.000000, 0.000000)">
                        <g id="Group">
                            <circle id="Oval" fill="#F4F5F7" fill-rule="nonzero" cx="24" cy="24" r="24"></circle>
                            <circle id="Oval" fill="#FFFFFF" fill-rule="nonzero" cx="24" cy="24" r="21.4285714"></circle>
                        </g>
                        <g id="wallet" opacity="0.6" transform="translate(15.428571, 13.714286)">
                            <g id="Group" transform="translate(0.000000, 5.786085)" fill="#5E3118" fill-rule="nonzero">
                                <polygon id="Shape" points="12.1611894 0.262732535 16.106372 4.26672882 15.9517508 4.42365504 16.9849014 4.42365504 16.9849014 0.262732535"></polygon>
                                <path d="M7.07918976,0.262732535 L2.04990189,0.262732535 C0.917770361,0.262732535 0,1.19418476 0,2.34319379 C0,3.49220281 0.917770361,4.42365504 2.04990189,4.42365504 L3.28862832,4.42365504 L3.13400715,4.26672882 L7.07918976,0.262732535 Z" id="Shape"></path>
                            </g>
                            <g id="Group" transform="translate(0.499556, 6.776781)" fill="#77442B" fill-rule="nonzero">
                                <path d="M4.57556651,0.109075611 C4.38686818,0.123341631 4.19345975,0.132852311 3.99828503,0.139985321 C3.83578663,0.145929496 3.70890835,0.283537148 3.71479597,0.447596378 C3.72068359,0.608089103 3.85109445,0.734105613 4.00858838,0.734105613 C4.01241533,0.734105613 4.01565352,0.734105613 4.01948048,0.733808404 C4.22201472,0.726675394 4.42307706,0.716273088 4.61913492,0.701709859 C4.78133894,0.6895243 4.90291837,0.5468641 4.89084874,0.383399288 C4.87877911,0.219934475 4.73806491,0.0962956351 4.57556651,0.109075611 Z" id="Shape"></path>
                                <path d="M2.82252665,0.169111779 C2.61763735,0.175055954 2.41657501,0.182486173 2.22375535,0.194671731 C2.06125694,0.204776829 1.93791123,0.345950985 1.94792019,0.509713007 C1.95763477,0.667233644 2.08716249,0.788494814 2.24141822,0.788494814 C2.24760022,0.788494814 2.25378223,0.788197605 2.25996423,0.787900397 C2.44660189,0.776309255 2.64059908,0.768879037 2.83871761,0.763529279 C3.00121602,0.758773939 3.12927182,0.622355123 3.12515049,0.458295893 C3.12102915,0.294236663 2.98031495,0.176839206 2.82252665,0.169111779 Z" id="Shape"></path>
                                <path d="M0.988826346,0.392018341 C0.721822626,0.48028934 0.517227714,0.598281214 0.364738268,0.752532555 C0.249635231,0.868741177 0.249635231,1.05657711 0.364738268,1.17278573 C0.422142596,1.23074143 0.497504175,1.25986789 0.572865754,1.25986789 C0.648227334,1.25986789 0.723588913,1.23074143 0.780993241,1.17278573 C0.865775017,1.08748682 0.997069019,1.01467067 1.17222581,0.956714967 C1.32648155,0.905595062 1.41096894,0.737969327 1.36033538,0.581637524 C1.3099962,0.426197348 1.14484837,0.340601228 0.988826346,0.392018341 Z" id="Shape"></path>
                                <path d="M14.4246773,0.262732535 L13.8359149,0.262732535 C13.6731221,0.262732535 13.5415338,0.395584846 13.5415338,0.559941285 C13.5415338,0.724297724 13.6731221,0.857150035 13.8359149,0.857150035 L14.4246773,0.857150035 C14.5874701,0.857150035 14.7190584,0.724297724 14.7190584,0.559941285 C14.7190584,0.395584846 14.5874701,0.262732535 14.4246773,0.262732535 Z" id="Shape"></path>
                                <path d="M16.1909643,0.262732535 L15.6022019,0.262732535 C15.4394092,0.262732535 15.3078208,0.395584846 15.3078208,0.559941285 C15.3078208,0.724297724 15.4394092,0.857150035 15.6022019,0.857150035 L16.1909643,0.857150035 C16.3537571,0.857150035 16.4853455,0.724297724 16.4853455,0.559941285 C16.4853455,0.395584846 16.3537571,0.262732535 16.1909643,0.262732535 Z" id="Shape"></path>
                            </g>
                            <g id="Token/Large" transform="translate(1.075343, 3.583368)">
                                <g id="Token">
                                    <ellipse id="Oval" fill="#B54001" fill-rule="nonzero" cx="4.71634615" cy="4.68695466" rx="4.28365385" ry="3.81421233"></ellipse>
                                    <ellipse id="Oval" fill="url(#linearGradient-1)" fill-rule="nonzero" cx="4.28365385" cy="4.30168068" rx="4.28365385" ry="3.81421233"></ellipse>
                                    <ellipse id="Oval" fill="url(#linearGradient-2)" fill-rule="nonzero" cx="4.28365385" cy="4.31008644" rx="3.67788462" ry="3.27482877"></ellipse>
                                    <path d="M6.84822185,7.35728918 C6.59997173,7.52279928 6.3322144,7.66374146 6.04968646,7.77762247 L5.36862877,7.43164767 C5.68493102,7.34478867 5.98652991,7.22010575 6.26516723,7.06101288 L6.84822185,7.35728918 Z" id="Shape" fill="#FFF7B4" fill-rule="nonzero"></path>
                                    <path d="M8.06257246,4.39164247 C8.06258008,5.72777529 7.15095831,6.92992274 5.75909047,7.4292235 C4.36722264,7.92852425 2.77426613,7.62483698 1.73401477,6.66186781 C3.17786951,7.8985073 5.46770481,7.8787106 6.88431989,6.617341 C8.30093498,5.35597141 8.3231682,3.31707696 6.93432692,2.03145288 C7.65625735,2.64819711 8.06383324,3.50080971 8.06257246,4.39164247 Z" id="Shape" fill="#FFF7B4" fill-rule="nonzero"></path>
                                    <path d="M6.91528846,2.01392384 C5.47377019,0.763304082 3.1710433,0.776622771 1.74789297,2.04381141 C0.32474265,3.31100006 0.309784739,5.36137332 1.71432692,6.64491699 C0.766643431,5.82104518 0.389650694,4.6070949 0.727344359,3.466745 C1.06503802,2.3263951 2.06525619,1.43578988 3.34595685,1.13510374 C4.62665751,0.834417604 5.99001705,1.17009607 6.91528846,2.01392384 Z" id="Shape" fill="#D75200" fill-rule="nonzero"></path>
                                    <path d="M8.76223662,5.94352356 C8.21542278,7.33609973 6.81661295,8.32363281 5.16915969,8.4801674 C4.92620538,8.35841959 4.655988,8.22145438 4.45218923,8.11280712 C6.1915446,8.05189117 7.71671224,7.06020782 8.31137262,5.60351712 L8.76223662,5.94352356 Z" id="Shape" fill="url(#linearGradient-3)" fill-rule="nonzero"></path>
                                    <path d="M6.84822185,7.35728918 C6.59997173,7.52279928 6.3322144,7.66374146 6.04968646,7.77762247 L5.36862877,7.43164767 C5.68493102,7.34478867 5.98652991,7.22010575 6.26516723,7.06101288 L6.84822185,7.35728918 Z" id="Shape" fill="#FFF7B4" fill-rule="nonzero"></path>
                                    <path d="M3.00634754,1.22989068 C2.7064106,1.3287425 2.42230996,1.46215544 2.16129738,1.62672411 L1.58927954,1.3362263 C1.82498329,1.16612509 2.08033722,1.01882841 2.35103262,0.896821644 L3.00634754,1.22989068 Z" id="Shape" fill="#FFF7B4" fill-rule="nonzero"></path>
                                    <g id="Group" style="mix-blend-mode: screen;" transform="translate(1.523077, 0.000000)" fill-rule="nonzero">
                                        <polygon id="Shape" fill="url(#radialGradient-8)" points="2.19073846 0.630863014 2.19170769 0.631726027 1.4976 1.27467123 1.4688 1.24890411"></polygon>
                                        <polygon id="Shape" fill="url(#radialGradient-9)" points="1.4688 1.24890411 1.4976 1.27467123 0.775107692 1.89234247 0.774969231 1.89221918"></polygon>
                                        <polygon id="Shape" fill="url(#radialGradient-10)" points="2.19170769 1.89184932 2.19073846 1.89271233 1.4688 1.27467123 1.4976 1.24890411"></polygon>
                                        <polygon id="Shape" fill="url(#radialGradient-11)" points="1.4976 1.24890411 1.4688 1.27467123 0.774969231 0.631356164 0.775107692 0.631232877"></polygon>
                                    </g>
                                    <g id="Group" style="mix-blend-mode: screen;" transform="translate(4.707692, 5.794521)" fill-rule="nonzero">
                                        <polygon id="Shape" fill="url(#radialGradient-16)" points="2.56707692 0.859438356 2.56804615 0.860424658 1.75126154 1.6170411 1.7172 1.58683562"></polygon>
                                        <polygon id="Shape" fill="url(#radialGradient-17)" points="1.7172 1.58683562 1.75126154 1.6170411 0.900969231 2.34406849 0.900830769 2.34382192"></polygon>
                                        <polygon id="Shape" fill="url(#radialGradient-18)" points="2.56804615 2.34345205 2.56707692 2.34443836 1.7172 1.6170411 1.75126154 1.58683562"></polygon>
                                        <polygon id="Shape" fill="url(#radialGradient-19)" points="1.75126154 1.58683562 1.7172 1.6170411 0.900830769 0.860054795 0.900969231 0.859808219"></polygon>
                                    </g>
                                    <path d="M6.16721538,6.18302589 L2.79668769,6.18302589 C2.31403055,6.18252314 1.92290236,5.83425335 1.92234462,5.40449014 L1.92234462,4.77569342 C1.92296421,4.25631991 2.39564133,3.83541103 2.97893769,3.83481986 L6.21402369,3.83481986 C6.26173676,3.83480136 6.30399207,3.80738701 6.31863217,3.7669521 C6.33327227,3.7265172 6.3169561,3.68228948 6.27823938,3.65746068 L4.33368554,2.40935425 L2.60829138,3.37064301 C2.57131205,3.39137977 2.52470545,3.39293699 2.48608477,3.37472618 C2.44746408,3.35651537 2.42271941,3.32131388 2.42120206,3.28242478 C2.41968472,3.24353568 2.4416261,3.20689 2.47873431,3.18633658 L4.27379123,2.18625534 C4.31583287,2.16280879 4.36963737,2.16438147 4.40986154,2.1902326 L6.42106246,3.48113959 C6.54569601,3.56115144 6.59816868,3.70359472 6.55097096,3.83379162 C6.50377324,3.96398852 6.36767344,4.05223425 6.21402369,4.05226479 L2.97893631,4.05226479 C2.53045117,4.05274715 2.16702214,4.37636102 2.166498,4.77569712 L2.166498,5.40449384 C2.16690472,5.71423985 2.44881907,5.96524237 2.79668769,5.96558342 L6.16721538,5.96558342 C6.31468395,5.96558342 6.43423085,5.85913756 6.43423085,5.72782993 C6.43423085,5.5965223 6.31468395,5.49007644 6.16721538,5.49007644 L3.86684862,5.49086671 C3.86316305,5.49119529 3.85946035,5.49134756 3.85575646,5.49132288 L3.23475646,5.49193932 C2.95238567,5.49196519 2.72345537,5.28816508 2.72342631,5.03673904 C2.72339725,4.785313 2.95228044,4.58147094 3.23465123,4.58144507 L6.38069815,4.58144507 C6.44815863,4.58144507 6.50284615,4.63013944 6.50284615,4.69020699 C6.50284615,4.75027453 6.44815863,4.7989689 6.38069815,4.7989689 L3.23465677,4.7989689 C3.08721191,4.7989689 2.96768423,4.90539766 2.96768423,5.03668418 C2.96768423,5.1679707 3.08721191,5.27439945 3.23465677,5.27439945 L3.84422815,5.27387795 C3.84799229,5.2735178 3.85177543,5.27333795 3.85556123,5.27333918 L6.16721677,5.27263644 C6.35005901,5.2723685 6.51914109,5.35906996 6.61064919,5.5000185 C6.70215728,5.64096705 6.70215728,5.81470021 6.61064919,5.95564876 C6.51914109,6.09659731 6.35005901,6.18329876 6.16721677,6.18303082 L6.16721538,6.18302589 Z" id="Shape" fill="url(#linearGradient-20)" fill-rule="nonzero"></path>
                                    <path d="M6.06019985,6.13834027 L2.68967215,6.13834027 C2.20701501,6.13783752 1.81588682,5.78956774 1.81532908,5.35980452 L1.81532908,4.73100781 C1.81594867,4.21163429 2.28862579,3.79072541 2.87192215,3.79013425 L6.10700815,3.79013425 C6.15472122,3.79011574 6.19697653,3.76270139 6.21161663,3.72226649 C6.22625673,3.68183158 6.20994056,3.63760387 6.17122385,3.61277507 L4.22667,2.36466863 L2.50128277,3.3259574 C2.46430343,3.34669416 2.41769684,3.34825138 2.37907615,3.33004056 C2.34045546,3.31182975 2.3157108,3.27662827 2.31419345,3.23773916 C2.3126761,3.19885006 2.33461748,3.16220438 2.37172569,3.14165096 L4.16678262,2.14156973 C4.20882425,2.11812318 4.26262875,2.11969585 4.30285292,2.14554699 L6.31405108,3.43644904 C6.43868463,3.51646089 6.49115729,3.65890417 6.44395957,3.78910107 C6.39676186,3.91929797 6.26066205,4.0075437 6.10701231,4.00757425 L2.87192077,4.00757425 C2.42343563,4.0080566 2.0600066,4.33167047 2.05948246,4.73100658 L2.05948246,5.35980329 C2.05988918,5.6695493 2.34180353,5.92055183 2.68967215,5.92089288 L6.06019985,5.92089288 C6.20766841,5.92089288 6.32721531,5.81444701 6.32721531,5.68313938 C6.32721531,5.55183176 6.20766841,5.44538589 6.06019985,5.44538589 L3.75983308,5.44617616 C3.75614751,5.44650474 3.75244481,5.44665701 3.74874092,5.44663233 L3.12774092,5.44724877 C2.84537014,5.44727464 2.61643983,5.24347454 2.61641077,4.99204849 C2.61638171,4.74062245 2.8452649,4.53678039 3.12763569,4.53675452 L6.27367985,4.53675452 C6.34114032,4.53675452 6.39582785,4.58544889 6.39582785,4.64551644 C6.39582785,4.70558399 6.34114032,4.75427836 6.27367985,4.75427836 L3.12764123,4.75427836 C2.98019637,4.75427836 2.86066869,4.86070711 2.86066869,4.99199363 C2.86066869,5.12328015 2.98019637,5.2297089 3.12764123,5.2297089 L3.73721262,5.2291874 C3.74097675,5.22882726 3.74475989,5.22864741 3.74854569,5.22864863 L6.06019985,5.22794589 C6.24304208,5.22767796 6.41212417,5.31437941 6.50363226,5.45532796 C6.59514036,5.5962765 6.59514036,5.77000966 6.50363226,5.91095821 C6.41212417,6.05190676 6.24304208,6.13860821 6.06019985,6.13834027 Z" id="Shape" fill="url(#radialGradient-21)" fill-rule="nonzero"></path>
                                    <g id="Group" style="mix-blend-mode: screen;" transform="translate(0.830769, 3.452055)"></g>
                                </g>
                            </g>
                            <g id="Token/Large" transform="translate(4.659819, 0.000000)">
                                <g id="Token">
                                    <ellipse id="Oval" fill="#B54001" fill-rule="nonzero" cx="4.71634615" cy="4.68695466" rx="4.28365385" ry="3.81421233"></ellipse>
                                    <ellipse id="Oval" fill="url(#linearGradient-1)" fill-rule="nonzero" cx="4.28365385" cy="4.30168068" rx="4.28365385" ry="3.81421233"></ellipse>
                                    <ellipse id="Oval" fill="url(#linearGradient-2)" fill-rule="nonzero" cx="4.28365385" cy="4.31008644" rx="3.67788462" ry="3.27482877"></ellipse>
                                    <path d="M6.84822185,7.35728918 C6.59997173,7.52279928 6.3322144,7.66374146 6.04968646,7.77762247 L5.36862877,7.43164767 C5.68493102,7.34478867 5.98652991,7.22010575 6.26516723,7.06101288 L6.84822185,7.35728918 Z" id="Shape" fill="#FFF7B4" fill-rule="nonzero"></path>
                                    <path d="M8.06257246,4.39164247 C8.06258008,5.72777529 7.15095831,6.92992274 5.75909047,7.4292235 C4.36722264,7.92852425 2.77426613,7.62483698 1.73401477,6.66186781 C3.17786951,7.8985073 5.46770481,7.8787106 6.88431989,6.617341 C8.30093498,5.35597141 8.3231682,3.31707696 6.93432692,2.03145288 C7.65625735,2.64819711 8.06383324,3.50080971 8.06257246,4.39164247 Z" id="Shape" fill="#FFF7B4" fill-rule="nonzero"></path>
                                    <path d="M6.91528846,2.01392384 C5.47377019,0.763304082 3.1710433,0.776622771 1.74789297,2.04381141 C0.32474265,3.31100006 0.309784739,5.36137332 1.71432692,6.64491699 C0.766643431,5.82104518 0.389650694,4.6070949 0.727344359,3.466745 C1.06503802,2.3263951 2.06525619,1.43578988 3.34595685,1.13510374 C4.62665751,0.834417604 5.99001705,1.17009607 6.91528846,2.01392384 Z" id="Shape" fill="#D75200" fill-rule="nonzero"></path>
                                    <path d="M8.76223662,5.94352356 C8.21542278,7.33609973 6.81661295,8.32363281 5.16915969,8.4801674 C4.92620538,8.35841959 4.655988,8.22145438 4.45218923,8.11280712 C6.1915446,8.05189117 7.71671224,7.06020782 8.31137262,5.60351712 L8.76223662,5.94352356 Z" id="Shape" fill="url(#linearGradient-3)" fill-rule="nonzero"></path>
                                    <path d="M6.84822185,7.35728918 C6.59997173,7.52279928 6.3322144,7.66374146 6.04968646,7.77762247 L5.36862877,7.43164767 C5.68493102,7.34478867 5.98652991,7.22010575 6.26516723,7.06101288 L6.84822185,7.35728918 Z" id="Shape" fill="#FFF7B4" fill-rule="nonzero"></path>
                                    <path d="M3.00634754,1.22989068 C2.7064106,1.3287425 2.42230996,1.46215544 2.16129738,1.62672411 L1.58927954,1.3362263 C1.82498329,1.16612509 2.08033722,1.01882841 2.35103262,0.896821644 L3.00634754,1.22989068 Z" id="Shape" fill="#FFF7B4" fill-rule="nonzero"></path>
                                    <g id="Group" style="mix-blend-mode: screen;" transform="translate(1.523077, 0.000000)" fill-rule="nonzero">
                                        <polygon id="Shape" fill="url(#radialGradient-8)" points="2.19073846 0.630863014 2.19170769 0.631726027 1.4976 1.27467123 1.4688 1.24890411"></polygon>
                                        <polygon id="Shape" fill="url(#radialGradient-9)" points="1.4688 1.24890411 1.4976 1.27467123 0.775107692 1.89234247 0.774969231 1.89221918"></polygon>
                                        <polygon id="Shape" fill="url(#radialGradient-10)" points="2.19170769 1.89184932 2.19073846 1.89271233 1.4688 1.27467123 1.4976 1.24890411"></polygon>
                                        <polygon id="Shape" fill="url(#radialGradient-11)" points="1.4976 1.24890411 1.4688 1.27467123 0.774969231 0.631356164 0.775107692 0.631232877"></polygon>
                                    </g>
                                    <g id="Group" style="mix-blend-mode: screen;" transform="translate(4.707692, 5.794521)" fill-rule="nonzero">
                                        <polygon id="Shape" fill="url(#radialGradient-16)" points="2.56707692 0.859438356 2.56804615 0.860424658 1.75126154 1.6170411 1.7172 1.58683562"></polygon>
                                        <polygon id="Shape" fill="url(#radialGradient-17)" points="1.7172 1.58683562 1.75126154 1.6170411 0.900969231 2.34406849 0.900830769 2.34382192"></polygon>
                                        <polygon id="Shape" fill="url(#radialGradient-18)" points="2.56804615 2.34345205 2.56707692 2.34443836 1.7172 1.6170411 1.75126154 1.58683562"></polygon>
                                        <polygon id="Shape" fill="url(#radialGradient-19)" points="1.75126154 1.58683562 1.7172 1.6170411 0.900830769 0.860054795 0.900969231 0.859808219"></polygon>
                                    </g>
                                    <path d="M6.16721538,6.18302589 L2.79668769,6.18302589 C2.31403055,6.18252314 1.92290236,5.83425335 1.92234462,5.40449014 L1.92234462,4.77569342 C1.92296421,4.25631991 2.39564133,3.83541103 2.97893769,3.83481986 L6.21402369,3.83481986 C6.26173676,3.83480136 6.30399207,3.80738701 6.31863217,3.7669521 C6.33327227,3.7265172 6.3169561,3.68228948 6.27823938,3.65746068 L4.33368554,2.40935425 L2.60829138,3.37064301 C2.57131205,3.39137977 2.52470545,3.39293699 2.48608477,3.37472618 C2.44746408,3.35651537 2.42271941,3.32131388 2.42120206,3.28242478 C2.41968472,3.24353568 2.4416261,3.20689 2.47873431,3.18633658 L4.27379123,2.18625534 C4.31583287,2.16280879 4.36963737,2.16438147 4.40986154,2.1902326 L6.42106246,3.48113959 C6.54569601,3.56115144 6.59816868,3.70359472 6.55097096,3.83379162 C6.50377324,3.96398852 6.36767344,4.05223425 6.21402369,4.05226479 L2.97893631,4.05226479 C2.53045117,4.05274715 2.16702214,4.37636102 2.166498,4.77569712 L2.166498,5.40449384 C2.16690472,5.71423985 2.44881907,5.96524237 2.79668769,5.96558342 L6.16721538,5.96558342 C6.31468395,5.96558342 6.43423085,5.85913756 6.43423085,5.72782993 C6.43423085,5.5965223 6.31468395,5.49007644 6.16721538,5.49007644 L3.86684862,5.49086671 C3.86316305,5.49119529 3.85946035,5.49134756 3.85575646,5.49132288 L3.23475646,5.49193932 C2.95238567,5.49196519 2.72345537,5.28816508 2.72342631,5.03673904 C2.72339725,4.785313 2.95228044,4.58147094 3.23465123,4.58144507 L6.38069815,4.58144507 C6.44815863,4.58144507 6.50284615,4.63013944 6.50284615,4.69020699 C6.50284615,4.75027453 6.44815863,4.7989689 6.38069815,4.7989689 L3.23465677,4.7989689 C3.08721191,4.7989689 2.96768423,4.90539766 2.96768423,5.03668418 C2.96768423,5.1679707 3.08721191,5.27439945 3.23465677,5.27439945 L3.84422815,5.27387795 C3.84799229,5.2735178 3.85177543,5.27333795 3.85556123,5.27333918 L6.16721677,5.27263644 C6.35005901,5.2723685 6.51914109,5.35906996 6.61064919,5.5000185 C6.70215728,5.64096705 6.70215728,5.81470021 6.61064919,5.95564876 C6.51914109,6.09659731 6.35005901,6.18329876 6.16721677,6.18303082 L6.16721538,6.18302589 Z" id="Shape" fill="url(#linearGradient-20)" fill-rule="nonzero"></path>
                                    <path d="M6.06019985,6.13834027 L2.68967215,6.13834027 C2.20701501,6.13783752 1.81588682,5.78956774 1.81532908,5.35980452 L1.81532908,4.73100781 C1.81594867,4.21163429 2.28862579,3.79072541 2.87192215,3.79013425 L6.10700815,3.79013425 C6.15472122,3.79011574 6.19697653,3.76270139 6.21161663,3.72226649 C6.22625673,3.68183158 6.20994056,3.63760387 6.17122385,3.61277507 L4.22667,2.36466863 L2.50128277,3.3259574 C2.46430343,3.34669416 2.41769684,3.34825138 2.37907615,3.33004056 C2.34045546,3.31182975 2.3157108,3.27662827 2.31419345,3.23773916 C2.3126761,3.19885006 2.33461748,3.16220438 2.37172569,3.14165096 L4.16678262,2.14156973 C4.20882425,2.11812318 4.26262875,2.11969585 4.30285292,2.14554699 L6.31405108,3.43644904 C6.43868463,3.51646089 6.49115729,3.65890417 6.44395957,3.78910107 C6.39676186,3.91929797 6.26066205,4.0075437 6.10701231,4.00757425 L2.87192077,4.00757425 C2.42343563,4.0080566 2.0600066,4.33167047 2.05948246,4.73100658 L2.05948246,5.35980329 C2.05988918,5.6695493 2.34180353,5.92055183 2.68967215,5.92089288 L6.06019985,5.92089288 C6.20766841,5.92089288 6.32721531,5.81444701 6.32721531,5.68313938 C6.32721531,5.55183176 6.20766841,5.44538589 6.06019985,5.44538589 L3.75983308,5.44617616 C3.75614751,5.44650474 3.75244481,5.44665701 3.74874092,5.44663233 L3.12774092,5.44724877 C2.84537014,5.44727464 2.61643983,5.24347454 2.61641077,4.99204849 C2.61638171,4.74062245 2.8452649,4.53678039 3.12763569,4.53675452 L6.27367985,4.53675452 C6.34114032,4.53675452 6.39582785,4.58544889 6.39582785,4.64551644 C6.39582785,4.70558399 6.34114032,4.75427836 6.27367985,4.75427836 L3.12764123,4.75427836 C2.98019637,4.75427836 2.86066869,4.86070711 2.86066869,4.99199363 C2.86066869,5.12328015 2.98019637,5.2297089 3.12764123,5.2297089 L3.73721262,5.2291874 C3.74097675,5.22882726 3.74475989,5.22864741 3.74854569,5.22864863 L6.06019985,5.22794589 C6.24304208,5.22767796 6.41212417,5.31437941 6.50363226,5.45532796 C6.59514036,5.5962765 6.59514036,5.77000966 6.50363226,5.91095821 C6.41212417,6.05190676 6.24304208,6.13860821 6.06019985,6.13834027 Z" id="Shape" fill="url(#radialGradient-21)" fill-rule="nonzero"></path>
                                    <g id="Group" style="mix-blend-mode: screen;" transform="translate(0.830769, 3.452055)"></g>
                                </g>
                            </g>
                            <g id="Token/Large" transform="translate(8.244295, 3.583368)">
                                <g id="Token">
                                    <ellipse id="Oval" fill="#B54001" fill-rule="nonzero" cx="4.71634615" cy="4.68695466" rx="4.28365385" ry="3.81421233"></ellipse>
                                    <ellipse id="Oval" fill="url(#linearGradient-1)" fill-rule="nonzero" cx="4.28365385" cy="4.30168068" rx="4.28365385" ry="3.81421233"></ellipse>
                                    <ellipse id="Oval" fill="url(#linearGradient-2)" fill-rule="nonzero" cx="4.28365385" cy="4.31008644" rx="3.67788462" ry="3.27482877"></ellipse>
                                    <path d="M6.84822185,7.35728918 C6.59997173,7.52279928 6.3322144,7.66374146 6.04968646,7.77762247 L5.36862877,7.43164767 C5.68493102,7.34478867 5.98652991,7.22010575 6.26516723,7.06101288 L6.84822185,7.35728918 Z" id="Shape" fill="#FFF7B4" fill-rule="nonzero"></path>
                                    <path d="M8.06257246,4.39164247 C8.06258008,5.72777529 7.15095831,6.92992274 5.75909047,7.4292235 C4.36722264,7.92852425 2.77426613,7.62483698 1.73401477,6.66186781 C3.17786951,7.8985073 5.46770481,7.8787106 6.88431989,6.617341 C8.30093498,5.35597141 8.3231682,3.31707696 6.93432692,2.03145288 C7.65625735,2.64819711 8.06383324,3.50080971 8.06257246,4.39164247 Z" id="Shape" fill="#FFF7B4" fill-rule="nonzero"></path>
                                    <path d="M6.91528846,2.01392384 C5.47377019,0.763304082 3.1710433,0.776622771 1.74789297,2.04381141 C0.32474265,3.31100006 0.309784739,5.36137332 1.71432692,6.64491699 C0.766643431,5.82104518 0.389650694,4.6070949 0.727344359,3.466745 C1.06503802,2.3263951 2.06525619,1.43578988 3.34595685,1.13510374 C4.62665751,0.834417604 5.99001705,1.17009607 6.91528846,2.01392384 Z" id="Shape" fill="#D75200" fill-rule="nonzero"></path>
                                    <path d="M8.76223662,5.94352356 C8.21542278,7.33609973 6.81661295,8.32363281 5.16915969,8.4801674 C4.92620538,8.35841959 4.655988,8.22145438 4.45218923,8.11280712 C6.1915446,8.05189117 7.71671224,7.06020782 8.31137262,5.60351712 L8.76223662,5.94352356 Z" id="Shape" fill="url(#linearGradient-3)" fill-rule="nonzero"></path>
                                    <path d="M6.84822185,7.35728918 C6.59997173,7.52279928 6.3322144,7.66374146 6.04968646,7.77762247 L5.36862877,7.43164767 C5.68493102,7.34478867 5.98652991,7.22010575 6.26516723,7.06101288 L6.84822185,7.35728918 Z" id="Shape" fill="#FFF7B4" fill-rule="nonzero"></path>
                                    <path d="M3.00634754,1.22989068 C2.7064106,1.3287425 2.42230996,1.46215544 2.16129738,1.62672411 L1.58927954,1.3362263 C1.82498329,1.16612509 2.08033722,1.01882841 2.35103262,0.896821644 L3.00634754,1.22989068 Z" id="Shape" fill="#FFF7B4" fill-rule="nonzero"></path>
                                    <g id="Group" style="mix-blend-mode: screen;" transform="translate(1.523077, 0.000000)" fill-rule="nonzero">
                                        <polygon id="Shape" fill="url(#radialGradient-8)" points="2.19073846 0.630863014 2.19170769 0.631726027 1.4976 1.27467123 1.4688 1.24890411"></polygon>
                                        <polygon id="Shape" fill="url(#radialGradient-9)" points="1.4688 1.24890411 1.4976 1.27467123 0.775107692 1.89234247 0.774969231 1.89221918"></polygon>
                                        <polygon id="Shape" fill="url(#radialGradient-10)" points="2.19170769 1.89184932 2.19073846 1.89271233 1.4688 1.27467123 1.4976 1.24890411"></polygon>
                                        <polygon id="Shape" fill="url(#radialGradient-11)" points="1.4976 1.24890411 1.4688 1.27467123 0.774969231 0.631356164 0.775107692 0.631232877"></polygon>
                                    </g>
                                    <g id="Group" style="mix-blend-mode: screen;" transform="translate(4.707692, 5.794521)" fill-rule="nonzero">
                                        <polygon id="Shape" fill="url(#radialGradient-16)" points="2.56707692 0.859438356 2.56804615 0.860424658 1.75126154 1.6170411 1.7172 1.58683562"></polygon>
                                        <polygon id="Shape" fill="url(#radialGradient-17)" points="1.7172 1.58683562 1.75126154 1.6170411 0.900969231 2.34406849 0.900830769 2.34382192"></polygon>
                                        <polygon id="Shape" fill="url(#radialGradient-18)" points="2.56804615 2.34345205 2.56707692 2.34443836 1.7172 1.6170411 1.75126154 1.58683562"></polygon>
                                        <polygon id="Shape" fill="url(#radialGradient-19)" points="1.75126154 1.58683562 1.7172 1.6170411 0.900830769 0.860054795 0.900969231 0.859808219"></polygon>
                                    </g>
                                    <path d="M6.16721538,6.18302589 L2.79668769,6.18302589 C2.31403055,6.18252314 1.92290236,5.83425335 1.92234462,5.40449014 L1.92234462,4.77569342 C1.92296421,4.25631991 2.39564133,3.83541103 2.97893769,3.83481986 L6.21402369,3.83481986 C6.26173676,3.83480136 6.30399207,3.80738701 6.31863217,3.7669521 C6.33327227,3.7265172 6.3169561,3.68228948 6.27823938,3.65746068 L4.33368554,2.40935425 L2.60829138,3.37064301 C2.57131205,3.39137977 2.52470545,3.39293699 2.48608477,3.37472618 C2.44746408,3.35651537 2.42271941,3.32131388 2.42120206,3.28242478 C2.41968472,3.24353568 2.4416261,3.20689 2.47873431,3.18633658 L4.27379123,2.18625534 C4.31583287,2.16280879 4.36963737,2.16438147 4.40986154,2.1902326 L6.42106246,3.48113959 C6.54569601,3.56115144 6.59816868,3.70359472 6.55097096,3.83379162 C6.50377324,3.96398852 6.36767344,4.05223425 6.21402369,4.05226479 L2.97893631,4.05226479 C2.53045117,4.05274715 2.16702214,4.37636102 2.166498,4.77569712 L2.166498,5.40449384 C2.16690472,5.71423985 2.44881907,5.96524237 2.79668769,5.96558342 L6.16721538,5.96558342 C6.31468395,5.96558342 6.43423085,5.85913756 6.43423085,5.72782993 C6.43423085,5.5965223 6.31468395,5.49007644 6.16721538,5.49007644 L3.86684862,5.49086671 C3.86316305,5.49119529 3.85946035,5.49134756 3.85575646,5.49132288 L3.23475646,5.49193932 C2.95238567,5.49196519 2.72345537,5.28816508 2.72342631,5.03673904 C2.72339725,4.785313 2.95228044,4.58147094 3.23465123,4.58144507 L6.38069815,4.58144507 C6.44815863,4.58144507 6.50284615,4.63013944 6.50284615,4.69020699 C6.50284615,4.75027453 6.44815863,4.7989689 6.38069815,4.7989689 L3.23465677,4.7989689 C3.08721191,4.7989689 2.96768423,4.90539766 2.96768423,5.03668418 C2.96768423,5.1679707 3.08721191,5.27439945 3.23465677,5.27439945 L3.84422815,5.27387795 C3.84799229,5.2735178 3.85177543,5.27333795 3.85556123,5.27333918 L6.16721677,5.27263644 C6.35005901,5.2723685 6.51914109,5.35906996 6.61064919,5.5000185 C6.70215728,5.64096705 6.70215728,5.81470021 6.61064919,5.95564876 C6.51914109,6.09659731 6.35005901,6.18329876 6.16721677,6.18303082 L6.16721538,6.18302589 Z" id="Shape" fill="url(#linearGradient-20)" fill-rule="nonzero"></path>
                                    <path d="M6.06019985,6.13834027 L2.68967215,6.13834027 C2.20701501,6.13783752 1.81588682,5.78956774 1.81532908,5.35980452 L1.81532908,4.73100781 C1.81594867,4.21163429 2.28862579,3.79072541 2.87192215,3.79013425 L6.10700815,3.79013425 C6.15472122,3.79011574 6.19697653,3.76270139 6.21161663,3.72226649 C6.22625673,3.68183158 6.20994056,3.63760387 6.17122385,3.61277507 L4.22667,2.36466863 L2.50128277,3.3259574 C2.46430343,3.34669416 2.41769684,3.34825138 2.37907615,3.33004056 C2.34045546,3.31182975 2.3157108,3.27662827 2.31419345,3.23773916 C2.3126761,3.19885006 2.33461748,3.16220438 2.37172569,3.14165096 L4.16678262,2.14156973 C4.20882425,2.11812318 4.26262875,2.11969585 4.30285292,2.14554699 L6.31405108,3.43644904 C6.43868463,3.51646089 6.49115729,3.65890417 6.44395957,3.78910107 C6.39676186,3.91929797 6.26066205,4.0075437 6.10701231,4.00757425 L2.87192077,4.00757425 C2.42343563,4.0080566 2.0600066,4.33167047 2.05948246,4.73100658 L2.05948246,5.35980329 C2.05988918,5.6695493 2.34180353,5.92055183 2.68967215,5.92089288 L6.06019985,5.92089288 C6.20766841,5.92089288 6.32721531,5.81444701 6.32721531,5.68313938 C6.32721531,5.55183176 6.20766841,5.44538589 6.06019985,5.44538589 L3.75983308,5.44617616 C3.75614751,5.44650474 3.75244481,5.44665701 3.74874092,5.44663233 L3.12774092,5.44724877 C2.84537014,5.44727464 2.61643983,5.24347454 2.61641077,4.99204849 C2.61638171,4.74062245 2.8452649,4.53678039 3.12763569,4.53675452 L6.27367985,4.53675452 C6.34114032,4.53675452 6.39582785,4.58544889 6.39582785,4.64551644 C6.39582785,4.70558399 6.34114032,4.75427836 6.27367985,4.75427836 L3.12764123,4.75427836 C2.98019637,4.75427836 2.86066869,4.86070711 2.86066869,4.99199363 C2.86066869,5.12328015 2.98019637,5.2297089 3.12764123,5.2297089 L3.73721262,5.2291874 C3.74097675,5.22882726 3.74475989,5.22864741 3.74854569,5.22864863 L6.06019985,5.22794589 C6.24304208,5.22767796 6.41212417,5.31437941 6.50363226,5.45532796 C6.59514036,5.5962765 6.59514036,5.77000966 6.50363226,5.91095821 C6.41212417,6.05190676 6.24304208,6.13860821 6.06019985,6.13834027 Z" id="Shape" fill="url(#radialGradient-21)" fill-rule="nonzero"></path>
                                    <g id="Group" style="mix-blend-mode: screen;" transform="translate(0.830769, 3.452055)"></g>
                                </g>
                            </g>
                            <path d="M0,8.26282483 L0,19.381162 C0,20.3536731 0.806489972,21.1418707 1.80157092,21.1418707 L16.9849014,21.1418707 L16.9849014,10.266232 L2.04990189,10.266232 C0.917770361,10.266232 0,9.36927797 0,8.26282483 Z" id="Shape" fill="#77442B" fill-rule="nonzero"></path>
                            <path d="M15.6855687,12.2256082 L15.0851272,12.2256082 C14.9191051,12.2256082 14.7849064,12.0465047 14.7849064,11.8249293 C14.7849064,11.6033539 14.9191051,11.4242505 15.0851272,11.4242505 L15.6855687,11.4242505 C15.8515908,11.4242505 15.9857895,11.6033539 15.9857895,11.8249293 C15.9857895,12.0465047 15.8515908,12.2256082 15.6855687,12.2256082 Z M13.884244,12.2256082 L13.2838024,12.2256082 C13.1177803,12.2256082 12.9835816,12.0465047 12.9835816,11.8249293 C12.9835816,11.6033539 13.1177803,11.4242505 13.2838024,11.4242505 L13.884244,11.4242505 C14.0502661,11.4242505 14.1844648,11.6033539 14.1844648,11.8249293 C14.1844648,12.0465047 14.0502661,12.2256082 13.884244,12.2256082 Z M12.0829192,12.2256082 L11.4824776,12.2256082 C11.3164556,12.2256082 11.1822569,12.0465047 11.1822569,11.8249293 C11.1822569,11.6033539 11.3164556,11.4242505 11.4824776,11.4242505 L12.0829192,11.4242505 C12.2489413,11.4242505 12.38314,11.6033539 12.38314,11.8249293 C12.38314,12.0465047 12.2489413,12.2256082 12.0829192,12.2256082 Z M10.2815945,12.2256082 L9.6811529,12.2256082 C9.5151308,12.2256082 9.3809321,12.0465047 9.3809321,11.8249293 C9.3809321,11.6033539 9.5151308,11.4242505 9.6811529,11.4242505 L10.2815945,11.4242505 C10.4476166,11.4242505 10.5818153,11.6033539 10.5818153,11.8249293 C10.5818153,12.0465047 10.4476166,12.2256082 10.2815945,12.2256082 Z M8.48026973,12.2256082 L7.87982814,12.2256082 C7.71380605,12.2256082 7.57960735,12.0465047 7.57960735,11.8249293 C7.57960735,11.6033539 7.71380605,11.4242505 7.87982814,11.4242505 L8.48026973,11.4242505 C8.64629183,11.4242505 8.78049052,11.6033539 8.78049052,11.8249293 C8.78049052,12.0465047 8.64629183,12.2256082 8.48026973,12.2256082 Z M6.67894498,12.2256082 L6.07850339,12.2256082 C5.91248129,12.2256082 5.7782826,12.0465047 5.7782826,11.8249293 C5.7782826,11.6033539 5.91248129,11.4242505 6.07850339,11.4242505 L6.67894498,11.4242505 C6.84496707,11.4242505 6.97916577,11.6033539 6.97916577,11.8249293 C6.97916577,12.0465047 6.84496707,12.2256082 6.67894498,12.2256082 Z M4.87762022,12.2256082 L4.27717864,12.2256082 C4.11115654,12.2256082 3.97695785,12.0465047 3.97695785,11.8249293 C3.97695785,11.6033539 4.11115654,11.4242505 4.27717864,11.4242505 L4.87762022,11.4242505 C5.04364232,11.4242505 5.17784102,11.6033539 5.17784102,11.8249293 C5.17784102,12.0465047 5.04364232,12.2256082 4.87762022,12.2256082 Z M3.07629547,12.2256082 L2.47585389,12.2256082 C2.30983179,12.2256082 2.1756331,12.0465047 2.1756331,11.8249293 C2.1756331,11.6033539 2.30983179,11.4242505 2.47585389,11.4242505 L3.07629547,11.4242505 C3.24231757,11.4242505 3.37651626,11.6033539 3.37651626,11.8249293 C3.37651626,12.0465047 3.24231757,12.2256082 3.07629547,12.2256082 Z M1.30229081,11.9731805 C1.26056012,11.9731805 1.21822899,11.9615608 1.17769918,11.9367187 C0.969646174,11.8097035 0.776303984,11.6438225 0.603076587,11.4434831 C0.477884517,11.2980366 0.464374581,11.0448076 0.572754287,10.8777245 C0.681734434,10.7106415 0.871173754,10.6926109 0.996365824,10.837256 C1.12636143,10.9879112 1.27136807,11.1125223 1.42748288,11.2078839 C1.57819372,11.2996394 1.64454251,11.5376426 1.57549173,11.7387834 C1.52505464,11.8862332 1.41637471,11.9731805 1.30229081,11.9731805 Z" id="Shape" fill="#91553D" fill-rule="nonzero"></path>
                            <path d="M15.6855687,20.6465228 L15.0851272,20.6465228 C14.9191051,20.6465228 14.7849064,20.4674193 14.7849064,20.2458439 C14.7849064,20.0242685 14.9191051,19.8451651 15.0851272,19.8451651 L15.6855687,19.8451651 C15.8515908,19.8451651 15.9857895,20.0242685 15.9857895,20.2458439 C15.9857895,20.4674193 15.8515908,20.6465228 15.6855687,20.6465228 Z M13.884244,20.6465228 L13.2838024,20.6465228 C13.1177803,20.6465228 12.9835816,20.4674193 12.9835816,20.2458439 C12.9835816,20.0242685 13.1177803,19.8451651 13.2838024,19.8451651 L13.884244,19.8451651 C14.0502661,19.8451651 14.1844648,20.0242685 14.1844648,20.2458439 C14.1844648,20.4674193 14.0502661,20.6465228 13.884244,20.6465228 Z M12.0829192,20.6465228 L11.4824776,20.6465228 C11.3164556,20.6465228 11.1822569,20.4674193 11.1822569,20.2458439 C11.1822569,20.0242685 11.3164556,19.8451651 11.4824776,19.8451651 L12.0829192,19.8451651 C12.2489413,19.8451651 12.38314,20.0242685 12.38314,20.2458439 C12.38314,20.4674193 12.2489413,20.6465228 12.0829192,20.6465228 Z M10.2815945,20.6465228 L9.6811529,20.6465228 C9.5151308,20.6465228 9.3809321,20.4674193 9.3809321,20.2458439 C9.3809321,20.0242685 9.5151308,19.8451651 9.6811529,19.8451651 L10.2815945,19.8451651 C10.4476166,19.8451651 10.5818153,20.0242685 10.5818153,20.2458439 C10.5818153,20.4674193 10.4476166,20.6465228 10.2815945,20.6465228 Z M8.48026973,20.6465228 L7.87982814,20.6465228 C7.71380605,20.6465228 7.57960735,20.4674193 7.57960735,20.2458439 C7.57960735,20.0242685 7.71380605,19.8451651 7.87982814,19.8451651 L8.48026973,19.8451651 C8.64629183,19.8451651 8.78049052,20.0242685 8.78049052,20.2458439 C8.78049052,20.4674193 8.64629183,20.6465228 8.48026973,20.6465228 Z M6.67894498,20.6465228 L6.07850339,20.6465228 C5.91248129,20.6465228 5.7782826,20.4674193 5.7782826,20.2458439 C5.7782826,20.0242685 5.91248129,19.8451651 6.07850339,19.8451651 L6.67894498,19.8451651 C6.84496707,19.8451651 6.97916577,20.0242685 6.97916577,20.2458439 C6.97916577,20.4674193 6.84496707,20.6465228 6.67894498,20.6465228 Z M4.87762022,20.6465228 L4.27717864,20.6465228 C4.11115654,20.6465228 3.97695785,20.4674193 3.97695785,20.2458439 C3.97695785,20.0242685 4.11115654,19.8451651 4.27717864,19.8451651 L4.87762022,19.8451651 C5.04364232,19.8451651 5.17784102,20.0242685 5.17784102,20.2458439 C5.17784102,20.4674193 5.04364232,20.6465228 4.87762022,20.6465228 Z M3.07629547,20.6465228 L2.47585389,20.6465228 C2.30983179,20.6465228 2.1756331,20.4674193 2.1756331,20.2458439 C2.1756331,20.0242685 2.30983179,19.8451651 2.47585389,19.8451651 L3.07629547,19.8451651 C3.24231757,19.8451651 3.37651626,20.0242685 3.37651626,20.2458439 C3.37651626,20.4674193 3.24231757,20.6465228 3.07629547,20.6465228 Z M1.30229081,20.3940951 C1.26056012,20.3940951 1.21822899,20.3824754 1.17769918,20.3576333 C0.969646174,20.2306181 0.776303984,20.0647371 0.603076587,19.8643976 C0.477884517,19.7189512 0.464374581,19.4657222 0.572754287,19.2986391 C0.681734434,19.131556 0.871173754,19.1135255 0.996365824,19.2581706 C1.12636143,19.4088258 1.27136807,19.5334369 1.42748288,19.6287985 C1.57819372,19.7205539 1.64454251,19.9585572 1.57549173,20.159698 C1.52505464,20.3071478 1.41637471,20.3940951 1.30229081,20.3940951 Z" id="Shape" fill="#91553D" fill-rule="nonzero"></path>
                            <path d="M16.9849014,17.6744352 L13.6545286,17.6744352 C12.7347906,17.6744352 11.9893421,16.8983076 11.9893421,15.9407175 C11.9893421,14.9831275 12.7347906,14.2069998 13.6545286,14.2069998 L16.9849014,14.2069998 L16.9849014,17.6744352 Z" id="Shape" fill="#6D3D25" fill-rule="nonzero"></path>
                            <path d="M16.9849014,17.1790873 L13.6545286,17.1790873 C12.7347906,17.1790873 11.9893421,16.4029597 11.9893421,15.4453696 C11.9893421,14.4877795 12.7347906,13.7116519 13.6545286,13.7116519 L16.9849014,13.7116519 L16.9849014,17.1790873 Z" id="Shape" fill="#5E3118" fill-rule="nonzero"></path>
                            <ellipse id="Oval" fill="#E4C05C" fill-rule="nonzero" cx="13.7377879" cy="14.9500217" rx="1" ry="1"></ellipse>
                        </g>
                    </g>
                </g>
            </g>
        </g>
    </g>
</svg>