<?xml version="1.0" encoding="UTF-8"?>
<svg width="42px" height="72px" viewBox="0 0 42 72" version="1.1" xmlns="http://www.w3.org/2000/svg" xmlns:xlink="http://www.w3.org/1999/xlink">
    <!-- Generator: Sketch 48.2 (47327) - http://www.bohemiancoding.com/sketch -->
    <title>Icons/Color/Man Purple Shirt</title>
    <desc>Created with Sketch.</desc>
    <defs></defs>
    <g id="KYC---ID-Verification---Step-2-Upload-Photos" stroke="none" stroke-width="1" fill="none" fill-rule="evenodd" transform="translate(-611.000000, -563.000000)">
        <g id="Group-17" transform="translate(330.000000, 563.000000)">
            <g id="Group-16" transform="translate(231.000000, 0.000000)">
                <g id="Icons/Color/Man-Purple-Shirt" transform="translate(50.000000, 0.000000)">
                    <g id="man-(4)" transform="translate(0.031011, 0.000000)">
                        <g id="Group" fill-rule="nonzero">
                            <path d="M41.4204631,71.9031204 L41.4204631,71.9068901 L0.215328232,71.9068901 L0.215328232,71.9031204 C0.215328232,69.5814031 0.599896899,67.3452565 1.31463552,65.2640419 C1.44269915,64.8882094 1.58247362,64.5161466 1.73395892,64.1478534 L1.73395892,64.1440838 C1.88166653,63.7757906 2.0444849,63.4154136 2.21561418,63.0591832 C2.8952203,61.6289843 3.74217801,60.2918953 4.72475473,59.0671414 C4.97332662,58.7606702 5.22605397,58.4624921 5.48595892,58.175623 C5.61402255,58.0282304 5.75001933,57.8849843 5.88601611,57.7413613 C6.02201289,57.6018848 6.15800967,57.4624084 6.29778413,57.3229319 C6.99287878,56.6289424 7.73859444,55.9933822 8.5232203,55.4083351 C8.91572211,55.1176963 9.31162384,54.8462827 9.72339186,54.5827853 C9.87109948,54.4896754 10.0184293,54.3965654 10.1699146,54.3076021 C10.2360242,54.2687749 10.3059114,54.2299476 10.3720209,54.1911204 C10.5741273,54.0708691 10.7758558,53.9547644 10.9817398,53.8424293 C10.989673,53.8345131 10.9972284,53.8345131 10.9972284,53.8345131 C11.1642022,53.7451728 11.3273983,53.6482932 11.4905944,53.547644 C11.9760274,53.2570052 12.4421941,52.9350785 12.8849392,52.5788482 C14.310261,51.4472042 15.4911663,50.0207749 16.3377463,48.3968168 C16.6059621,47.8815079 16.8428232,47.3465969 17.0407741,46.7962304 C17.5341402,45.4240838 17.802356,43.9475183 17.802356,42.4049843 L20.8044849,42.4204398 L20.812418,42.4204398 L23.8923673,42.4362723 C23.8923673,43.9592042 24.15265,45.4206911 24.6339275,46.7770052 C24.8281007,47.3315183 25.0611841,47.8660524 25.3290222,48.3817382 C26.1718244,50.0132356 27.3489521,51.4472042 28.7742739,52.5829948 C29.0538228,52.8114346 29.3375272,53.0210262 29.6367201,53.218555 C29.6676971,53.2419267 29.6948965,53.2611518 29.7258735,53.2807539 C29.865648,53.3738639 30.0054225,53.4669738 30.1531301,53.5521675 C30.3125485,53.6490471 30.4757447,53.7459267 30.638563,53.8348901 C30.6657624,53.8428063 30.6891841,53.8541152 30.7084503,53.8695707 C30.8909126,53.9705969 31.0737527,54.0750157 31.2520596,54.1835812 C31.4077004,54.2725445 31.5629634,54.3656545 31.7182263,54.462534 C31.877267,54.5594136 32.0366855,54.6600628 32.1919484,54.7723979 C32.5141853,54.9778429 32.8288667,55.2028901 33.135615,55.4350995 C33.135615,55.4388691 33.1393927,55.4388691 33.1393927,55.4388691 L33.1435481,55.4388691 C33.5356722,55.7295079 33.9164631,56.0397487 34.289321,56.3571518 C34.6621788,56.6749319 35.0195481,57.0085445 35.3652066,57.353466 C39.1092735,61.0744712 41.4204631,66.2136126 41.4204631,71.9031204 Z" id="Shape" fill="#F0BB8E"></path>
                            <path d="M41.4204631,71.9031204 L0.215328232,71.9031204 C0.215328232,69.5814031 0.599896899,67.3452565 1.31463552,65.2640419 C1.44269915,64.8882094 1.58247362,64.5161466 1.73395892,64.1478534 L1.73395892,64.1440838 C1.88166653,63.7757906 2.0444849,63.4154136 2.21561418,63.0591832 C2.8952203,61.6289843 3.74217801,60.2918953 4.72475473,59.0671414 C4.97332662,58.7606702 5.22605397,58.4624921 5.48595892,58.175623 C5.61402255,58.0282304 5.75001933,57.8849843 5.88601611,57.7413613 C6.02201289,57.6018848 6.15800967,57.4624084 6.29778413,57.3229319 C6.99287878,56.6289424 7.73859444,55.9933822 8.5232203,55.4083351 C8.91572211,55.1176963 9.31162384,54.8462827 9.72339186,54.5827853 C9.87109948,54.4896754 10.0184293,54.3965654 10.1699146,54.3076021 C10.2360242,54.2650052 10.3021337,54.226178 10.3678655,54.1873508 C10.5699718,54.0670995 10.7758558,53.9509948 10.9817398,53.8386597 C10.989673,53.8307435 10.9972284,53.8348901 10.9972284,53.8348901 L10.9972284,53.8311204 C11.1642022,53.7380105 11.3273983,53.6449005 11.4905944,53.5483979 C11.9760274,53.2536126 12.4421941,52.9282932 12.877006,52.5716859 C12.8807837,52.5754555 12.8807837,52.5754555 12.8849392,52.5792251 C14.896936,54.6332984 17.6973363,55.9085654 20.8044849,55.9161047 L20.8354619,55.9161047 C23.9426106,55.9161047 26.7547217,54.6370681 28.7742739,52.5829948 L28.7780516,52.5792251 C29.0538228,52.8080419 29.3413049,53.0210262 29.6363423,53.218555 C29.6673194,53.2419267 29.6945187,53.2611518 29.7254958,53.2807539 C29.8652702,53.3738639 30.0088224,53.4628272 30.1527523,53.5521675 C30.3121708,53.6490471 30.4753669,53.7421571 30.6381853,53.8311204 C30.6653846,53.8390366 30.6846508,53.8544921 30.7080725,53.865801 C30.8905348,53.9668272 31.0771526,54.0712461 31.2558373,54.1798115 C31.4111003,54.2729215 31.566741,54.3660314 31.7182263,54.462911 C31.877267,54.5597906 32.0366855,54.6604398 32.1919484,54.7727749 C32.5141853,54.9782199 32.8288667,55.203267 33.135615,55.4354764 L33.1435481,55.4354764 C33.5356722,55.7298848 33.9202408,56.036356 34.289321,56.3579058 C34.6621788,56.6756859 35.0195481,57.0092984 35.3652066,57.3542199 C39.1092735,61.0744712 41.4204631,66.2136126 41.4204631,71.9031204 Z" id="Shape" fill="#473B7B"></path>
                            <path d="M31.2558373,54.1798115 L31.2520596,54.1835812 L30.8285807,54.6136963 C28.1641772,57.3229319 24.6063504,58.8149529 20.8116625,58.8149529 C20.8078848,58.8149529 20.8078848,58.8149529 20.8037294,58.8149529 C16.9742867,58.803267 13.4281708,57.3112461 10.7754781,54.6061571 L10.3716432,54.1914974 L10.3678655,54.1877277 C10.5699718,54.0674764 10.7758558,53.9513717 10.9817398,53.8390366 C10.989673,53.8311204 10.9972284,53.835267 10.9972284,53.835267 L10.9972284,53.8314974 C11.1642022,53.7383874 11.3273983,53.6452775 11.4905944,53.5487749 C11.9760274,53.2539895 12.4421941,52.9286702 12.877006,52.5720628 C12.8807837,52.5758325 12.8807837,52.5758325 12.8849392,52.5796021 C14.896936,54.6336754 17.6973363,55.9089424 20.8044849,55.9164817 L20.8354619,55.9164817 C23.9426106,55.9164817 26.7547217,54.637445 28.7742739,52.5833717 L28.7780516,52.5796021 C29.0538228,52.8084188 29.3413049,53.0214031 29.6363423,53.2189319 C29.6673194,53.2423037 29.6945187,53.2615288 29.7254958,53.2811309 C29.8652702,53.3742408 30.0088224,53.4632042 30.1527523,53.5525445 C30.3121708,53.6494241 30.4753669,53.742534 30.6381853,53.8314974 C30.6653846,53.8394136 30.6846508,53.8548691 30.7080725,53.866178 C30.8909126,53.9664503 31.0775304,54.0712461 31.2558373,54.1798115 Z" id="Shape" fill="#FFFFFF"></path>
                            <g transform="translate(4.910995, 0.000000)">
                                <path d="M31.720493,20.3914555 L31.720493,29.8517277 C31.720493,30.0221152 31.7167153,30.1928796 31.7129376,30.363267 C31.7091599,30.4948272 31.7050044,30.6267644 31.6974491,30.7583246 C31.6936714,30.8902618 31.6857382,31.0180524 31.6740274,31.1496126 C31.6702497,31.2385759 31.6623166,31.3279162 31.6547612,31.4172565 C31.6509835,31.4715393 31.6472058,31.5216754 31.6392727,31.5759581 C31.6317173,31.6728377 31.6237841,31.7734869 31.6082956,31.8703665 C31.6003625,31.9634764 31.5928071,32.0565864 31.5773186,32.1493194 C31.5693854,32.2386597 31.5580524,32.3313927 31.5421861,32.4245026 C31.5074313,32.7034555 31.460588,32.9824084 31.409967,33.2575916 C31.3752122,33.4438115 31.3400797,33.6296545 31.3011696,33.8121047 C31.2973919,33.8200209 31.2973919,33.8275602 31.2936142,33.8354764 C31.2898365,33.8626178 31.285681,33.8897592 31.2781257,33.9169005 C31.274348,33.9248168 31.274348,33.932356 31.2701925,33.9402723 C31.2701925,33.9481885 31.2701925,33.9557277 31.2664148,33.963644 C31.2584817,34.0024712 31.2509263,34.0412984 31.2392155,34.0797487 C31.2316601,34.1261152 31.2199493,34.1728586 31.2082384,34.2192251 C31.200683,34.2697382 31.1885944,34.3161047 31.1731059,34.3628482 C31.1613951,34.4325864 31.1421289,34.5023246 31.1262626,34.5720628 C31.1145518,34.6108901 31.1069964,34.6534869 31.0915079,34.6923141 C31.0835747,34.7273717 31.0722416,34.7620524 31.0643085,34.7933403 C30.9827104,35.1111204 30.8894015,35.4209843 30.7923149,35.7312251 C30.7458494,35.8786178 30.699006,36.0218639 30.6487628,36.1692565 C30.6446073,36.184712 30.637052,36.2001675 30.6328965,36.215623 C30.5864309,36.3475602 30.5395876,36.4791204 30.493122,36.6110576 C30.4776335,36.6498848 30.462145,36.6883351 30.4466565,36.7313089 C30.3998131,36.8553298 30.3533476,36.9793508 30.3031043,37.1033717 C30.2449279,37.254534 30.1825961,37.4019267 30.120642,37.5493194 C30.0662433,37.6812565 30.0080669,37.8128168 29.9495127,37.944377 C29.9419573,37.9677487 29.9302465,37.9869738 29.9223133,38.0103455 C29.8562038,38.149822 29.7942497,38.2892984 29.7281402,38.4250052 C29.6620306,38.5682513 29.5921434,38.7118743 29.5184785,38.8554974 C29.378704,39.1382199 29.2272187,39.4213194 29.0757334,39.6965026 L28.8660717,40.0685654 C28.2676859,41.0957906 27.6035683,42.0608168 26.8812743,42.9519581 C26.7841877,43.0797487 26.6833234,43.2037696 26.5783037,43.3240209 C26.4343737,43.498555 26.2870439,43.6689424 26.1393363,43.8355602 C26.0071172,43.9829529 25.8752759,44.1299686 25.7392791,44.2735916 C25.3664213,44.6727958 24.9856303,45.0527749 24.5972839,45.4093822 C24.5194636,45.4870366 24.4382433,45.5567749 24.3562674,45.6302827 C24.2240483,45.750534 24.092207,45.8666387 23.9562102,45.9789738 C23.8511905,46.0720838 23.7427708,46.1610471 23.6335957,46.2503874 C23.3540467,46.4788272 23.0744978,46.6997277 22.7907934,46.9051728 C22.6740628,46.9945131 22.5539323,47.0797068 22.4334241,47.1611309 C22.2392509,47.3006073 22.0409223,47.4325445 21.8429714,47.5603351 C21.734174,47.6338429 21.6215989,47.7035812 21.5090238,47.7695497 C21.1478768,47.9942199 20.7787966,48.1996649 20.4176496,48.3817382 C20.3828949,48.4009634 20.3519178,48.4164188 20.3167853,48.4318743 C20.2196988,48.4823874 20.1226122,48.5287539 20.0255256,48.5754974 C19.928439,48.6218639 19.8275747,48.6686073 19.722555,48.7149738 C19.5944913,48.7730262 19.4664277,48.8273089 19.3379863,48.877822 C19.2873653,48.9008168 19.2367443,48.9204188 19.186501,48.9358743 C19.0350157,48.9976963 18.8793749,49.0561257 18.7282674,49.1062618 C18.5378719,49.176 18.3436988,49.2340524 18.153681,49.2883351 C18.0214619,49.3271623 17.8858429,49.3618429 17.7536238,49.3927539 C17.7456907,49.3969005 17.7381353,49.4006702 17.7264245,49.4006702 C17.5942054,49.4315812 17.4623641,49.4624921 17.330145,49.4858639 C17.2950125,49.4937801 17.2602578,49.5013194 17.2251253,49.505089 C17.1163278,49.5243141 17.0075304,49.5439162 16.898733,49.5556021 C16.74347,49.5785969 16.588207,49.598199 16.432944,49.6061152 C16.3785453,49.6140314 16.3279243,49.617801 16.2739033,49.617801 C16.1496174,49.6253403 16.0253315,49.6294869 15.9048232,49.6294869 L15.8931124,49.6294869 C15.7726041,49.6294869 15.6524736,49.6257173 15.5319654,49.617801 C15.485122,49.617801 15.4386565,49.6140314 15.3921909,49.6061152 C15.2833935,49.6019686 15.1708184,49.5906597 15.0540878,49.5752042 C15.0306661,49.5752042 15.0034668,49.5714346 14.9804229,49.567288 C14.8368707,49.5480628 14.6929408,49.5246911 14.5452332,49.4975497 C14.4209472,49.4783246 14.2966613,49.4511832 14.1685977,49.4202723 C13.5044801,49.2691099 12.8210963,49.0402932 12.1294015,48.734199 C11.8963182,48.6294031 11.6594571,48.5212147 11.4263737,48.3968168 C11.0652267,48.2185131 10.7040797,48.0168377 10.3467104,47.7959372 C10.0475175,47.6138639 9.74832461,47.4201047 9.45328715,47.2146597 C9.30557954,47.1098639 9.1582497,47.005445 9.01054209,46.8968796 C8.54853081,46.5594974 8.08991945,46.1915812 7.63961901,45.7961466 C7.51533306,45.6838115 7.39104712,45.5714764 7.26676118,45.4549948 C7.14247523,45.3426597 7.01818929,45.226555 6.89768103,45.1138429 C6.59471043,44.8232042 6.29967298,44.5208796 6.0121909,44.2068691 C5.89961579,44.0866178 5.78704068,43.9629738 5.6740878,43.8348063 C5.36356182,43.4861152 5.06021345,43.1257382 4.77310914,42.7495288 C4.66053403,42.613822 4.5555143,42.4743455 4.45087233,42.3348691 C4.05874829,41.8157906 3.68589046,41.2729634 3.33607652,40.710911 C3.24276762,40.5597487 3.14983649,40.4044398 3.06030528,40.2536545 C2.95150785,40.0715812 2.84686589,39.8853613 2.74184615,39.6995183 C2.3534998,39.0017592 1.99613049,38.2772356 1.68522674,37.5289634 C1.63876118,37.4203979 1.59191784,37.3118325 1.55300765,37.203644 C1.49105356,37.0641675 1.43665485,36.9209215 1.38603383,36.7810681 C1.30821345,36.575623 1.23454853,36.370178 1.1646613,36.164733 C1.09477406,35.959288 1.02866452,35.7500733 0.962554974,35.5408586 C0.900223117,35.3391832 0.842046718,35.1378848 0.787648006,34.9324398 C0.725693919,34.7153089 0.667517519,34.4944084 0.616896496,34.2697382 C0.613118808,34.2463665 0.605185663,34.2229948 0.601407974,34.2 C0.527743053,33.8901361 0.461633508,33.5761257 0.403457108,33.2579686 C0.32563673,32.8395393 0.263682642,32.4131937 0.216839307,31.9830785 C0.197573097,31.8473717 0.185862263,31.7116649 0.17415143,31.5759581 C0.158662908,31.432712 0.146952074,31.2928586 0.139396698,31.1496126 C0.120130487,30.8898848 0.108419654,30.6263874 0.100486508,30.3628901 C0.09670882,30.1921257 0.0925533629,30.0217382 0.0925533629,29.8513508 L0.0925533629,20.3914555 C0.0925533629,18.2250471 0.531520741,16.159288 1.32370197,14.2793717 C1.34296818,14.225089 1.36638985,14.1749529 1.38981152,14.1244398 C1.69693758,13.4153717 2.05392912,12.7330681 2.46191945,12.0820524 C2.52425131,11.9776335 2.58998308,11.8766073 2.65609263,11.7759581 C5.47575916,7.46613613 10.3504881,4.61742408 15.8927346,4.61365445 L15.9082231,4.61365445 C17.1125501,4.61365445 18.2851446,4.74936126 19.4116512,5.00117277 C20.4410713,5.23375916 21.4312034,5.56699476 22.3710922,5.98957068 C23.6528619,6.56293194 24.8451003,7.29951832 25.9172082,8.17935079 C26.8181869,8.91556021 27.6379452,9.74487958 28.3523061,10.6597696 C28.631855,11.016377 28.8959154,11.3842932 29.1448651,11.7642723 C29.2147523,11.8686911 29.2846395,11.9734869 29.3469714,12.0820524 C29.7508063,12.7292984 30.1119533,13.4078325 30.4187016,14.1169005 L30.4885888,14.2797487 C31.2652815,16.1208377 31.7004712,18.1360838 31.7159597,20.252356 C31.720493,20.2983455 31.720493,20.344712 31.720493,20.3914555 Z" id="Shape" fill="#F0BB8E"></path>
                                <path d="M31.720493,29.8517277 C31.720493,30.0221152 31.7167153,30.1928796 31.7129376,30.363267 C31.7091599,30.4948272 31.7050044,30.6267644 31.6974491,30.7583246 C31.6936714,30.8902618 31.6857382,31.0180524 31.6740274,31.1496126 C31.6702497,31.2385759 31.6623166,31.3279162 31.6547612,31.4172565 C31.6509835,31.4715393 31.6472058,31.5216754 31.6392727,31.5759581 C31.6317173,31.6728377 31.6237841,31.7734869 31.6082956,31.8703665 C31.6003625,31.9634764 31.5890294,32.0565864 31.5773186,32.1493194 C31.5693854,32.2386597 31.5580524,32.3313927 31.5421861,32.4245026 C31.5074313,32.7034555 31.460588,32.9824084 31.409967,33.2575916 C31.3789899,33.4204398 31.3480129,33.5795183 31.3128804,33.7382199 C31.3091027,33.7732775 31.3011696,33.8041885 31.2936142,33.8350995 C31.2898365,33.8622408 31.285681,33.8893822 31.2781257,33.9165236 C31.274348,33.9244398 31.274348,33.9319791 31.2701925,33.9398953 C31.2701925,33.9478115 31.2701925,33.9553508 31.2664148,33.963267 C31.2664148,33.9670366 31.2664148,33.9711832 31.2664148,33.9711832 C31.2584817,34.0137801 31.2471486,34.056377 31.2392155,34.0952042 C31.2316601,34.137801 31.2199493,34.1803979 31.2082384,34.2192251 C31.200683,34.2697382 31.1885944,34.3161047 31.1731059,34.3628482 C31.1576174,34.4401257 31.1379734,34.5140105 31.1149295,34.5875183 C31.1111518,34.622199 31.1032187,34.6572565 31.0918856,34.6919372 C31.0839525,34.7269948 31.0726194,34.7616754 31.0646863,34.7929634 C30.9830882,35.1107435 30.8897793,35.4206073 30.7926927,35.7308482 C30.7462271,35.8782408 30.6993838,36.0214869 30.6491406,36.1688796 C30.6449851,36.1843351 30.6374297,36.1997906 30.6332743,36.2152461 C30.5868087,36.3471832 30.5399654,36.4787435 30.4934998,36.6106806 C30.4780113,36.6495079 30.4625228,36.6879581 30.4470342,36.7309319 C30.4001909,36.8549529 30.3537253,36.9789738 30.3034821,37.1029948 C30.2453057,37.2541571 30.1829738,37.4015497 30.1210197,37.5489424 C30.066621,37.6808796 30.0084446,37.8124398 29.9498905,37.944 C29.9423351,37.9673717 29.9306242,37.9865969 29.9226911,38.0099686 C29.8565816,38.149445 29.7946275,38.2889215 29.7285179,38.4246283 C29.6624084,38.5678743 29.5925211,38.7114974 29.5188562,38.8551204 C29.3790818,39.1378429 29.2275965,39.4209424 29.0761112,39.6961257 L28.8664495,40.0681885 C28.2680636,41.0954136 27.603946,42.0604398 26.881652,42.9515812 C26.7845654,43.0793717 26.6837012,43.2033927 26.5786814,43.323644 C26.4347515,43.498178 26.2874217,43.6685654 26.1397141,43.8351832 C26.007495,43.9825759 25.8756536,44.1295916 25.7396569,44.2732147 C25.366799,44.6724188 24.9860081,45.0523979 24.5976617,45.4090052 C24.5198413,45.4866597 24.438621,45.5563979 24.3566452,45.6299058 C24.2244261,45.7501571 24.0925848,45.8662618 23.956588,45.9785969 C23.8515683,46.0717068 23.7431486,46.1606702 23.6339734,46.2500105 C23.3544245,46.4784503 23.0748756,46.6993508 22.7911712,46.9047958 C22.6744406,46.9941361 22.5543101,47.0793298 22.4338019,47.1607539 C22.2396287,47.3002304 22.0413,47.4321675 21.8433492,47.5599581 C21.7345518,47.633466 21.6219766,47.7032042 21.5094015,47.7691728 C21.1482545,47.9938429 20.7791744,48.199288 20.4180274,48.3813613 C20.3832727,48.4005864 20.3522956,48.4160419 20.3171631,48.4314974 C20.2200765,48.4820105 20.1229899,48.528377 20.0259033,48.5751204 C19.9288168,48.6214869 19.8279525,48.6682304 19.7229327,48.7145969 C19.5948691,48.7726492 19.4668055,48.8269319 19.3383641,48.877445 C19.2877431,48.9004398 19.237122,48.9200419 19.1868788,48.9354974 C19.0353935,48.9973194 18.8797527,49.0557487 18.7286452,49.1058848 C18.5382497,49.175623 18.3440765,49.2336754 18.1540588,49.2879581 C18.0218397,49.3267853 17.8862207,49.361466 17.7540016,49.392377 C17.7460685,49.3965236 17.7385131,49.4002932 17.7268023,49.4002932 C17.5945832,49.4312042 17.4627418,49.4621152 17.3305228,49.4854869 C17.2953903,49.4934031 17.2606355,49.5009424 17.225503,49.504712 C17.1167056,49.5239372 17.0079082,49.5435393 16.8991108,49.5552251 C16.7438478,49.5782199 16.5885848,49.597822 16.4333218,49.6057382 C16.3789231,49.6136545 16.3283021,49.6174241 16.2742811,49.6174241 C16.1499952,49.6249634 16.0257092,49.6291099 15.905201,49.6291099 L15.8934901,49.6291099 C15.7729819,49.6291099 15.6528514,49.6253403 15.5323431,49.6174241 C15.4854998,49.6174241 15.4390342,49.6136545 15.3925687,49.6057382 C15.2837712,49.6015916 15.1711961,49.5902827 15.0544656,49.5748272 C15.0310439,49.5748272 15.0038445,49.5710576 14.9808006,49.566911 C14.8372485,49.5476859 14.6933186,49.5243141 14.545611,49.4971728 C14.421325,49.4779476 14.2970391,49.4508063 14.1689754,49.4198953 C13.5048578,49.268733 12.821474,49.0399162 12.1297793,48.733822 C11.8966959,48.6290262 11.6598349,48.5208377 11.4267515,48.3964398 C11.0656045,48.2181361 10.7044575,48.0164607 10.3470882,47.7955602 C10.0478953,47.6172565 9.75285783,47.4234974 9.45366492,47.2142827 C9.30595731,47.1094869 9.15862747,47.0050681 9.01091986,46.8965026 C8.54890858,46.5591204 8.09029722,46.1912042 7.63999678,45.7957696 C7.51571083,45.6834346 7.39142489,45.5710995 7.26713894,45.4546178 C7.142853,45.3422827 7.01856706,45.226178 6.8980588,45.113466 C6.5950882,44.8228272 6.30005075,44.5205026 6.01256867,44.2064921 C5.89999356,44.0862408 5.78741845,43.9625969 5.67446557,43.8344293 C5.36393959,43.4857382 5.06059122,43.1253613 4.77348691,42.7491518 C4.6609118,42.613445 4.55589207,42.4739686 4.4512501,42.3344921 C4.05912606,41.8154136 3.68626822,41.2725864 3.33645429,40.710534 C3.24314539,40.5593717 3.15021426,40.4040628 3.06068304,40.2532775 C2.95188562,40.0712042 2.84724366,39.8849843 2.74222392,39.6991414 C2.35387757,39.0013822 1.99650826,38.2768586 1.68560451,37.5285864 C1.63913894,37.4200209 1.59229561,37.3114555 1.55338542,37.203267 C1.49143133,37.0637906 1.43703262,36.9205445 1.3864116,36.7806911 C1.30859122,36.5752461 1.2349263,36.369801 1.16503907,36.164356 C1.09515183,35.958911 1.02904229,35.7496963 0.962932743,35.5404817 C0.900600886,35.3388063 0.842424487,35.1375079 0.788025775,34.9320628 C0.726071687,34.7149319 0.667895288,34.4940314 0.617274265,34.2693613 C0.613496577,34.2459895 0.605563431,34.2226178 0.601785743,34.199623 C0.528120822,33.8897592 0.462011277,33.5757487 0.403834877,33.2575916 C0.326014499,32.8391623 0.264060411,32.4128168 0.217217076,31.9827016 C0.197950866,31.8469948 0.186240032,31.711288 0.174529199,31.5755812 C0.159040677,31.4323351 0.147329843,31.2924817 0.139774466,31.1492356 C0.120508256,30.8895079 0.108797422,30.6260105 0.100864277,30.3625131 C0.0970865888,30.1917487 0.0929311317,30.0213613 0.0929311317,29.8509738 L2.61756021,34.8042723 L6.95585743,36.6917277 L12.0867137,37.1531309 L12.0904913,37.1531309 L15.8927346,37.4980524 L15.9161563,37.4980524 L19.4739831,37.8199791 C19.4777608,37.8199791 19.4777608,37.8199791 19.4777608,37.8199791 L27.412795,38.5331937 L31.720493,29.8517277 Z" id="Shape" fill="#E9EDF2"></path>
                                <g transform="translate(0.000000, 24.879581)" fill="#E9EDF2" id="Shape">
                                    <path d="M15.9240894,7.46048168 L15.9203117,11.2779895 L15.9203117,11.2821361 L15.916534,12.6192251 L15.916534,13.669445 L15.9127563,17.1574869 L15.9127563,17.1612565 L15.9089787,17.1574869 L15.905201,17.1574869 L15.9014233,17.1537173 L15.8934901,17.1499476 L0.617652034,9.39091099 C0.613874346,9.36753927 0.6059412,9.34416754 0.602163512,9.32117277 C0.52849859,9.0113089 0.462389046,8.69729843 0.404212646,8.37914136 C0.326392267,7.96071204 0.26443818,7.53436649 0.217594845,7.10425131 C0.198328635,6.9685445 0.186617801,6.8328377 0.174906967,6.69713089 C0.159418445,6.55388482 0.147707612,6.41403141 0.140152235,6.27078534 C0.120886025,6.01105759 0.109175191,5.74756021 0.101242046,5.48406283 C0.0974643576,5.31329843 0.0933089005,5.14291099 0.0933089005,4.97252356 L0.0933089005,0.340774869 C0.0933089005,0.406743455 0.0970865888,0.472712042 0.0970865888,0.538303665 C0.0970865888,0.584670157 0.100864277,0.631413613 0.105019734,0.677780105 C0.143552155,1.75891099 0.322614579,2.94106806 0.652406766,4.15036649 C0.920244865,5.1191623 1.25457028,6.01445026 1.64291663,6.8132356 L1.64291663,6.81700524 C2.66062586,8.92913089 4.02361579,10.3630995 5.27856383,10.5956859 C5.35600644,10.6073717 5.43760451,10.614911 5.51542489,10.6228272 C6.00085783,10.6771099 6.50971244,10.7080209 7.03405558,10.7080209 C9.01469754,10.7080209 10.7743447,9.11912042 11.8812074,8.47564398 C11.8891406,8.47187435 11.8966959,8.46772775 11.9046291,8.46395812 C11.9628055,8.42890052 12.0213596,8.3942199 12.0716029,8.3591623 C12.0870914,8.34747644 12.1025799,8.33993717 12.1180685,8.33202094 C13.0504019,7.80087958 14.3941257,7.46387435 15.8934901,7.46010471 L15.9240894,7.46010471 L15.9240894,7.46048168 Z"></path>
                                    <path d="M31.7254039,0.338890052 L31.7216263,4.97026178 C31.7216263,6.13281675 31.6128288,7.27237696 31.4111003,8.37687958 C31.3295022,8.81868063 31.2361933,9.25671204 31.1277737,9.69059686 L27.5427475,14.8568796 L15.9138896,17.1552251 L15.910112,17.1552251 L15.9063343,17.1589948 L15.9063343,17.1552251 L15.8946234,7.45671204 L15.9256005,7.45671204 C17.4245872,7.46048168 18.7724664,7.79786387 19.7044221,8.32862827 C19.7199106,8.3365445 19.7316214,8.34408377 19.7471099,8.35576963 C19.8015087,8.39045026 19.8596851,8.42550785 19.9178615,8.46018848 C19.9216391,8.46433508 19.9295723,8.46810471 19.9375054,8.47187435 C21.0481458,9.11535079 22.8036375,10.7053822 24.7846573,10.7053822 C25.3090004,10.7053822 25.817855,10.6744712 26.303288,10.6201885 C26.384886,10.6122723 26.4623286,10.604733 26.5439267,10.5930471 C27.7943415,10.3604607 29.1618647,8.92649215 30.1754184,6.81436649 L30.1754184,6.81059686 C30.5637648,6.01218848 30.8977124,5.11690052 31.1659283,4.14810471 C31.5153645,2.86906806 31.6982046,1.62094241 31.7212485,0.485528796 C31.7254039,0.435769634 31.7254039,0.389403141 31.7254039,0.338890052 Z"></path>
                                </g>
                                <ellipse id="Oval" fill="#ECC19C" cx="15.906712" cy="37.3536754" rx="3.87401933" ry="1.19497382"></ellipse>
                                <path d="M29.7591172,20.1588691 C29.7591172,20.0929005 29.7122739,20.0348482 29.6465421,20.0269319 C29.0912219,19.9417382 26.5900145,19.6005864 23.9021893,19.6005864 C20.8532171,19.6005864 16.9187547,20.5539267 16.2312155,20.5539267 L15.6214966,20.5539267 C15.3030375,20.5539267 14.2777729,20.3484817 12.9650262,20.1275812 C11.4581063,19.871623 9.57417318,19.6005864 7.95090052,19.6005864 C5.98196939,19.6005864 4.11768023,19.7868063 3.04141683,19.9145969 C2.64513733,19.9609634 2.35765526,20.0035602 2.20654772,20.0269319 C2.14043818,20.0348482 2.09397261,20.0929005 2.09397261,20.1588691 L2.06299557,21.7941361 C2.06299557,21.8521885 2.0977503,21.9027016 2.14837133,21.9260733 L2.33498913,21.9882723 C2.61076037,22.0930681 2.5873387,27.0226178 4.05950383,28.255288 C4.93328313,28.9801885 5.71413129,29.3948482 8.9958091,29.3948482 C10.8952308,29.3948482 12.0912469,28.8833089 13.2253089,27.3562304 C14.0409118,26.259267 14.7673613,23.6665131 14.7673613,23.6665131 C14.977023,22.6355183 15.7265163,22.5194136 15.8934901,22.5039581 C15.8972678,22.5039581 15.8972678,22.5039581 15.9014233,22.5039581 L15.9131341,22.5039581 C15.9210673,22.5039581 15.9248449,22.5039581 15.9248449,22.5039581 C15.9520443,22.5039581 16.8534007,22.5194136 17.0861063,23.6665131 C17.0861063,23.6665131 17.8125558,26.259267 18.6281587,27.3562304 C19.7622207,28.8833089 20.9582368,29.3948482 22.8576585,29.3948482 C26.1397141,29.3948482 26.9201845,28.9801885 27.7939638,28.255288 C29.2657511,27.0226178 29.2427072,22.0930681 29.5184785,21.9882723 L29.7050963,21.9260733 C29.7557173,21.9027016 29.790472,21.8525654 29.790472,21.7941361 L29.7591172,20.1588691 Z M13.2249311,25.991623 C12.7394982,27.1311832 11.4966387,28.5998325 9.741147,28.6891728 C4.47844946,28.9526702 4.23781071,27.4877906 3.89555215,26.3252356 C3.55367137,25.1623037 3.46451792,24.1429948 3.6005147,22.9842094 C3.73651148,21.8216545 4.03154893,21.1393508 4.56004752,20.7985759 C4.78519774,20.6474136 5.03376963,20.5117068 5.66691019,20.4148272 C6.2339412,20.3334031 7.1077205,20.2828901 8.5643971,20.2828901 C9.41097704,20.2828901 10.1997584,20.3488586 10.9065638,20.4611937 C12.7784084,20.7635183 14.0446895,21.3990785 14.0446895,22.0229529 C14.0443117,22.4530681 13.9358921,24.3058429 13.2249311,25.991623 Z M27.9567821,26.3252356 C27.6149013,27.4877906 27.3742626,28.9530471 22.1111873,28.6891728 C20.3556955,28.6002094 19.1090584,27.1311832 18.6274031,25.991623 C17.9164422,24.3058429 17.8080226,22.4530681 17.8080226,22.0229529 C17.8080226,21.1627225 20.2042102,20.2828901 23.2883149,20.2828901 C26.3682642,20.2828901 26.8616303,20.5117068 27.2926645,20.7985759 C27.8207853,21.1397277 28.1162006,21.8216545 28.2521973,22.9842094 C28.3878164,24.1429948 28.2986629,25.1623037 27.9567821,26.3252356 Z" id="Shape" fill="#1A1A1A"></path>
                                <g fill="#E9EDF2">
                                    <path d="M31.7556255,14.2756021 C31.75147,14.2756021 31.75147,14.2793717 31.7476923,14.2793717 L0.0933089005,14.2793717 C0.0933089005,3.12125654 7.62828594,3.57097382 15.8934901,4.48925654 C15.8972678,4.48925654 15.8972678,4.48925654 15.9014233,4.48925654 C16.4880983,4.55522513 17.0781732,4.62119372 17.6686259,4.68678534 C23.851946,5.37285864 28.8853379,2.7062199 31.4061893,0.346052356 C34.8351969,2.78425131 35.4452936,11.7834974 31.7556255,14.2756021 Z" id="Shape"></path>
                                    <path d="M5.60835602,13.6204398 L5.52298027,13.8877068 C5.48029239,14.019267 5.43760451,14.1512042 5.39076118,14.2789948 C5.35185099,14.3837906 5.31709625,14.4882094 5.27403061,14.5892356 C4.54795892,16.5272042 3.44865163,18.3023246 2.10077245,19.8912251 C1.15332823,21.0111832 0.201728554,22.8096754 0.104641965,25.5573613 C0.09670882,25.7160628 0.0929311317,25.8751414 0.0929311317,26.0417592 L0.0929311317,20.3910785 C0.0929311317,17.1899058 0.0929311317,14.2789948 0.0929311317,14.2789948 L1.39018929,14.1240628 L2.6564704,13.9729005 L4.14790173,13.7945969 L5.60835602,13.6204398 Z" id="Shape"></path>
                                    <path d="M31.7990689,14.2805026 L26.2855328,13.6238325 L26.3712863,13.8895916 C27.0848917,16.1042513 28.2880854,18.1145969 29.7919831,19.892356 C30.7957149,21.0790366 31.7994466,23.0219058 31.7994466,26.0455288 C31.7990689,21.9034555 31.7990689,14.2805026 31.7990689,14.2805026 Z" id="Shape"></path>
                                    <ellipse id="Oval" cx="15.8927346" cy="13.6238325" rx="11.7826097" ry="2.22860733"></ellipse>
                                </g>
                            </g>
                        </g>
                    </g>
                </g>
            </g>
        </g>
    </g>
</svg>