<?xml version="1.0" encoding="UTF-8"?>
<svg width="40px" height="40px" viewBox="0 0 40 40" version="1.1" xmlns="http://www.w3.org/2000/svg" xmlns:xlink="http://www.w3.org/1999/xlink">
    <!-- Generator: Sketch 49 (51002) - http://www.bohemiancoding.com/sketch -->
    <title>Icons/Social/Teal Gradient/Telegram</title>
    <desc>Created with Sketch.</desc>
    <defs></defs>
    <g id="KYC---Desktop" stroke="none" stroke-width="1" fill="none" fill-rule="evenodd">
        <g id="KYC---Step-4-Success" transform="translate(-576.000000, -555.000000)">
            <g id="Group-17" transform="translate(399.000000, 512.000000)">
                <g id="Group-13" transform="translate(9.000000, 43.000000)">
                    <g id="Icons/Social/Teal-Gradient/Telegram" transform="translate(168.000000, 0.000000)">
                        <circle id="Oval" fill="#FFFFFF" cx="20" cy="20" r="15"></circle>
                        <g id="Group" fill="#473B7B">
                            <path d="M22.520375,24.51475 C22.039125,24.99475 21.217875,25.2285 20.010375,25.2285 C20.006625,25.2285 20.002875,25.22975 19.999125,25.22975 C19.996625,25.22975 19.992875,25.2285 19.989125,25.2285 C18.780375,25.2285 17.960375,24.99475 17.480375,24.51475 C17.266625,24.30225 16.920375,24.30225 16.707875,24.51475 C16.494125,24.7285 16.494125,25.0735 16.707875,25.28725 C17.402875,25.9835 18.476625,26.321 19.989125,26.321 L19.999125,26.321 L20.010375,26.321 C21.522875,26.321 22.596625,25.9835 23.292875,25.28725 C23.505375,25.07475 23.505375,24.7285 23.292875,24.51475 C23.079125,24.30225 22.734125,24.301 22.520375,24.51475" id="Fill-253"></path>
                            <path d="M18.399,21.3065 C18.399,20.559 17.79275,19.93275 17.04525,19.93275 C16.29775,19.93275 15.6715,20.559 15.6715,21.3065 C15.6715,22.054 16.29775,22.66025 17.04525,22.66025 C17.79275,22.66025 18.399,22.054 18.399,21.3065" id="Fill-254"></path>
                            <path d="M22.975125,19.9325 C22.227625,19.9325 21.598875,20.55875 21.598875,21.30625 C21.598875,22.05375 22.227625,22.66 22.975125,22.66 C23.722625,22.66 24.328875,22.05375 24.328875,21.30625 C24.328875,20.55875 23.722625,19.9325 22.975125,19.9325" id="Fill-255"></path>
                            <path d="M28.884625,21.847 C28.905875,22.02075 28.918375,22.197 28.918375,22.37325 C28.918375,24.03075 27.954625,25.572 26.205875,26.71325 C24.529625,27.807 22.310875,28.4095 19.959625,28.4095 C17.607125,28.4095 15.389625,27.807 13.712125,26.71325 C11.963375,25.572 11.000875,24.03075 11.000875,22.37325 C11.000875,22.1795 11.014625,21.987 11.040875,21.797 C10.412125,21.36325 9.999625,20.63825 9.999625,19.8195 C9.999625,18.49325 11.078375,17.41575 12.403375,17.41575 C12.960875,17.41575 13.473375,17.607 13.882125,17.92575 C15.455875,16.95075 17.474625,16.3945 19.623375,16.342 L20.913375,12.26075 C20.999625,11.98825 21.282125,11.82825 21.559625,11.8945 L24.880875,12.67575 C25.215875,12.03075 25.889625,11.5895 26.664625,11.5895 C27.773375,11.5895 28.675875,12.492 28.675875,13.60075 C28.675875,14.70825 27.773375,15.61075 26.664625,15.61075 C25.605875,15.61075 24.735875,14.787 24.660875,13.74575 L21.802125,13.07325 L20.762125,16.36075 C22.755875,16.47825 24.615875,17.03325 26.082125,17.9545 C26.495875,17.61825 27.022125,17.41575 27.595875,17.41575 C28.922125,17.41575 29.999625,18.49325 29.999625,19.8195 C29.999625,20.67075 29.554625,21.4195 28.884625,21.847 M19.999625,-0.0005 C8.954625,-0.0005 -0.000375,8.9545 -0.000375,19.9995 C-0.000375,31.04575 8.954625,39.9995 19.999625,39.9995 C31.045875,39.9995 39.999625,31.04575 39.999625,19.9995 C39.999625,8.9545 31.045875,-0.0005 19.999625,-0.0005" id="Fill-256"></path>
                        </g>
                    </g>
                </g>
            </g>
        </g>
    </g>
</svg>