<?xml version="1.0" encoding="UTF-8"?>
<svg width="39px" height="39px" viewBox="0 0 39 39" version="1.1" xmlns="http://www.w3.org/2000/svg" xmlns:xlink="http://www.w3.org/1999/xlink">
    <!-- Generator: Sketch 49 (51002) - http://www.bohemiancoding.com/sketch -->
    <title>Icons/Social/Teal Gradient/Telegram</title>
    <desc>Created with Sketch.</desc>
    <defs></defs>
    <g id="KYC---Desktop" stroke="none" stroke-width="1" fill="none" fill-rule="evenodd">
        <g id="KYC---Step-4-Success" transform="translate(-464.000000, -555.000000)">
            <g id="Group-17" transform="translate(399.000000, 512.000000)">
                <g id="Group-13" transform="translate(9.000000, 43.000000)">
                    <g id="Icons/Social/Teal-Gradient/Telegram" transform="translate(56.000000, 0.000000)">
                        <circle id="Oval" fill="#FFFFFF" cx="20.8" cy="19.2" r="14.4"></circle>
                        <path d="M26.83456,15.28456 C26.84176,15.45376 26.84656,15.62296 26.84656,15.79456 C26.84656,20.99896 22.88416,27.00136 15.63856,27.00136 C13.41376,27.00136 11.34376,26.34976 9.60016,25.23256 C9.90856,25.26856 10.22176,25.28656 10.53976,25.28656 C12.38536,25.28656 14.08336,24.65776 15.43216,23.60056 C13.70776,23.56936 12.25336,22.43056 11.75176,20.86576 C11.99296,20.91136 12.23896,20.93536 12.49336,20.93536 C12.85216,20.93536 13.20016,20.88736 13.53136,20.79736 C11.72896,20.43616 10.37176,18.84376 10.37176,16.93576 L10.37176,16.88536 C10.90216,17.18056 11.51056,17.35816 12.15616,17.37856 C11.09896,16.67176 10.40296,15.46576 10.40296,14.10016 C10.40296,13.37776 10.59736,12.70096 10.93696,12.11896 C12.87976,14.50216 15.78256,16.07056 19.05616,16.23496 C18.98896,15.94696 18.95416,15.64576 18.95416,15.33736 C18.95416,13.16176 20.71816,11.39776 22.89256,11.39776 C24.02656,11.39776 25.05016,11.87656 25.76776,12.64216 C26.66536,12.46576 27.50896,12.13816 28.26976,11.68696 C27.97576,12.60616 27.35056,13.37776 26.53816,13.86616 C27.33496,13.77016 28.09336,13.55896 28.80016,13.24576 C28.27216,14.03536 27.60376,14.72896 26.83456,15.28456 M19.20016,0.00016 C8.59576,0.00016 0.00016,8.59576 0.00016,19.20016 C0.00016,29.80336 8.59576,38.40016 19.20016,38.40016 C29.80456,38.40016 38.40016,29.80336 38.40016,19.20016 C38.40016,8.59576 29.80456,0.00016 19.20016,0.00016" id="Fill-184" fill="#473B7B"></path>
                    </g>
                </g>
            </g>
        </g>
    </g>
</svg>