<?xml version="1.0" encoding="UTF-8"?>
<svg width="59px" height="72px" viewBox="0 0 59 72" version="1.1" xmlns="http://www.w3.org/2000/svg" xmlns:xlink="http://www.w3.org/1999/xlink">
    <!-- Generator: Sketch 48.2 (47327) - http://www.bohemiancoding.com/sketch -->
    <title>webcam</title>
    <desc>Created with Sketch.</desc>
    <defs></defs>
    <g id="KYC---ID-Verification---Step-2-Choose-Method" stroke="none" stroke-width="1" fill="none" fill-rule="evenodd" transform="translate(-346.000000, -563.000000)">
        <g id="Group-3" transform="translate(316.000000, 563.000000)" fill-rule="nonzero">
            <g id="Group-11">
                <g id="webcam" transform="translate(30.000000, 0.000000)">
                    <path d="M47.0910561,66.4641523 C47.0910561,60.8410708 39.1549907,56.2302439 29.3052206,56.2302439 C19.5117569,56.2302439 11.519385,60.7849613 11.519385,66.4641523 C11.519385,69.5006306 19.4554504,71.9747293 29.3052206,71.9747293 C39.0988272,71.9747293 47.0910561,69.5006306 47.0910561,66.4641523 Z" id="Shape" fill="#EEEEEE"></path>
                    <path d="M29.3052206,56.2302439 C24.3522537,56.2302439 19.9057591,57.4111124 16.6974348,59.2667222 C18.7236095,61.4034503 23.6204128,62.8654372 29.3052206,62.8654372 C34.9900284,62.8654372 39.8866888,61.3471981 41.9130064,59.2667222 C38.704682,57.3548602 34.2581874,56.2302439 29.3052206,56.2302439 Z" id="Shape" fill="#DEDCDC"></path>
                    <path d="M29.3052206,0 C45.4588837,0 58.5731417,13.10163 58.5731417,29.2397383 C58.5731417,45.3778465 45.4588837,58.4794765 29.3052206,58.4794765 C13.1515575,58.4794765 0.0372994503,45.3778465 0.0372994503,29.2397383 C0.0372994503,13.10163 13.1515575,0 29.3052206,0 Z" id="Shape" fill="#EEEEEE"></path>
                    <path d="M29.3052206,3.3738489 C30.5435337,3.3738489 31.5566211,4.38596074 31.5566211,5.6230815 C31.5566211,6.86020226 30.5435337,7.8723141 29.3052206,7.8723141 C28.0669074,7.8723141 27.05382,6.86020226 27.05382,5.6230815 C27.05382,4.38596074 28.0669074,3.3738489 29.3052206,3.3738489 Z" id="Shape" fill="#EF5D52"></path>
                    <path d="M29.3052206,11.2460202 C19.3428375,11.2460202 11.2941592,19.2869482 11.2941592,29.2397383 C11.2941592,39.1925283 19.3428375,47.2334563 29.3052206,47.2334563 C39.2676036,47.2334563 47.3162819,39.1925283 47.3162819,29.2397383 C47.3162819,19.2869482 39.2674607,11.2460202 29.3052206,11.2460202 Z" id="Shape" fill="#5A5C5F"></path>
                    <path d="M29.3052206,15.7444854 C21.8193209,15.7444854 15.7969603,21.8172992 15.7969603,29.2397383 C15.7969603,36.7184295 21.8194639,42.7349911 29.3052206,42.7349911 C36.7909773,42.7349911 42.8134809,36.7182867 42.8134809,29.2397383 C42.8134809,21.7611898 36.7911202,15.7444854 29.3052206,15.7444854 Z" id="Shape" fill="#34373B"></path>
                    <path d="M29.3052206,19.1183343 C23.7330257,19.1183343 19.1740611,23.6730518 19.1740611,29.2397383 C19.1740611,34.8064247 23.7331686,39.3611422 29.3052206,39.3611422 C34.8772726,39.3611422 39.4363801,34.8064247 39.4363801,29.2397383 C39.4363801,23.6730518 34.8774155,19.1183343 29.3052206,19.1183343 Z" id="Shape" fill="#5A5C5F"></path>
                    <path d="M29.3052206,24.1790363 C26.4910414,24.1790363 24.2396408,26.4282689 24.2396408,29.2397383 C24.2396408,32.0512076 26.4910414,34.3004402 29.3052206,34.3004402 C32.1193998,34.3004402 34.3708003,32.0512076 34.3708003,29.2397383 C34.3708003,26.4282689 32.1193998,24.1790363 29.3052206,24.1790363 Z" id="Shape" fill="#34373B"></path>
                    <path d="M27.8979881,26.4282689 C28.6859925,26.4282689 29.3050777,27.0467579 29.3050777,27.8340036 C29.3050777,28.6212493 28.6859925,29.2397383 27.8979881,29.2397383 C27.1099836,29.2397383 26.4908985,28.6212493 26.4908985,27.8340036 C26.4908985,27.0467579 27.1101265,26.4282689 27.8979881,26.4282689 Z" id="Shape" fill="#5A6870"></path>
                    <path d="M29.3052206,52.856395 C14.1084813,52.856395 1.61330841,41.2730042 0.14991235,26.4281261 C0.0372994503,27.3278763 0.0372994503,28.2837359 0.0372994503,29.2395955 C0.0372994503,45.3777037 13.1515575,58.4793337 29.3052206,58.4793337 C45.4588837,58.4793337 58.5731417,45.3777037 58.5731417,29.2395955 C58.5731417,28.2837359 58.5168353,27.3277335 58.4605288,26.4281261 C56.9971328,41.2730042 44.5019598,52.856395 29.3052206,52.856395 Z" id="Shape" fill="#DEDCDC"></path>
                </g>
            </g>
        </g>
    </g>
</svg>